<svg width="280" height="236" viewBox="0 0 280 236" fill="none" xmlns="http://www.w3.org/2000/svg">
<rect width="280" height="236" rx="20" fill="#C86CCA"/>
<path d="M29 126.893C35.8386 126.893 42.6518 126.267 49.5408 126.267C54.9612 126.267 58.6797 128.822 63.7801 130.375C71.3651 132.683 79.0132 133.518 86.7927 134.901C92.6514 135.942 96.9889 134.763 102.007 132.533C107.339 130.163 110.948 126.416 115.48 122.855C118.454 120.518 121.554 118.289 124.741 116.24C126.189 115.309 128.22 115.448 129.406 114.499C130.7 113.464 136.032 114.36 137.727 114.36C141.047 114.36 145.004 115.394 148.206 116.379C156.949 119.069 165.483 123.661 174.387 125.64C179.779 126.838 184.463 128.147 190.054 128.147C196.973 128.147 202.508 126.896 209.097 124.7C215.372 122.608 225.308 118.026 232.04 121.393C238.189 124.467 245.06 126.893 252.094 126.893" stroke="#FF9696" stroke-width="7" stroke-linecap="round"/>
<g filter="url(#filter0_d_133_51)">
<path d="M117.68 108.88H107.88V132H102.4V104H123.16V132H117.68V108.88ZM127.067 118C127.067 113.333 128.094 109.747 130.147 107.24C132.2 104.707 135.134 103.44 138.947 103.44C140.947 103.44 142.694 103.787 144.187 104.48C145.68 105.173 146.92 106.16 147.907 107.44C148.894 108.72 149.627 110.253 150.107 112.04C150.587 113.827 150.827 115.813 150.827 118C150.827 122.667 149.787 126.267 147.707 128.8C145.654 131.307 142.734 132.56 138.947 132.56C136.92 132.56 135.16 132.213 133.667 131.52C132.174 130.827 130.934 129.84 129.947 128.56C128.987 127.28 128.267 125.747 127.787 123.96C127.307 122.173 127.067 120.187 127.067 118ZM132.827 118C132.827 119.413 132.947 120.72 133.187 121.92C133.427 123.093 133.787 124.107 134.267 124.96C134.774 125.813 135.414 126.48 136.187 126.96C136.96 127.44 137.88 127.68 138.947 127.68C140.894 127.68 142.4 126.92 143.467 125.4C144.534 123.88 145.067 121.413 145.067 118C145.067 116.64 144.947 115.373 144.707 114.2C144.494 113.027 144.147 112 143.667 111.12C143.187 110.24 142.56 109.56 141.787 109.08C141.014 108.573 140.067 108.32 138.947 108.32C137 108.32 135.494 109.107 134.427 110.68C133.36 112.227 132.827 114.667 132.827 118ZM170.024 108.88H160.224V132H154.744V104H175.504V132H170.024V108.88Z" fill="white"/>
</g>
<path d="M28 169.893C34.8386 169.893 41.6518 169.267 48.5408 169.267C53.9612 169.267 57.6797 171.822 62.7801 173.375C70.3651 175.683 78.0132 176.518 85.7927 177.901C91.6514 178.942 95.9889 177.763 101.007 175.533C106.339 173.163 109.948 169.416 114.48 165.855C117.454 163.518 120.554 161.289 123.741 159.24C125.189 158.309 127.22 158.448 128.406 157.499C129.7 156.464 135.032 157.36 136.727 157.36C140.047 157.36 144.004 158.394 147.206 159.379C155.949 162.069 164.483 166.661 173.387 168.64C178.779 169.838 183.463 171.147 189.054 171.147C195.973 171.147 201.508 169.896 208.097 167.7C214.372 165.608 224.308 161.026 231.04 164.393C237.189 167.467 244.06 169.893 251.094 169.893" stroke="#FF9696" stroke-width="7" stroke-linecap="round"/>
<path d="M28 83.8933C34.8386 83.8933 41.6518 83.2666 48.5408 83.2666C53.9612 83.2666 57.6797 85.8225 62.7801 87.3748C70.3651 89.6833 78.0132 90.5177 85.7927 91.9007C91.6514 92.9423 95.9889 91.7635 101.007 89.5333C106.339 87.1632 109.948 83.4158 114.48 79.8548C117.454 77.5179 120.554 75.2888 123.741 73.2399C125.189 72.3092 127.22 72.448 128.406 71.4992C129.7 70.464 135.032 71.3599 136.727 71.3599C140.047 71.3599 144.004 72.3938 147.206 73.3792C155.949 76.0692 164.483 80.6613 173.387 82.64C178.779 83.8382 183.463 85.1466 189.054 85.1466C195.973 85.1466 201.508 83.8963 208.097 81.7C214.372 79.6084 224.308 75.0262 231.04 78.3925C237.189 81.4669 244.06 83.8933 251.094 83.8933" stroke="#FF9696" stroke-width="7" stroke-linecap="round"/>
<defs>
<filter id="filter0_d_133_51" x="98.3999" y="103.44" width="81.1038" height="37.12" filterUnits="userSpaceOnUse" color-interpolation-filters="sRGB">
<feFlood flood-opacity="0" result="BackgroundImageFix"/>
<feColorMatrix in="SourceAlpha" type="matrix" values="0 0 0 0 0 0 0 0 0 0 0 0 0 0 0 0 0 0 127 0" result="hardAlpha"/>
<feOffset dy="4"/>
<feGaussianBlur stdDeviation="2"/>
<feComposite in2="hardAlpha" operator="out"/>
<feColorMatrix type="matrix" values="0 0 0 0 0 0 0 0 0 0 0 0 0 0 0 0 0 0 0.25 0"/>
<feBlend mode="normal" in2="BackgroundImageFix" result="effect1_dropShadow_133_51"/>
<feBlend mode="normal" in="SourceGraphic" in2="effect1_dropShadow_133_51" result="shape"/>
</filter>
</defs>
</svg>
