<svg width="288" height="244" viewBox="0 0 288 244" fill="none" xmlns="http://www.w3.org/2000/svg">
<g filter="url(#filter0_d_133_56)">
<rect x="4" width="280" height="236" rx="20" fill="#6CB9CA"/>
</g>
<g filter="url(#filter1_d_133_56)">
<line x1="224.195" y1="49.2177" x2="251.943" y2="75.0736" stroke="#5A3101" stroke-width="8"/>
</g>
<g filter="url(#filter2_d_133_56)">
<circle cx="212" cy="37" r="29" fill="#FC73FF"/>
</g>
<ellipse cx="212" cy="36.5" rx="24" ry="22.5" fill="#24F2FF"/>
<ellipse cx="212" cy="36.5" rx="18" ry="16.5" fill="#FC73FF"/>
<ellipse cx="212" cy="37" rx="10" ry="9" fill="#24F2FF"/>
<g filter="url(#filter3_d_133_56)">
<path d="M78.9209 107H75.0409L74.4409 102H56.4409L55.8409 107H51.9609V97.12H54.9209C55.1076 96.8267 55.4143 96.1733 55.8409 95.16C56.2676 94.1467 56.6943 92.72 57.1209 90.88C57.5476 89.0133 57.9076 86.6933 58.2009 83.92C58.4943 81.12 58.6276 77.8133 58.6009 74H75.3609V97.12H78.9209V107ZM69.8809 97.12V78.88H63.6809C63.5209 83.6267 63.1343 87.52 62.5209 90.56C61.9343 93.5733 61.3343 95.76 60.7209 97.12H69.8809ZM82.0172 74H98.6172V78.88H87.4972V85.4H97.6172V90.28H87.4972V97.12H98.8172V102H82.0172V74ZM122.796 78.88H114.636V102H109.156V78.88H100.956V74H122.796V78.88ZM143.048 100.84C142.194 101.453 141.101 101.893 139.768 102.16C138.461 102.427 137.114 102.56 135.728 102.56C134.048 102.56 132.448 102.307 130.928 101.8C129.434 101.267 128.114 100.427 126.967 99.28C125.821 98.1067 124.901 96.6 124.208 94.76C123.541 92.8933 123.208 90.64 123.208 88C123.208 85.2533 123.581 82.96 124.327 81.12C125.101 79.2533 126.088 77.76 127.288 76.64C128.514 75.4933 129.874 74.68 131.368 74.2C132.861 73.6933 134.354 73.44 135.848 73.44C137.448 73.44 138.794 73.5467 139.888 73.76C141.008 73.9733 141.928 74.2267 142.648 74.52L141.568 79.16C140.954 78.8667 140.221 78.6533 139.368 78.52C138.541 78.3867 137.528 78.32 136.328 78.32C134.114 78.32 132.328 79.1067 130.968 80.68C129.634 82.2533 128.968 84.6933 128.968 88C128.968 89.44 129.128 90.76 129.448 91.96C129.768 93.1333 130.248 94.1467 130.888 95C131.554 95.8267 132.368 96.48 133.328 96.96C134.314 97.4133 135.448 97.64 136.728 97.64C137.928 97.64 138.941 97.52 139.768 97.28C140.594 97.04 141.314 96.7333 141.928 96.36L143.048 100.84ZM153.351 90.04H151.911V102H146.431V74H151.911V86.4L153.191 85.84L160.911 74H167.151L158.991 85.76L156.831 87.28L159.071 88.84L168.391 102H161.631L153.351 90.04ZM189.596 102H184.116V90.92L181.236 91.68L175.396 102H169.036L174.796 92.68L177.196 90.96C176.343 90.7467 175.543 90.4267 174.796 90C174.049 89.5467 173.396 88.9733 172.836 88.28C172.276 87.5867 171.836 86.7733 171.516 85.84C171.196 84.88 171.036 83.8 171.036 82.6C171.036 80.92 171.329 79.5067 171.916 78.36C172.503 77.2133 173.316 76.2933 174.356 75.6C175.396 74.88 176.636 74.3733 178.076 74.08C179.516 73.76 181.076 73.6 182.756 73.6C183.209 73.6 183.729 73.6133 184.316 73.64C184.903 73.6667 185.503 73.7067 186.116 73.76C186.756 73.8133 187.369 73.88 187.956 73.96C188.569 74.04 189.116 74.1467 189.596 74.28V102ZM182.076 78.48C181.356 78.48 180.676 78.5467 180.036 78.68C179.396 78.8133 178.836 79.04 178.356 79.36C177.876 79.68 177.489 80.12 177.196 80.68C176.929 81.24 176.796 81.96 176.796 82.84C176.796 83.6667 176.929 84.3733 177.196 84.96C177.463 85.52 177.836 85.9867 178.316 86.36C178.796 86.7067 179.356 86.96 179.996 87.12C180.636 87.28 181.329 87.36 182.076 87.36H184.116V78.68C183.823 78.6267 183.516 78.5867 183.196 78.56C182.903 78.5067 182.529 78.48 182.076 78.48ZM68.0927 139.48L68.6927 133.92H68.4527L66.7327 138.4L60.7727 148.84H59.0127L52.7327 138.36L50.9727 133.92H50.7727L51.5727 139.44V154H46.3727V126H51.3727L58.8527 138.8L60.1727 142H60.3327L61.5327 138.72L68.6127 126H73.5727V154H68.0927V139.48ZM87.7248 138.36L88.5248 142H88.7648L89.4048 138.24L93.6048 126H99.2448L91.8048 145.36C91.2182 146.88 90.6448 148.2 90.0848 149.32C89.5515 150.44 88.9648 151.373 88.3248 152.12C87.7115 152.84 87.0182 153.387 86.2448 153.76C85.4715 154.107 84.5648 154.28 83.5248 154.28C82.6448 154.28 81.9248 154.213 81.3648 154.08C80.8315 153.973 80.2448 153.72 79.6048 153.32L81.0048 148.88C81.4582 149.12 81.8715 149.267 82.2448 149.32C82.6182 149.373 83.0182 149.4 83.4448 149.4C84.6982 149.4 85.5782 148.413 86.0848 146.44L75.6048 126H82.0448L87.7248 138.36ZM103.499 141.6V137.32H104.459C104.699 137.32 104.993 137.32 105.339 137.32C105.686 137.32 106.033 137.32 106.379 137.32C106.753 137.293 107.113 137.267 107.459 137.24C107.806 137.187 108.086 137.133 108.299 137.08C109.233 136.867 110.033 136.493 110.699 135.96C111.366 135.4 111.699 134.653 111.699 133.72C111.699 132.44 111.286 131.573 110.459 131.12C109.659 130.64 108.593 130.4 107.259 130.4C106.059 130.4 104.939 130.56 103.899 130.88C102.859 131.2 102.073 131.507 101.539 131.8L100.139 127.16C100.433 127 100.846 126.827 101.379 126.64C101.939 126.453 102.566 126.28 103.259 126.12C103.979 125.933 104.753 125.787 105.579 125.68C106.406 125.573 107.246 125.52 108.099 125.52C109.273 125.52 110.419 125.627 111.539 125.84C112.659 126.053 113.659 126.427 114.539 126.96C115.419 127.493 116.126 128.213 116.659 129.12C117.193 130 117.459 131.133 117.459 132.52C117.459 133.907 117.086 135.187 116.339 136.36C115.619 137.533 114.446 138.387 112.819 138.92V139.12C114.553 139.467 115.899 140.213 116.859 141.36C117.846 142.507 118.339 144.04 118.339 145.96C118.339 147.48 118.033 148.787 117.419 149.88C116.806 150.947 115.993 151.827 114.979 152.52C113.993 153.213 112.846 153.72 111.539 154.04C110.233 154.387 108.899 154.56 107.539 154.56C105.779 154.56 104.179 154.413 102.739 154.12C101.299 153.827 100.193 153.48 99.4192 153.08L100.819 148.32C101.433 148.613 102.313 148.92 103.459 149.24C104.606 149.533 105.966 149.68 107.539 149.68C108.126 149.68 108.713 149.613 109.299 149.48C109.913 149.32 110.459 149.08 110.939 148.76C111.419 148.413 111.806 147.973 112.099 147.44C112.393 146.907 112.539 146.267 112.539 145.52C112.539 144.267 112.073 143.32 111.139 142.68C110.206 142.04 108.539 141.693 106.139 141.64C105.819 141.613 105.579 141.6 105.419 141.6C105.259 141.6 104.979 141.6 104.579 141.6H103.499ZM143.754 126H149.234V154H143.754V126ZM122.154 126H127.634V136.04C127.927 135.987 128.394 135.92 129.034 135.84C129.674 135.76 130.301 135.72 130.914 135.72C132.247 135.72 133.514 135.853 134.714 136.12C135.941 136.387 137.007 136.867 137.914 137.56C138.821 138.227 139.541 139.147 140.074 140.32C140.607 141.467 140.874 142.92 140.874 144.68C140.874 147.933 139.927 150.373 138.034 152C136.141 153.6 133.327 154.4 129.594 154.4C129.221 154.4 128.741 154.387 128.154 154.36C127.567 154.36 126.927 154.333 126.234 154.28C125.567 154.227 124.874 154.16 124.154 154.08C123.434 154 122.767 153.88 122.154 153.72V126ZM129.994 149.52C131.514 149.52 132.741 149.173 133.674 148.48C134.634 147.76 135.114 146.573 135.114 144.92C135.114 144.04 134.981 143.32 134.714 142.76C134.447 142.2 134.087 141.76 133.634 141.44C133.181 141.12 132.647 140.907 132.034 140.8C131.421 140.667 130.754 140.6 130.034 140.6C129.661 140.6 129.221 140.64 128.714 140.72C128.207 140.773 127.847 140.84 127.634 140.92V149.28C127.927 149.36 128.274 149.427 128.674 149.48C129.101 149.507 129.541 149.52 129.994 149.52ZM160.988 142.04H159.548V154H154.068V126H159.548V138.4L160.828 137.84L168.548 126H174.788L166.628 137.76L164.468 139.28L166.708 140.84L176.028 154H169.268L160.988 142.04ZM192.009 147.8H183.409L181.289 154H175.809L185.889 125.8H189.929L200.009 154H194.249L192.009 147.8ZM184.809 143.4H190.809L188.729 137.16L187.889 132.76H187.689L186.849 137.2L184.809 143.4Z" fill="#FFD74A"/>
</g>
<defs>
<filter id="filter0_d_133_56" x="0" y="0" width="288" height="244" filterUnits="userSpaceOnUse" color-interpolation-filters="sRGB">
<feFlood flood-opacity="0" result="BackgroundImageFix"/>
<feColorMatrix in="SourceAlpha" type="matrix" values="0 0 0 0 0 0 0 0 0 0 0 0 0 0 0 0 0 0 127 0" result="hardAlpha"/>
<feOffset dy="4"/>
<feGaussianBlur stdDeviation="2"/>
<feComposite in2="hardAlpha" operator="out"/>
<feColorMatrix type="matrix" values="0 0 0 0 0 0 0 0 0 0 0 0 0 0 0 0 0 0 0.25 0"/>
<feBlend mode="normal" in2="BackgroundImageFix" result="effect1_dropShadow_133_56"/>
<feBlend mode="normal" in="SourceGraphic" in2="effect1_dropShadow_133_56" result="shape"/>
</filter>
<filter id="filter1_d_133_56" x="217.469" y="46.2913" width="41.2017" height="39.7087" filterUnits="userSpaceOnUse" color-interpolation-filters="sRGB">
<feFlood flood-opacity="0" result="BackgroundImageFix"/>
<feColorMatrix in="SourceAlpha" type="matrix" values="0 0 0 0 0 0 0 0 0 0 0 0 0 0 0 0 0 0 127 0" result="hardAlpha"/>
<feOffset dy="4"/>
<feGaussianBlur stdDeviation="2"/>
<feComposite in2="hardAlpha" operator="out"/>
<feColorMatrix type="matrix" values="0 0 0 0 0 0 0 0 0 0 0 0 0 0 0 0 0 0 0.25 0"/>
<feBlend mode="normal" in2="BackgroundImageFix" result="effect1_dropShadow_133_56"/>
<feBlend mode="normal" in="SourceGraphic" in2="effect1_dropShadow_133_56" result="shape"/>
</filter>
<filter id="filter2_d_133_56" x="179" y="8" width="66" height="66" filterUnits="userSpaceOnUse" color-interpolation-filters="sRGB">
<feFlood flood-opacity="0" result="BackgroundImageFix"/>
<feColorMatrix in="SourceAlpha" type="matrix" values="0 0 0 0 0 0 0 0 0 0 0 0 0 0 0 0 0 0 127 0" result="hardAlpha"/>
<feOffset dy="4"/>
<feGaussianBlur stdDeviation="2"/>
<feComposite in2="hardAlpha" operator="out"/>
<feColorMatrix type="matrix" values="0 0 0 0 0 0 0 0 0 0 0 0 0 0 0 0 0 0 0.25 0"/>
<feBlend mode="normal" in2="BackgroundImageFix" result="effect1_dropShadow_133_56"/>
<feBlend mode="normal" in="SourceGraphic" in2="effect1_dropShadow_133_56" result="shape"/>
</filter>
<filter id="filter3_d_133_56" x="42.3726" y="73.44" width="161.636" height="89.12" filterUnits="userSpaceOnUse" color-interpolation-filters="sRGB">
<feFlood flood-opacity="0" result="BackgroundImageFix"/>
<feColorMatrix in="SourceAlpha" type="matrix" values="0 0 0 0 0 0 0 0 0 0 0 0 0 0 0 0 0 0 127 0" result="hardAlpha"/>
<feOffset dy="4"/>
<feGaussianBlur stdDeviation="2"/>
<feComposite in2="hardAlpha" operator="out"/>
<feColorMatrix type="matrix" values="0 0 0 0 0 0 0 0 0 0 0 0 0 0 0 0 0 0 0.25 0"/>
<feBlend mode="normal" in2="BackgroundImageFix" result="effect1_dropShadow_133_56"/>
<feBlend mode="normal" in="SourceGraphic" in2="effect1_dropShadow_133_56" result="shape"/>
</filter>
</defs>
</svg>
