<svg width="280" height="239" viewBox="0 0 280 239" fill="none" xmlns="http://www.w3.org/2000/svg">
<rect width="280" height="236" rx="20" fill="#CA6C6C"/>
<g filter="url(#filter0_d_135_88)">
<path d="M117.68 108.88H107.88V132H102.4V104H123.16V132H117.68V108.88ZM127.067 118C127.067 113.333 128.094 109.747 130.147 107.24C132.2 104.707 135.134 103.44 138.947 103.44C140.947 103.44 142.694 103.787 144.187 104.48C145.68 105.173 146.92 106.16 147.907 107.44C148.894 108.72 149.627 110.253 150.107 112.04C150.587 113.827 150.827 115.813 150.827 118C150.827 122.667 149.787 126.267 147.707 128.8C145.654 131.307 142.734 132.56 138.947 132.56C136.92 132.56 135.16 132.213 133.667 131.52C132.174 130.827 130.934 129.84 129.947 128.56C128.987 127.28 128.267 125.747 127.787 123.96C127.307 122.173 127.067 120.187 127.067 118ZM132.827 118C132.827 119.413 132.947 120.72 133.187 121.92C133.427 123.093 133.787 124.107 134.267 124.96C134.774 125.813 135.414 126.48 136.187 126.96C136.96 127.44 137.88 127.68 138.947 127.68C140.894 127.68 142.4 126.92 143.467 125.4C144.534 123.88 145.067 121.413 145.067 118C145.067 116.64 144.947 115.373 144.707 114.2C144.494 113.027 144.147 112 143.667 111.12C143.187 110.24 142.56 109.56 141.787 109.08C141.014 108.573 140.067 108.32 138.947 108.32C137 108.32 135.494 109.107 134.427 110.68C133.36 112.227 132.827 114.667 132.827 118ZM170.024 108.88H160.224V132H154.744V104H175.504V132H170.024V108.88Z" fill="white"/>
</g>
<g filter="url(#filter1_d_135_88)">
<ellipse cx="139" cy="121.5" rx="109.5" ry="113" transform="rotate(-90 139 121.5)" fill="#D9D9D9"/>
</g>
<circle cx="140.267" cy="130.782" r="60.5" transform="rotate(-90.4625 140.267 130.782)" fill="black"/>
<rect x="102.46" y="57.6035" width="57" height="75" transform="rotate(-90.4625 102.46 57.6035)" fill="#D9D9D9"/>
<rect x="108.001" y="29.0937" width="10.0888" height="63.2171" transform="rotate(-90.0045 108.001 29.0937)" fill="black"/>
<line x1="133" y1="101" x2="133" y2="4" stroke="white" stroke-width="8"/>
<line x1="117" y1="101" x2="117" y2="4" stroke="white" stroke-width="8"/>
<line x1="117" y1="204" x2="117" y2="138" stroke="white" stroke-width="8"/>
<line x1="134" y1="204" x2="134" y2="138" stroke="white" stroke-width="8"/>
<line x1="148" y1="204" x2="148" y2="138" stroke="white" stroke-width="8"/>
<line x1="162" y1="204" x2="162" y2="138" stroke="white" stroke-width="8"/>
<line x1="162" y1="101" x2="162" y2="4" stroke="white" stroke-width="8"/>
<line x1="148" y1="101" x2="148" y2="4" stroke="white" stroke-width="8"/>
<g filter="url(#filter2_d_135_88)">
<path d="M104.4 104.28C105.52 104.067 106.747 103.907 108.08 103.8C109.44 103.667 110.787 103.6 112.12 103.6C113.507 103.6 114.893 103.72 116.28 103.96C117.693 104.173 118.96 104.627 120.08 105.32C121.2 105.987 122.107 106.933 122.8 108.16C123.52 109.36 123.88 110.933 123.88 112.88C123.88 114.64 123.573 116.133 122.96 117.36C122.347 118.56 121.533 119.547 120.52 120.32C119.507 121.093 118.347 121.653 117.04 122C115.76 122.347 114.427 122.52 113.04 122.52C112.907 122.52 112.693 122.52 112.4 122.52C112.107 122.52 111.8 122.52 111.48 122.52C111.16 122.493 110.84 122.467 110.52 122.44C110.227 122.413 110.013 122.387 109.88 122.36V132H104.4V104.28ZM112.56 108.32C112.027 108.32 111.52 108.347 111.04 108.4C110.56 108.427 110.173 108.467 109.88 108.52V117.6C109.987 117.627 110.147 117.653 110.36 117.68C110.573 117.707 110.8 117.733 111.04 117.76C111.28 117.76 111.507 117.76 111.72 117.76C111.96 117.76 112.133 117.76 112.24 117.76C112.96 117.76 113.667 117.693 114.36 117.56C115.08 117.427 115.72 117.187 116.28 116.84C116.84 116.467 117.28 115.96 117.6 115.32C117.947 114.68 118.12 113.84 118.12 112.8C118.12 111.92 117.96 111.2 117.64 110.64C117.32 110.053 116.893 109.587 116.36 109.24C115.853 108.893 115.267 108.653 114.6 108.52C113.933 108.387 113.253 108.32 112.56 108.32ZM125.981 118C125.981 113.333 127.008 109.747 129.061 107.24C131.114 104.707 134.048 103.44 137.861 103.44C139.861 103.44 141.608 103.787 143.101 104.48C144.594 105.173 145.834 106.16 146.821 107.44C147.808 108.72 148.541 110.253 149.021 112.04C149.501 113.827 149.741 115.813 149.741 118C149.741 122.667 148.701 126.267 146.621 128.8C144.568 131.307 141.648 132.56 137.861 132.56C135.834 132.56 134.074 132.213 132.581 131.52C131.088 130.827 129.848 129.84 128.861 128.56C127.901 127.28 127.181 125.747 126.701 123.96C126.221 122.173 125.981 120.187 125.981 118ZM131.741 118C131.741 119.413 131.861 120.72 132.101 121.92C132.341 123.093 132.701 124.107 133.181 124.96C133.688 125.813 134.328 126.48 135.101 126.96C135.874 127.44 136.794 127.68 137.861 127.68C139.808 127.68 141.314 126.92 142.381 125.4C143.448 123.88 143.981 121.413 143.981 118C143.981 116.64 143.861 115.373 143.621 114.2C143.408 113.027 143.061 112 142.581 111.12C142.101 110.24 141.474 109.56 140.701 109.08C139.928 108.573 138.981 108.32 137.861 108.32C135.914 108.32 134.408 109.107 133.341 110.68C132.274 112.227 131.741 114.667 131.741 118ZM160.578 120.04H159.138V132H153.658V104H159.138V116.4L160.418 115.84L168.138 104H174.378L166.218 115.76L164.058 117.28L166.298 118.84L175.618 132H168.858L160.578 120.04Z" fill="#C64E4E"/>
</g>
<rect x="106.073" y="205.272" width="18" height="66" transform="rotate(-90 106.073 205.272)" fill="black"/>
<defs>
<filter id="filter0_d_135_88" x="98.3999" y="103.44" width="81.1038" height="37.12" filterUnits="userSpaceOnUse" color-interpolation-filters="sRGB">
<feFlood flood-opacity="0" result="BackgroundImageFix"/>
<feColorMatrix in="SourceAlpha" type="matrix" values="0 0 0 0 0 0 0 0 0 0 0 0 0 0 0 0 0 0 127 0" result="hardAlpha"/>
<feOffset dy="4"/>
<feGaussianBlur stdDeviation="2"/>
<feComposite in2="hardAlpha" operator="out"/>
<feColorMatrix type="matrix" values="0 0 0 0 0 0 0 0 0 0 0 0 0 0 0 0 0 0 0.25 0"/>
<feBlend mode="normal" in2="BackgroundImageFix" result="effect1_dropShadow_135_88"/>
<feBlend mode="normal" in="SourceGraphic" in2="effect1_dropShadow_135_88" result="shape"/>
</filter>
<filter id="filter1_d_135_88" x="22" y="12" width="234" height="227" filterUnits="userSpaceOnUse" color-interpolation-filters="sRGB">
<feFlood flood-opacity="0" result="BackgroundImageFix"/>
<feColorMatrix in="SourceAlpha" type="matrix" values="0 0 0 0 0 0 0 0 0 0 0 0 0 0 0 0 0 0 127 0" result="hardAlpha"/>
<feOffset dy="4"/>
<feGaussianBlur stdDeviation="2"/>
<feComposite in2="hardAlpha" operator="out"/>
<feColorMatrix type="matrix" values="0 0 0 0 0 0 0 0 0 0 0 0 0 0 0 0 0 0 0.25 0"/>
<feBlend mode="normal" in2="BackgroundImageFix" result="effect1_dropShadow_135_88"/>
<feBlend mode="normal" in="SourceGraphic" in2="effect1_dropShadow_135_88" result="shape"/>
</filter>
<filter id="filter2_d_135_88" x="100.4" y="103.44" width="79.218" height="37.12" filterUnits="userSpaceOnUse" color-interpolation-filters="sRGB">
<feFlood flood-opacity="0" result="BackgroundImageFix"/>
<feColorMatrix in="SourceAlpha" type="matrix" values="0 0 0 0 0 0 0 0 0 0 0 0 0 0 0 0 0 0 127 0" result="hardAlpha"/>
<feOffset dy="4"/>
<feGaussianBlur stdDeviation="2"/>
<feComposite in2="hardAlpha" operator="out"/>
<feColorMatrix type="matrix" values="0 0 0 0 0 0 0 0 0 0 0 0 0 0 0 0 0 0 0.25 0"/>
<feBlend mode="normal" in2="BackgroundImageFix" result="effect1_dropShadow_135_88"/>
<feBlend mode="normal" in="SourceGraphic" in2="effect1_dropShadow_135_88" result="shape"/>
</filter>
</defs>
</svg>
