<svg width="280" height="236" viewBox="0 0 280 236" fill="none" xmlns="http://www.w3.org/2000/svg">
<rect width="280" height="236" rx="20" fill="#B7CA6C"/>
<rect x="30" y="43" width="220" height="162" fill="black"/>
<rect x="64" y="125" width="91" height="67" fill="#4375C0"/>
<rect x="167" y="177" width="63" height="15" fill="#4275C0"/>
<ellipse cx="82.5" cy="84" rx="18.5" ry="19" fill="#2C2C2C"/>
<circle cx="141" cy="84" r="19" fill="#2C2C2C"/>
<circle cx="199" cy="84" r="19" fill="#2C2C2C"/>
<ellipse cx="199" cy="139.5" rx="19" ry="18.5" fill="#2C2C2C"/>
<rect x="55" y="23" width="46" height="20" fill="#D9D9D9"/>
<g filter="url(#filter0_d_133_55)">
<path d="M14.2 111.6H24.96C24.88 110.533 24.6533 109.56 24.28 108.68C23.9333 107.773 23.4533 107 22.84 106.36C22.2267 105.72 21.4667 105.227 20.56 104.88C19.6533 104.507 18.6267 104.32 17.48 104.32C16.04 104.32 14.7867 104.48 13.72 104.8C12.6533 105.093 11.7867 105.427 11.12 105.8L9.96 101.16C10.8933 100.68 12.0667 100.28 13.48 99.96C14.8933 99.6133 16.2933 99.44 17.68 99.44C19.52 99.44 21.2133 99.6933 22.76 100.2C24.3333 100.707 25.68 101.547 26.8 102.72C27.9467 103.867 28.84 105.373 29.48 107.24C30.12 109.08 30.44 111.333 30.44 114C30.44 116.773 30.0667 119.093 29.32 120.96C28.5733 122.827 27.5733 124.32 26.32 125.44C25.0667 126.56 23.6267 127.36 22 127.84C20.3733 128.32 18.68 128.56 16.92 128.56C15.4 128.56 14.0133 128.427 12.76 128.16C11.5333 127.893 10.5467 127.587 9.8 127.24L11.24 122.48C11.8533 122.773 12.68 123.053 13.72 123.32C14.76 123.56 15.96 123.68 17.32 123.68C18.36 123.68 19.32 123.533 20.2 123.24C21.08 122.947 21.8533 122.493 22.52 121.88C23.2133 121.24 23.7733 120.44 24.2 119.48C24.6267 118.52 24.8933 117.36 25 116H14.2V111.6ZM48.3447 104.88H42.3847C42.278 107.413 42.158 109.72 42.0247 111.8C41.8914 113.88 41.7047 115.76 41.4647 117.44C41.2514 119.093 40.958 120.56 40.5847 121.84C40.2114 123.12 39.7314 124.227 39.1447 125.16C38.7714 125.773 38.3447 126.28 37.8647 126.68C37.4114 127.08 36.9314 127.4 36.4247 127.64C35.918 127.88 35.4114 128.04 34.9047 128.12C34.4247 128.227 33.9714 128.28 33.5447 128.28C32.9314 128.28 32.4114 128.227 31.9847 128.12C31.5847 128.04 31.1847 127.907 30.7847 127.72L31.3847 123C31.5447 123.053 31.7047 123.093 31.8647 123.12C32.0247 123.147 32.1847 123.16 32.3447 123.16C32.7714 123.16 33.1847 123.053 33.5847 122.84C34.0114 122.627 34.3714 122.267 34.6647 121.76C35.0647 121.173 35.4114 120.32 35.7047 119.2C35.998 118.053 36.2514 116.6 36.4647 114.84C36.7047 113.08 36.8914 110.987 37.0247 108.56C37.158 106.107 37.2514 103.253 37.3047 100H53.8247V128H48.3447V104.88ZM58.6266 100H75.2266V104.88H64.1066V111.4H74.2266V116.28H64.1066V123.12H75.4266V128H58.6266V100ZM86.445 116.04H85.005V128H79.525V100H85.005V112.4L86.285 111.84L94.005 100H100.245L92.085 111.76L89.925 113.28L92.165 114.84L101.485 128H94.725L86.445 116.04ZM122.022 104.88H113.862V128H108.382V104.88H100.182V100H122.022V104.88ZM124.877 100.28C125.997 100.067 127.223 99.9067 128.557 99.8C129.917 99.6667 131.263 99.6 132.597 99.6C133.983 99.6 135.37 99.72 136.757 99.96C138.17 100.173 139.437 100.627 140.557 101.32C141.677 101.987 142.583 102.933 143.277 104.16C143.997 105.36 144.357 106.933 144.357 108.88C144.357 110.64 144.05 112.133 143.437 113.36C142.823 114.56 142.01 115.547 140.997 116.32C139.983 117.093 138.823 117.653 137.517 118C136.237 118.347 134.903 118.52 133.517 118.52C133.383 118.52 133.17 118.52 132.877 118.52C132.583 118.52 132.277 118.52 131.957 118.52C131.637 118.493 131.317 118.467 130.997 118.44C130.703 118.413 130.49 118.387 130.357 118.36V128H124.877V100.28ZM133.037 104.32C132.503 104.32 131.997 104.347 131.517 104.4C131.037 104.427 130.65 104.467 130.357 104.52V113.6C130.463 113.627 130.623 113.653 130.837 113.68C131.05 113.707 131.277 113.733 131.517 113.76C131.757 113.76 131.983 113.76 132.197 113.76C132.437 113.76 132.61 113.76 132.717 113.76C133.437 113.76 134.143 113.693 134.837 113.56C135.557 113.427 136.197 113.187 136.757 112.84C137.317 112.467 137.757 111.96 138.077 111.32C138.423 110.68 138.597 109.84 138.597 108.8C138.597 107.92 138.437 107.2 138.117 106.64C137.797 106.053 137.37 105.587 136.837 105.24C136.33 104.893 135.743 104.653 135.077 104.52C134.41 104.387 133.73 104.32 133.037 104.32ZM146.458 114C146.458 109.333 147.484 105.747 149.538 103.24C151.591 100.707 154.524 99.44 158.338 99.44C160.338 99.44 162.084 99.7867 163.578 100.48C165.071 101.173 166.311 102.16 167.298 103.44C168.284 104.72 169.018 106.253 169.498 108.04C169.978 109.827 170.218 111.813 170.218 114C170.218 118.667 169.178 122.267 167.098 124.8C165.044 127.307 162.124 128.56 158.338 128.56C156.311 128.56 154.551 128.213 153.058 127.52C151.564 126.827 150.324 125.84 149.338 124.56C148.378 123.28 147.658 121.747 147.178 119.96C146.698 118.173 146.458 116.187 146.458 114ZM152.218 114C152.218 115.413 152.338 116.72 152.578 117.92C152.818 119.093 153.178 120.107 153.658 120.96C154.164 121.813 154.804 122.48 155.578 122.96C156.351 123.44 157.271 123.68 158.338 123.68C160.284 123.68 161.791 122.92 162.858 121.4C163.924 119.88 164.458 117.413 164.458 114C164.458 112.64 164.338 111.373 164.098 110.2C163.884 109.027 163.538 108 163.058 107.12C162.578 106.24 161.951 105.56 161.178 105.08C160.404 104.573 159.458 104.32 158.338 104.32C156.391 104.32 154.884 105.107 153.818 106.68C152.751 108.227 152.218 110.667 152.218 114ZM189.854 116.28H179.614V128H174.134V100H179.614V111.4H189.854V100H195.334V128H189.854V116.28ZM216.509 112.48L216.829 108.84H216.629L214.749 112.6L204.309 128H200.189V100H205.669V115.24L205.269 119H205.509L207.469 115.12L217.909 100H221.989V128H216.509V112.48ZM233.75 116.04H232.31V128H226.83V100H232.31V112.4L233.59 111.84L241.31 100H247.55L239.39 111.76L237.23 113.28L239.47 114.84L248.79 128H242.03L233.75 116.04ZM264.77 121.8H256.17L254.05 128H248.57L258.65 99.8H262.69L272.77 128H267.01L264.77 121.8ZM257.57 117.4H263.57L261.49 111.16L260.65 106.76H260.45L259.61 111.2L257.57 117.4Z" fill="#F7F7F7"/>
</g>
<defs>
<filter id="filter0_d_133_55" x="5.80005" y="99.44" width="270.97" height="37.12" filterUnits="userSpaceOnUse" color-interpolation-filters="sRGB">
<feFlood flood-opacity="0" result="BackgroundImageFix"/>
<feColorMatrix in="SourceAlpha" type="matrix" values="0 0 0 0 0 0 0 0 0 0 0 0 0 0 0 0 0 0 127 0" result="hardAlpha"/>
<feOffset dy="4"/>
<feGaussianBlur stdDeviation="2"/>
<feComposite in2="hardAlpha" operator="out"/>
<feColorMatrix type="matrix" values="0 0 0 0 0 0 0 0 0 0 0 0 0 0 0 0 0 0 0.25 0"/>
<feBlend mode="normal" in2="BackgroundImageFix" result="effect1_dropShadow_133_55"/>
<feBlend mode="normal" in="SourceGraphic" in2="effect1_dropShadow_133_55" result="shape"/>
</filter>
</defs>
</svg>
