<svg width="300" height="236" viewBox="0 0 300 236" fill="none" xmlns="http://www.w3.org/2000/svg">
<rect x="10" width="278" height="236" rx="20" fill="#8A8347"/>
<g filter="url(#filter0_d_133_58)">
<ellipse cx="146" cy="119.5" rx="72.5" ry="73" transform="rotate(-90 146 119.5)" fill="black"/>
</g>
<line x1="187" y1="116" x2="235" y2="116" stroke="#1D1D1D" stroke-width="8"/>
<ellipse cx="146" cy="119.5" rx="20.5" ry="21" transform="rotate(-90 146 119.5)" fill="#D6C000"/>
<g filter="url(#filter1_d_133_58)">
<path d="M32.2298 91.236H30.9338V102H26.0018V76.8H30.9338V87.96L32.0858 87.456L39.0338 76.8H44.6498L37.3058 87.384L35.3618 88.752L37.3778 90.156L45.7658 102H39.6818L32.2298 91.236ZM60.2364 81.192H54.8724C54.7764 83.472 54.6684 85.548 54.5484 87.42C54.4284 89.292 54.2604 90.984 54.0444 92.496C53.8524 93.984 53.5884 95.304 53.2524 96.456C52.9164 97.608 52.4844 98.604 51.9564 99.444C51.6204 99.996 51.2364 100.452 50.8044 100.812C50.3964 101.172 49.9644 101.46 49.5084 101.676C49.0524 101.892 48.5964 102.036 48.1404 102.108C47.7084 102.204 47.3004 102.252 46.9164 102.252C46.3644 102.252 45.8964 102.204 45.5124 102.108C45.1524 102.036 44.7924 101.916 44.4324 101.748L44.9724 97.5C45.1164 97.548 45.2604 97.584 45.4044 97.608C45.5484 97.632 45.6924 97.644 45.8364 97.644C46.2204 97.644 46.5924 97.548 46.9524 97.356C47.3364 97.164 47.6604 96.84 47.9244 96.384C48.2844 95.856 48.5964 95.088 48.8604 94.08C49.1244 93.048 49.3524 91.74 49.5444 90.156C49.7604 88.572 49.9284 86.688 50.0484 84.504C50.1684 82.296 50.2524 79.728 50.3004 76.8H65.1684V102H60.2364V81.192ZM81.9101 96.42H74.1701L72.2621 102H67.3301L76.4021 76.62H80.0381L89.1101 102H83.9261L81.9101 96.42ZM75.4301 92.46H80.8301L78.9581 86.844L78.2021 82.884H78.0221L77.2661 86.88L75.4301 92.46ZM107.226 100.956C106.458 101.508 105.474 101.904 104.274 102.144C103.098 102.384 101.886 102.504 100.638 102.504C99.126 102.504 97.686 102.276 96.318 101.82C94.974 101.34 93.786 100.584 92.754 99.552C91.722 98.496 90.894 97.14 90.27 95.484C89.67 93.804 89.37 91.776 89.37 89.4C89.37 86.928 89.706 84.864 90.378 83.208C91.074 81.528 91.962 80.184 93.042 79.176C94.146 78.144 95.37 77.412 96.714 76.98C98.058 76.524 99.402 76.296 100.746 76.296C102.186 76.296 103.398 76.392 104.382 76.584C105.39 76.776 106.218 77.004 106.866 77.268L105.894 81.444C105.342 81.18 104.682 80.988 103.914 80.868C103.17 80.748 102.258 80.688 101.178 80.688C99.186 80.688 97.578 81.396 96.354 82.812C95.154 84.228 94.554 86.424 94.554 89.4C94.554 90.696 94.698 91.884 94.986 92.964C95.274 94.02 95.706 94.932 96.282 95.7C96.882 96.444 97.614 97.032 98.478 97.464C99.366 97.872 100.386 98.076 101.538 98.076C102.618 98.076 103.53 97.968 104.274 97.752C105.018 97.536 105.666 97.26 106.218 96.924L107.226 100.956ZM126.14 100.956C125.372 101.508 124.388 101.904 123.188 102.144C122.012 102.384 120.8 102.504 119.552 102.504C118.04 102.504 116.6 102.276 115.232 101.82C113.888 101.34 112.7 100.584 111.668 99.552C110.636 98.496 109.808 97.14 109.184 95.484C108.584 93.804 108.284 91.776 108.284 89.4C108.284 86.928 108.62 84.864 109.292 83.208C109.988 81.528 110.876 80.184 111.956 79.176C113.06 78.144 114.284 77.412 115.628 76.98C116.972 76.524 118.316 76.296 119.66 76.296C121.1 76.296 122.312 76.392 123.296 76.584C124.304 76.776 125.132 77.004 125.78 77.268L124.808 81.444C124.256 81.18 123.596 80.988 122.828 80.868C122.084 80.748 121.172 80.688 120.092 80.688C118.1 80.688 116.492 81.396 115.268 82.812C114.068 84.228 113.468 86.424 113.468 89.4C113.468 90.696 113.612 91.884 113.9 92.964C114.188 94.02 114.62 94.932 115.196 95.7C115.796 96.444 116.528 97.032 117.392 97.464C118.28 97.872 119.3 98.076 120.452 98.076C121.532 98.076 122.444 97.968 123.188 97.752C123.932 97.536 124.58 97.26 125.132 96.924L126.14 100.956ZM143.873 88.032L144.161 84.756H143.981L142.289 88.14L132.893 102H129.185V76.8H134.117V90.516L133.757 93.9H133.973L135.737 90.408L145.133 76.8H148.805V102H143.873V88.032ZM157.59 76.8V84.792C157.59 86.232 157.866 87.312 158.418 88.032C158.994 88.728 159.93 89.076 161.226 89.076C162.138 89.076 162.99 88.98 163.782 88.788C164.598 88.572 165.246 88.26 165.726 87.852V76.8H170.658V102H165.726V91.848C165.102 92.208 164.262 92.544 163.206 92.856C162.174 93.144 160.938 93.288 159.498 93.288C158.49 93.288 157.566 93.168 156.726 92.928C155.91 92.664 155.19 92.256 154.566 91.704C153.966 91.128 153.498 90.408 153.162 89.544C152.826 88.656 152.658 87.588 152.658 86.34V76.8H157.59ZM174.994 76.8H189.934V81.192H179.926V87.06H189.034V91.452H179.926V97.608H190.114V102H174.994V76.8ZM210.867 100.956C210.099 101.508 209.115 101.904 207.915 102.144C206.739 102.384 205.527 102.504 204.279 102.504C202.767 102.504 201.327 102.276 199.959 101.82C198.615 101.34 197.427 100.584 196.395 99.552C195.363 98.496 194.535 97.14 193.911 95.484C193.311 93.804 193.011 91.776 193.011 89.4C193.011 86.928 193.347 84.864 194.019 83.208C194.715 81.528 195.603 80.184 196.683 79.176C197.787 78.144 199.011 77.412 200.355 76.98C201.699 76.524 203.043 76.296 204.387 76.296C205.827 76.296 207.039 76.392 208.023 76.584C209.031 76.776 209.859 77.004 210.507 77.268L209.535 81.444C208.983 81.18 208.323 80.988 207.555 80.868C206.811 80.748 205.899 80.688 204.819 80.688C202.827 80.688 201.219 81.396 199.995 82.812C198.795 84.228 198.195 86.424 198.195 89.4C198.195 90.696 198.339 91.884 198.627 92.964C198.915 94.02 199.347 94.932 199.923 95.7C200.523 96.444 201.255 97.032 202.119 97.464C203.007 97.872 204.027 98.076 205.179 98.076C206.259 98.076 207.171 97.968 207.915 97.752C208.659 97.536 209.307 97.26 209.859 96.924L210.867 100.956ZM220.14 91.236H218.844V102H213.912V76.8H218.844V87.96L219.996 87.456L226.944 76.8H232.56L225.216 87.384L223.272 88.752L225.288 90.156L233.676 102H227.592L220.14 91.236ZM248.059 96.42H240.319L238.411 102H233.479L242.551 76.62H246.187L255.259 102H250.075L248.059 96.42ZM241.579 92.46H246.979L245.107 86.844L244.351 82.884H244.171L243.415 86.88L241.579 92.46ZM273.959 102H269.027V92.028L266.435 92.712L261.179 102H255.455L260.639 93.612L262.799 92.064C262.031 91.872 261.311 91.584 260.639 91.2C259.967 90.792 259.379 90.276 258.875 89.652C258.371 89.028 257.975 88.296 257.687 87.456C257.399 86.592 257.255 85.62 257.255 84.54C257.255 83.028 257.519 81.756 258.047 80.724C258.575 79.692 259.307 78.864 260.243 78.24C261.179 77.592 262.295 77.136 263.591 76.872C264.887 76.584 266.291 76.44 267.803 76.44C268.211 76.44 268.679 76.452 269.207 76.476C269.735 76.5 270.275 76.536 270.827 76.584C271.403 76.632 271.955 76.692 272.483 76.764C273.035 76.836 273.527 76.932 273.959 77.052V102ZM267.191 80.832C266.543 80.832 265.931 80.892 265.355 81.012C264.779 81.132 264.275 81.336 263.843 81.624C263.411 81.912 263.063 82.308 262.799 82.812C262.559 83.316 262.439 83.964 262.439 84.756C262.439 85.5 262.559 86.136 262.799 86.664C263.039 87.168 263.375 87.588 263.807 87.924C264.239 88.236 264.743 88.464 265.319 88.608C265.895 88.752 266.519 88.824 267.191 88.824H269.027V81.012C268.763 80.964 268.487 80.928 268.199 80.904C267.935 80.856 267.599 80.832 267.191 80.832ZM101.483 135.932L102.023 130.928H101.807L100.259 134.96L94.8954 144.356H93.3114L87.6594 134.924L86.0754 130.928H85.8954L86.6154 135.896V149H81.9354V123.8H86.4354L93.1674 135.32L94.3554 138.2H94.4994L95.5794 135.248L101.951 123.8H106.415V149H101.483V135.932ZM119.152 134.924L119.872 138.2H120.088L120.664 134.816L124.444 123.8H129.52L122.824 141.224C122.296 142.592 121.78 143.78 121.276 144.788C120.796 145.796 120.268 146.636 119.692 147.308C119.14 147.956 118.516 148.448 117.82 148.784C117.124 149.096 116.308 149.252 115.372 149.252C114.58 149.252 113.932 149.192 113.428 149.072C112.948 148.976 112.42 148.748 111.844 148.388L113.104 144.392C113.512 144.608 113.884 144.74 114.22 144.788C114.556 144.836 114.916 144.86 115.3 144.86C116.428 144.86 117.22 143.972 117.676 142.196L108.244 123.8H114.04L119.152 134.924ZM133.349 137.84V133.988H134.213C134.429 133.988 134.693 133.988 135.005 133.988C135.317 133.988 135.629 133.988 135.941 133.988C136.277 133.964 136.601 133.94 136.913 133.916C137.225 133.868 137.477 133.82 137.669 133.772C138.509 133.58 139.229 133.244 139.829 132.764C140.429 132.26 140.729 131.588 140.729 130.748C140.729 129.596 140.357 128.816 139.613 128.408C138.893 127.976 137.933 127.76 136.733 127.76C135.653 127.76 134.645 127.904 133.709 128.192C132.773 128.48 132.065 128.756 131.585 129.02L130.325 124.844C130.589 124.7 130.961 124.544 131.441 124.376C131.945 124.208 132.509 124.052 133.133 123.908C133.781 123.74 134.477 123.608 135.221 123.512C135.965 123.416 136.721 123.368 137.489 123.368C138.545 123.368 139.577 123.464 140.585 123.656C141.593 123.848 142.493 124.184 143.285 124.664C144.077 125.144 144.713 125.792 145.193 126.608C145.673 127.4 145.913 128.42 145.913 129.668C145.913 130.916 145.577 132.068 144.905 133.124C144.257 134.18 143.201 134.948 141.737 135.428V135.608C143.297 135.92 144.509 136.592 145.373 137.624C146.261 138.656 146.705 140.036 146.705 141.764C146.705 143.132 146.429 144.308 145.877 145.292C145.325 146.252 144.593 147.044 143.681 147.668C142.793 148.292 141.761 148.748 140.585 149.036C139.409 149.348 138.209 149.504 136.985 149.504C135.401 149.504 133.961 149.372 132.665 149.108C131.369 148.844 130.373 148.532 129.677 148.172L130.937 143.888C131.489 144.152 132.281 144.428 133.313 144.716C134.345 144.98 135.569 145.112 136.985 145.112C137.513 145.112 138.041 145.052 138.569 144.932C139.121 144.788 139.613 144.572 140.045 144.284C140.477 143.972 140.825 143.576 141.089 143.096C141.353 142.616 141.485 142.04 141.485 141.368C141.485 140.24 141.065 139.388 140.225 138.812C139.385 138.236 137.885 137.924 135.725 137.876C135.437 137.852 135.221 137.84 135.077 137.84C134.933 137.84 134.681 137.84 134.321 137.84H133.349ZM169.579 123.8H174.511V149H169.579V123.8ZM150.139 123.8H155.071V132.836C155.335 132.788 155.755 132.728 156.331 132.656C156.907 132.584 157.471 132.548 158.023 132.548C159.223 132.548 160.363 132.668 161.443 132.908C162.547 133.148 163.507 133.58 164.323 134.204C165.139 134.804 165.787 135.632 166.267 136.688C166.747 137.72 166.987 139.028 166.987 140.612C166.987 143.54 166.135 145.736 164.431 147.2C162.727 148.64 160.195 149.36 156.835 149.36C156.499 149.36 156.067 149.348 155.539 149.324C155.011 149.324 154.435 149.3 153.811 149.252C153.211 149.204 152.587 149.144 151.939 149.072C151.291 149 150.691 148.892 150.139 148.748V123.8ZM157.195 144.968C158.563 144.968 159.667 144.656 160.507 144.032C161.371 143.384 161.803 142.316 161.803 140.828C161.803 140.036 161.683 139.388 161.443 138.884C161.203 138.38 160.879 137.984 160.471 137.696C160.063 137.408 159.583 137.216 159.031 137.12C158.479 137 157.879 136.94 157.231 136.94C156.895 136.94 156.499 136.976 156.043 137.048C155.587 137.096 155.263 137.156 155.071 137.228V144.752C155.335 144.824 155.647 144.884 156.007 144.932C156.391 144.956 156.787 144.968 157.195 144.968ZM185.089 138.236H183.793V149H178.861V123.8H183.793V134.96L184.945 134.456L191.893 123.8H197.509L190.165 134.384L188.221 135.752L190.237 137.156L198.625 149H192.541L185.089 138.236ZM213.008 143.42H205.268L203.36 149H198.428L207.5 123.62H211.136L220.208 149H215.024L213.008 143.42ZM206.528 139.46H211.928L210.056 133.844L209.3 129.884H209.12L208.364 133.88L206.528 139.46Z" fill="#FFEFB5"/>
</g>
<defs>
<filter id="filter0_d_133_58" x="69" y="47" width="154" height="153" filterUnits="userSpaceOnUse" color-interpolation-filters="sRGB">
<feFlood flood-opacity="0" result="BackgroundImageFix"/>
<feColorMatrix in="SourceAlpha" type="matrix" values="0 0 0 0 0 0 0 0 0 0 0 0 0 0 0 0 0 0 127 0" result="hardAlpha"/>
<feOffset dy="4"/>
<feGaussianBlur stdDeviation="2"/>
<feComposite in2="hardAlpha" operator="out"/>
<feColorMatrix type="matrix" values="0 0 0 0 0 0 0 0 0 0 0 0 0 0 0 0 0 0 0.25 0"/>
<feBlend mode="normal" in2="BackgroundImageFix" result="effect1_dropShadow_133_58"/>
<feBlend mode="normal" in="SourceGraphic" in2="effect1_dropShadow_133_58" result="shape"/>
</filter>
<filter id="filter1_d_133_58" x="22.002" y="76.296" width="255.958" height="81.208" filterUnits="userSpaceOnUse" color-interpolation-filters="sRGB">
<feFlood flood-opacity="0" result="BackgroundImageFix"/>
<feColorMatrix in="SourceAlpha" type="matrix" values="0 0 0 0 0 0 0 0 0 0 0 0 0 0 0 0 0 0 127 0" result="hardAlpha"/>
<feOffset dy="4"/>
<feGaussianBlur stdDeviation="2"/>
<feComposite in2="hardAlpha" operator="out"/>
<feColorMatrix type="matrix" values="0 0 0 0 0 0 0 0 0 0 0 0 0 0 0 0 0 0 0.25 0"/>
<feBlend mode="normal" in2="BackgroundImageFix" result="effect1_dropShadow_133_58"/>
<feBlend mode="normal" in="SourceGraphic" in2="effect1_dropShadow_133_58" result="shape"/>
</filter>
</defs>
</svg>
