<svg width="280" height="236" viewBox="0 0 280 236" fill="none" xmlns="http://www.w3.org/2000/svg">
<rect width="280" height="236" rx="20" fill="#CAB56C"/>
<g filter="url(#filter0_d_133_53)">
<rect x="50" y="24" width="24" height="194" fill="#8EBC72"/>
</g>
<g filter="url(#filter1_d_133_53)">
<rect x="101" y="24" width="24" height="194" fill="#8EBC72"/>
</g>
<g filter="url(#filter2_d_133_53)">
<rect x="154" y="24" width="24" height="194" fill="#8EBC72"/>
</g>
<g filter="url(#filter3_d_133_53)">
<rect x="205" y="24" width="24" height="194" fill="#8EBC72"/>
</g>
<g filter="url(#filter4_d_133_53)">
<path d="M102.72 81.48L103.04 77.84H102.84L100.96 81.6L90.52 97H86.4V69H91.88V84.24L91.48 88H91.72L93.68 84.12L104.12 69H108.2V97H102.72V81.48ZM128.761 85.28H118.521V97H113.041V69H118.521V80.4H128.761V69H134.241V97H128.761V85.28ZM163.655 102H159.775L159.175 97H141.175L140.575 102H136.695V92.12H139.655C139.842 91.8267 140.149 91.1733 140.575 90.16C141.002 89.1467 141.429 87.72 141.855 85.88C142.282 84.0133 142.642 81.6933 142.935 78.92C143.229 76.12 143.362 72.8133 143.335 69H160.095V92.12H163.655V102ZM154.615 92.12V73.88H148.415C148.255 78.6267 147.869 82.52 147.255 85.56C146.669 88.5733 146.069 90.76 145.455 92.12H154.615ZM183.072 81.48L183.392 77.84H183.192L181.312 81.6L170.872 97H166.752V69H172.232V84.24L171.832 88H172.072L174.032 84.12L184.472 69H188.552V97H183.072V81.48Z" fill="#E6FFB1"/>
</g>
<defs>
<filter id="filter0_d_133_53" x="46" y="24" width="32" height="202" filterUnits="userSpaceOnUse" color-interpolation-filters="sRGB">
<feFlood flood-opacity="0" result="BackgroundImageFix"/>
<feColorMatrix in="SourceAlpha" type="matrix" values="0 0 0 0 0 0 0 0 0 0 0 0 0 0 0 0 0 0 127 0" result="hardAlpha"/>
<feOffset dy="4"/>
<feGaussianBlur stdDeviation="2"/>
<feComposite in2="hardAlpha" operator="out"/>
<feColorMatrix type="matrix" values="0 0 0 0 0 0 0 0 0 0 0 0 0 0 0 0 0 0 0.25 0"/>
<feBlend mode="normal" in2="BackgroundImageFix" result="effect1_dropShadow_133_53"/>
<feBlend mode="normal" in="SourceGraphic" in2="effect1_dropShadow_133_53" result="shape"/>
</filter>
<filter id="filter1_d_133_53" x="97" y="24" width="32" height="202" filterUnits="userSpaceOnUse" color-interpolation-filters="sRGB">
<feFlood flood-opacity="0" result="BackgroundImageFix"/>
<feColorMatrix in="SourceAlpha" type="matrix" values="0 0 0 0 0 0 0 0 0 0 0 0 0 0 0 0 0 0 127 0" result="hardAlpha"/>
<feOffset dy="4"/>
<feGaussianBlur stdDeviation="2"/>
<feComposite in2="hardAlpha" operator="out"/>
<feColorMatrix type="matrix" values="0 0 0 0 0 0 0 0 0 0 0 0 0 0 0 0 0 0 0.25 0"/>
<feBlend mode="normal" in2="BackgroundImageFix" result="effect1_dropShadow_133_53"/>
<feBlend mode="normal" in="SourceGraphic" in2="effect1_dropShadow_133_53" result="shape"/>
</filter>
<filter id="filter2_d_133_53" x="150" y="24" width="32" height="202" filterUnits="userSpaceOnUse" color-interpolation-filters="sRGB">
<feFlood flood-opacity="0" result="BackgroundImageFix"/>
<feColorMatrix in="SourceAlpha" type="matrix" values="0 0 0 0 0 0 0 0 0 0 0 0 0 0 0 0 0 0 127 0" result="hardAlpha"/>
<feOffset dy="4"/>
<feGaussianBlur stdDeviation="2"/>
<feComposite in2="hardAlpha" operator="out"/>
<feColorMatrix type="matrix" values="0 0 0 0 0 0 0 0 0 0 0 0 0 0 0 0 0 0 0.25 0"/>
<feBlend mode="normal" in2="BackgroundImageFix" result="effect1_dropShadow_133_53"/>
<feBlend mode="normal" in="SourceGraphic" in2="effect1_dropShadow_133_53" result="shape"/>
</filter>
<filter id="filter3_d_133_53" x="201" y="24" width="32" height="202" filterUnits="userSpaceOnUse" color-interpolation-filters="sRGB">
<feFlood flood-opacity="0" result="BackgroundImageFix"/>
<feColorMatrix in="SourceAlpha" type="matrix" values="0 0 0 0 0 0 0 0 0 0 0 0 0 0 0 0 0 0 127 0" result="hardAlpha"/>
<feOffset dy="4"/>
<feGaussianBlur stdDeviation="2"/>
<feComposite in2="hardAlpha" operator="out"/>
<feColorMatrix type="matrix" values="0 0 0 0 0 0 0 0 0 0 0 0 0 0 0 0 0 0 0.25 0"/>
<feBlend mode="normal" in2="BackgroundImageFix" result="effect1_dropShadow_133_53"/>
<feBlend mode="normal" in="SourceGraphic" in2="effect1_dropShadow_133_53" result="shape"/>
</filter>
<filter id="filter4_d_133_53" x="82.3999" y="69" width="110.152" height="41" filterUnits="userSpaceOnUse" color-interpolation-filters="sRGB">
<feFlood flood-opacity="0" result="BackgroundImageFix"/>
<feColorMatrix in="SourceAlpha" type="matrix" values="0 0 0 0 0 0 0 0 0 0 0 0 0 0 0 0 0 0 127 0" result="hardAlpha"/>
<feOffset dy="4"/>
<feGaussianBlur stdDeviation="2"/>
<feComposite in2="hardAlpha" operator="out"/>
<feColorMatrix type="matrix" values="0 0 0 0 0 0 0 0 0 0 0 0 0 0 0 0 0 0 0.25 0"/>
<feBlend mode="normal" in2="BackgroundImageFix" result="effect1_dropShadow_133_53"/>
<feBlend mode="normal" in="SourceGraphic" in2="effect1_dropShadow_133_53" result="shape"/>
</filter>
</defs>
</svg>
