<svg width="90" height="92" viewBox="0 0 90 92" fill="none" xmlns="http://www.w3.org/2000/svg">
<ellipse cx="47" cy="60.5" rx="25" ry="25.5" fill="white"/>
<path d="M61.7328 66.5803C61.7332 66.8488 61.7784 67.0969 61.8683 67.3247C61.9581 67.5443 62.0805 67.7394 62.2354 67.91C62.3902 68.0726 62.5736 68.2025 62.7853 68.2998C63.0052 68.389 63.2453 68.4334 63.5057 68.433C63.7824 68.4325 64.0305 68.3833 64.2501 68.2853C64.4697 68.1873 64.6567 68.0568 64.811 67.8938C64.9735 67.7227 65.0953 67.5272 65.1763 67.3073C65.2655 67.0793 65.3099 66.8351 65.3095 66.5747L65.303 62.4243C65.3026 62.1395 65.2452 61.871 65.1309 61.6189C65.0166 61.3668 64.8616 61.1229 64.6659 60.8872C64.4783 60.6515 64.2623 60.424 64.0179 60.2046C63.7734 59.9853 63.5248 59.77 63.2722 59.5588C62.9707 59.307 62.6692 59.0511 62.3677 58.7912C62.0743 58.5312 61.8094 58.2549 61.573 57.9623C61.3446 57.6697 61.157 57.3567 61.01 57.0233C60.8711 56.6898 60.8014 56.3196 60.8007 55.9127L60.7984 54.4235C60.7978 54.0329 60.8664 53.6747 61.0043 53.3489C61.1503 53.0151 61.3451 52.734 61.5889 52.5058C61.8327 52.2694 62.1172 52.0858 62.4426 51.9551C62.776 51.8244 63.1258 51.7587 63.4921 51.7582C63.8827 51.7576 64.2409 51.8262 64.5666 51.964C64.9005 52.1019 65.1897 52.2926 65.4342 52.5364C65.6787 52.772 65.8663 53.0525 65.997 53.3778C66.1359 53.695 66.2056 54.0407 66.2061 54.4151L66.21 56.9175L65.2945 56.919L65.2906 54.4287C65.2902 54.1602 65.2451 53.9161 65.1552 53.6965C65.0653 53.4688 64.943 53.2737 64.7881 53.1111C64.6332 52.9405 64.4458 52.8106 64.226 52.7214C64.0061 52.6241 63.77 52.5756 63.5177 52.576C63.241 52.5764 62.9888 52.6257 62.7611 52.7237C62.5416 52.8217 62.3546 52.9562 62.2002 53.1274C62.0459 53.2904 61.9241 53.4859 61.8349 53.7139C61.7539 53.9337 61.7136 54.1739 61.714 54.4343L61.7163 55.9113C61.7167 56.2124 61.7782 56.4972 61.9007 56.7655C62.0232 57.0258 62.1823 57.2778 62.3779 57.5216C62.5818 57.7573 62.81 57.9848 63.0626 58.2042C63.3152 58.4235 63.5719 58.6428 63.8327 58.8621C64.126 59.1058 64.4153 59.3577 64.7005 59.6176C64.9858 59.8776 65.2385 60.1539 65.4587 60.4465C65.687 60.7392 65.8706 61.0481 66.0094 61.3734C66.1483 61.6987 66.218 62.0486 66.2186 62.4229L66.225 66.5855C66.2256 66.9761 66.1529 67.3343 66.007 67.6601C65.8691 67.9858 65.6783 68.2668 65.4345 68.5032C65.1908 68.7396 64.9021 68.9232 64.5687 69.0539C64.2434 69.1846 63.8935 69.2502 63.5192 69.2508C63.1286 69.2514 62.7663 69.1828 62.4324 69.045C62.1067 68.9072 61.8216 68.7204 61.5771 68.4848C61.3407 68.2492 61.1531 67.9687 61.0143 67.6434C60.8835 67.3181 60.8179 66.9682 60.8173 66.5939L60.8132 63.9572L61.7287 63.9557L61.7328 66.5803Z" fill="#00BA8D"/>
<path d="M61.8683 67.3247L61.4031 67.5082L61.4055 67.514L61.8683 67.3247ZM62.2354 67.91L61.865 68.2462L61.8734 68.255L62.2354 67.91ZM62.7853 68.2998L62.5765 68.7541L62.5868 68.7589L62.5974 68.7632L62.7853 68.2998ZM64.811 67.8938L64.4484 67.5496L64.448 67.55L64.811 67.8938ZM65.1763 67.3073L64.7106 67.1252L64.7072 67.1344L65.1763 67.3073ZM64.6659 60.8872L64.2745 61.1986L64.2812 61.2066L64.6659 60.8872ZM63.2722 59.5588L63.5929 59.1752L63.5927 59.1751L63.2722 59.5588ZM62.3677 58.7912L62.0361 59.1654L62.0412 59.1699L62.3677 58.7912ZM61.573 57.9623L61.1787 58.27L61.1841 58.2766L61.573 57.9623ZM61.01 57.0233L60.5483 57.2155L60.5525 57.225L61.01 57.0233ZM61.0043 53.3489L60.5461 53.1486L60.5438 53.1541L61.0043 53.3489ZM61.5889 52.5058L61.9307 52.8708L61.937 52.8647L61.5889 52.5058ZM62.4426 51.9551L62.2601 51.4896L62.2561 51.4912L62.4426 51.9551ZM64.5666 51.964L64.3717 52.4245L64.3758 52.4262L64.5666 51.964ZM65.4342 52.5364L65.0811 52.8906L65.0872 52.8964L65.4342 52.5364ZM65.997 53.3778L65.5331 53.5642L65.5359 53.5713L65.539 53.5783L65.997 53.3778ZM66.21 56.9175L66.2108 57.4175L66.7108 57.4168L66.71 56.9168L66.21 56.9175ZM65.2945 56.919L64.7945 56.9197L64.7953 57.4197L65.2953 57.419L65.2945 56.919ZM65.1552 53.6965L64.6901 53.8801L64.6925 53.8859L65.1552 53.6965ZM64.7881 53.1111L64.4177 53.4473L64.4261 53.4561L64.7881 53.1111ZM64.226 52.7214L64.0236 53.1786L64.0308 53.1818L64.038 53.1847L64.226 52.7214ZM62.7611 52.7237L62.5634 52.2644L62.5574 52.2671L62.7611 52.7237ZM62.2002 53.1274L62.5634 53.4713L62.5715 53.4622L62.2002 53.1274ZM61.8349 53.7139L61.3692 53.5317L61.3658 53.5409L61.8349 53.7139ZM61.9007 56.7655L61.4458 56.9732L61.4483 56.9784L61.9007 56.7655ZM62.3779 57.5216L61.988 57.8346L61.9937 57.8417L61.9997 57.8487L62.3779 57.5216ZM63.0626 58.2042L62.7348 58.5817L63.0626 58.2042ZM63.8327 58.8621L63.5108 59.2448L63.5132 59.2468L63.8327 58.8621ZM65.4587 60.4465L65.0591 60.7472L65.0645 60.7541L65.4587 60.4465ZM66.007 67.6601L65.5506 67.4555L65.5465 67.4652L66.007 67.6601ZM64.5687 69.0539L64.3862 68.5884L64.3823 68.5899L64.5687 69.0539ZM62.4324 69.045L62.2376 69.5055L62.2417 69.5072L62.4324 69.045ZM61.5771 68.4848L61.224 68.8389L61.2301 68.8448L61.5771 68.4848ZM61.0143 67.6434L60.5502 67.8298L60.5544 67.8397L61.0143 67.6434ZM60.8132 63.9572L60.8124 63.4572L60.3124 63.4579L60.3132 63.9579L60.8132 63.9572ZM61.7287 63.9557L62.2287 63.955L62.228 63.455L61.728 63.4557L61.7287 63.9557ZM61.2328 66.581C61.2333 66.9061 61.2882 67.2169 61.4032 67.5082L62.3333 67.1411C62.2686 66.977 62.2331 66.7915 62.2328 66.5795L61.2328 66.581ZM61.4055 67.514C61.5168 67.7859 61.6699 68.031 61.8651 68.2461L62.6056 67.574C62.491 67.4478 62.3995 67.3026 62.331 67.1353L61.4055 67.514ZM61.8734 68.255C62.0736 68.4651 62.3094 68.6314 62.5765 68.7541L62.9941 67.8455C62.8377 67.7736 62.7069 67.6801 62.5973 67.5651L61.8734 68.255ZM62.5974 68.7632C62.8828 68.8789 63.1877 68.9335 63.5065 68.933L63.5049 67.933C63.3029 67.9333 63.1275 67.8991 62.9732 67.8365L62.5974 68.7632ZM63.5065 68.933C63.8427 68.9325 64.1615 68.8724 64.4539 68.7419L64.0463 67.8287C63.8996 67.8942 63.7222 67.9326 63.5049 67.933L63.5065 68.933ZM64.4539 68.7419C64.7291 68.6191 64.9714 68.4517 65.1741 68.2377L64.448 67.55C64.3419 67.662 64.2102 67.7556 64.0463 67.8287L64.4539 68.7419ZM65.1736 68.2381C65.3826 68.018 65.5408 67.7643 65.6455 67.4803L64.7072 67.1344C64.6498 67.29 64.5645 67.4273 64.4484 67.5496L65.1736 68.2381ZM65.642 67.4894C65.7554 67.1995 65.81 66.8929 65.8095 66.5739L64.8095 66.5755C64.8098 66.7774 64.7756 66.9591 64.7107 67.1252L65.642 67.4894ZM65.8095 66.5739L65.803 62.4235L64.803 62.4251L64.8095 66.5755L65.8095 66.5739ZM65.803 62.4235C65.8025 62.0699 65.7307 61.7311 65.5863 61.4124L64.6755 61.8254C64.7597 62.011 64.8027 62.2091 64.803 62.4251L65.803 62.4235ZM65.5863 61.4124C65.4517 61.1156 65.2718 60.8342 65.0506 60.5678L64.2812 61.2066C64.4514 61.4116 64.5815 61.618 64.6755 61.8254L65.5863 61.4124ZM65.0572 60.5759C64.8507 60.3165 64.6152 60.0688 64.3518 59.8325L63.6839 60.5768C63.9095 60.7792 64.1059 60.9865 64.2746 61.1985L65.0572 60.5759ZM64.3518 59.8325C64.1029 59.6092 63.85 59.3901 63.5929 59.1752L62.9515 59.9424C63.1997 60.1499 63.4438 60.3613 63.6839 60.5768L64.3518 59.8325ZM63.5927 59.1751C63.2933 58.9249 62.9938 58.6708 62.6942 58.4125L62.0412 59.1699C62.3447 59.4315 62.6482 59.6891 62.9517 59.9426L63.5927 59.1751ZM62.6993 58.417C62.4258 58.1746 62.1802 57.9182 61.9619 57.6481L61.1841 58.2766C61.4386 58.5916 61.7229 58.8878 62.0361 59.1654L62.6993 58.417ZM61.9672 57.6547C61.7638 57.3941 61.5975 57.1165 61.4675 56.8216L60.5525 57.225C60.7164 57.5969 60.9255 57.9454 61.1788 58.2699L61.9672 57.6547ZM61.4716 56.831C61.361 56.5655 61.3013 56.2614 61.3007 55.912L60.3007 55.9135C60.3015 56.3778 60.3813 56.8142 60.5484 57.2155L61.4716 56.831ZM61.3007 55.912L61.2984 54.4227L60.2984 54.4243L60.3007 55.9135L61.3007 55.912ZM61.2984 54.4227C61.2979 54.0922 61.3557 53.8015 61.4648 53.5438L60.5438 53.1541C60.3772 53.5479 60.2977 53.9735 60.2984 54.4243L61.2984 54.4227ZM61.4624 53.5492C61.5837 53.2719 61.7408 53.0485 61.9306 52.8708L61.2472 52.1408C60.9495 52.4195 60.7168 52.7583 60.5462 53.1487L61.4624 53.5492ZM61.937 52.8647C62.1327 52.675 62.3618 52.5264 62.629 52.4191L62.2561 51.4912C61.8726 51.6453 61.5327 51.8638 61.2408 52.1468L61.937 52.8647ZM62.625 52.4206C62.8993 52.3131 63.1874 52.2586 63.4928 52.2582L63.4913 51.2582C63.0643 51.2588 62.6527 51.3357 62.2601 51.4896L62.625 52.4206ZM63.4928 52.2582C63.8233 52.2577 64.1141 52.3155 64.3717 52.4245L64.7615 51.5036C64.3677 51.3369 63.9421 51.2575 63.4913 51.2582L63.4928 52.2582ZM64.3758 52.4262C64.6519 52.5402 64.8853 52.6952 65.0812 52.8905L65.7872 52.1823C65.4941 51.8901 65.149 51.6635 64.7574 51.5019L64.3758 52.4262ZM65.0872 52.8964C65.2793 53.0815 65.4278 53.3022 65.5331 53.5642L66.461 53.1914C66.3048 52.8028 66.0781 52.4626 65.7811 52.1764L65.0872 52.8964ZM65.539 53.5783C65.6481 53.8275 65.7057 54.1046 65.7061 54.4159L66.7061 54.4143C66.7055 53.9769 66.6236 53.5624 66.455 53.1773L65.539 53.5783ZM65.7061 54.4159L65.71 56.9183L66.71 56.9168L66.7061 54.4143L65.7061 54.4159ZM66.2092 56.4175L65.2937 56.419L65.2953 57.419L66.2108 57.4175L66.2092 56.4175ZM65.7945 56.9182L65.7906 54.4279L64.7906 54.4295L64.7945 56.9197L65.7945 56.9182ZM65.7906 54.4279C65.7901 54.1032 65.7354 53.794 65.618 53.5071L64.6925 53.8859C64.7548 54.0382 64.7903 54.2171 64.7906 54.4295L65.7906 54.4279ZM65.6203 53.513C65.5089 53.2308 65.3533 52.9794 65.1501 52.7662L64.4261 53.4561C64.5327 53.5679 64.6218 53.7068 64.6901 53.8801L65.6203 53.513ZM65.1583 52.7751C64.9515 52.5472 64.7012 52.3746 64.4139 52.2581L64.038 53.1847C64.1905 53.2466 64.3149 53.3338 64.4179 53.4472L65.1583 52.7751ZM64.4283 52.2642C64.1413 52.1372 63.8357 52.0755 63.517 52.076L63.5185 53.076C63.7043 53.0757 63.8708 53.111 64.0236 53.1786L64.4283 52.2642ZM63.517 52.076C63.1804 52.0765 62.8602 52.1367 62.5635 52.2644L62.9588 53.1829C63.1175 53.1146 63.3017 53.0763 63.5185 53.076L63.517 52.076ZM62.5574 52.2671C62.2769 52.3922 62.0321 52.5673 61.8289 52.7925L62.5715 53.4622C62.6771 53.3452 62.8062 53.2511 62.9649 53.1803L62.5574 52.2671ZM61.8372 52.7836C61.6347 52.9974 61.4798 53.2492 61.3693 53.5318L62.3006 53.896C62.3684 53.7225 62.4571 53.5833 62.5633 53.4712L61.8372 52.7836ZM61.3658 53.5409C61.2621 53.8223 61.2135 54.1219 61.214 54.435L62.214 54.4335C62.2137 54.2258 62.2457 54.0452 62.3041 53.8868L61.3658 53.5409ZM61.214 54.435L61.2163 55.9121L62.2163 55.9105L62.214 54.4335L61.214 54.435ZM61.2163 55.9121C61.2168 56.2831 61.2931 56.6385 61.4458 56.9731L62.3556 56.5579C62.2633 56.3559 62.2166 56.1418 62.2163 55.9105L61.2163 55.9121ZM61.4483 56.9784C61.589 57.2773 61.7697 57.5626 61.988 57.8346L62.7679 57.2087C62.5948 56.993 62.4574 56.7742 62.3531 56.5526L61.4483 56.9784ZM61.9997 57.8487C62.2202 58.1036 62.4655 58.3479 62.7348 58.5817L63.3904 57.8266C63.1545 57.6218 62.9433 57.411 62.7561 57.1946L61.9997 57.8487ZM62.7348 58.5817C62.9894 58.8028 63.2481 59.0238 63.5108 59.2448L64.1545 58.4795C63.8957 58.2618 63.641 58.0442 63.3904 57.8266L62.7348 58.5817ZM63.5132 59.2468C63.8006 59.4855 64.0841 59.7323 64.3637 59.9872L65.0373 59.2481C64.7465 58.983 64.4515 58.7262 64.1522 58.4775L63.5132 59.2468ZM64.3637 59.9872C64.6272 60.2273 64.8586 60.4807 65.0591 60.7472L65.8582 60.1459C65.6183 59.8271 65.3444 59.5279 65.0373 59.2481L64.3637 59.9872ZM65.0645 60.7541C65.2675 61.0143 65.4285 61.2861 65.5496 61.5697L66.4693 61.1771C66.3126 60.8101 66.1065 60.464 65.8529 60.139L65.0645 60.7541ZM65.5496 61.5697C65.6605 61.8296 65.7181 62.1125 65.7186 62.4237L66.7186 62.4221C66.7179 61.9846 66.636 61.5678 66.4693 61.1771L65.5496 61.5697ZM65.7186 62.4237L65.725 66.5863L66.725 66.5847L66.7186 62.4221L65.7186 62.4237ZM65.725 66.5863C65.7255 66.9129 65.6651 67.2003 65.5507 67.4556L66.4632 67.8645C66.6408 67.4683 66.7257 67.0393 66.725 66.5847L65.725 66.5863ZM65.5465 67.4652C65.4336 67.7319 65.2802 67.9565 65.0865 68.1443L65.7826 68.8622C66.0765 68.5772 66.3046 68.2397 66.4674 67.8549L65.5465 67.4652ZM65.0865 68.1443C64.8929 68.332 64.6614 68.4805 64.3862 68.5884L64.7512 69.5194C65.1429 69.3658 65.4887 69.1472 65.7826 68.8622L65.0865 68.1443ZM64.3823 68.5899C64.1199 68.6954 63.8335 68.7503 63.5184 68.7508L63.52 69.7508C63.9536 69.7502 64.3669 69.6738 64.7551 69.5178L64.3823 68.5899ZM63.5184 68.7508C63.1881 68.7513 62.8916 68.6936 62.6232 68.5828L62.2417 69.5072C62.6411 69.672 63.069 69.7515 63.52 69.7508L63.5184 68.7508ZM62.6273 68.5845C62.3556 68.4696 62.1226 68.3161 61.924 68.1248L61.2301 68.8448C61.5206 69.1247 61.8578 69.3448 62.2376 69.5055L62.6273 68.5845ZM61.9301 68.1307C61.7418 67.943 61.5893 67.717 61.4741 67.4471L60.5544 67.8397C60.7169 68.2204 60.9396 68.5553 61.2241 68.8389L61.9301 68.1307ZM61.4782 67.457C61.3728 67.1946 61.3178 66.9082 61.3173 66.5931L60.3173 66.5947C60.318 67.0283 60.3943 67.4415 60.5503 67.8298L61.4782 67.457ZM61.3173 66.5931L61.3132 63.9564L60.3132 63.9579L60.3173 66.5947L61.3173 66.5931ZM60.814 64.4572L61.7295 64.4557L61.728 63.4557L60.8124 63.4572L60.814 64.4572ZM61.2287 63.9565L61.2328 66.581L62.2328 66.5795L62.2287 63.955L61.2287 63.9565Z" fill="#00BA8D"/>
<path d="M31.0682 66.6338C31.0609 67.0097 31.1168 67.3584 31.2359 67.6798C31.3553 67.9898 31.5208 68.2665 31.7326 68.5099C31.9446 68.7419 32.1974 68.9291 32.4909 69.0716C32.796 69.2029 33.1308 69.272 33.4954 69.2791C33.8826 69.2866 34.2314 69.225 34.5416 69.0943C34.8518 68.9636 35.1174 68.7864 35.3382 68.5628C35.5707 68.328 35.7469 68.0579 35.8667 67.7526C35.9982 67.4361 36.0675 67.0956 36.0746 66.731L36.1874 60.9216C36.1951 60.5229 36.1227 60.1454 35.9701 59.7892C35.8175 59.433 35.6077 59.0871 35.3407 58.7514C35.0851 58.416 34.7895 58.0912 34.4537 57.777C34.1179 57.4628 33.7764 57.1542 33.429 56.8512C33.0144 56.4899 32.5999 56.1228 32.1855 55.7501C31.7825 55.3777 31.4198 54.9832 31.0974 54.5667C30.7864 54.1504 30.533 53.7068 30.337 53.2358C30.1524 52.765 30.0656 52.2448 30.0767 51.6752L30.1172 49.5907C30.1278 49.0439 30.2344 48.5446 30.4368 48.0927C30.651 47.6296 30.932 47.242 31.2799 46.9296C31.628 46.6059 32.0317 46.3574 32.4909 46.184C32.9615 46.0108 33.4531 45.9292 33.9657 45.9391C34.5124 45.9497 35.0117 46.0563 35.4636 46.2588C35.9269 46.4615 36.3261 46.737 36.6612 47.0854C36.9965 47.4224 37.2509 47.8205 37.4243 48.2796C37.6093 48.7277 37.6967 49.2137 37.6866 49.7376L37.6185 53.2404L36.337 53.2155L36.4047 49.7299C36.412 49.3539 36.356 49.011 36.2367 48.701C36.1176 48.3796 35.952 48.1029 35.74 47.8709C35.5282 47.6275 35.2698 47.4401 34.9646 47.3089C34.6597 47.1662 34.3307 47.0914 33.9776 47.0846C33.5903 47.0771 33.2358 47.1385 32.9142 47.269C32.604 47.3998 32.3384 47.5826 32.1173 47.8176C31.8965 48.0413 31.7203 48.3113 31.5888 48.6278C31.4689 48.9332 31.4054 49.2681 31.3983 49.6326L31.3582 51.7001C31.35 52.1216 31.4277 52.5219 31.5913 52.9012C31.7551 53.269 31.9703 53.6264 32.2371 53.9735C32.5154 54.3093 32.8282 54.6345 33.1754 54.9489C33.5225 55.2633 33.8753 55.5778 34.2339 55.8925C34.6373 56.2422 35.0349 56.6032 35.4265 56.9754C35.8181 57.3477 36.1637 57.7418 36.4633 58.1579C36.7743 58.5741 37.0222 59.012 37.207 59.4714C37.3918 59.9308 37.4791 60.4225 37.4689 60.9465L37.3558 66.773C37.3451 67.3198 37.2329 67.819 37.019 68.2707C36.8165 68.7225 36.5412 69.1103 36.193 69.434C35.8449 69.7578 35.4355 70.0062 34.965 70.1794C34.5058 70.3528 34.0142 70.4344 33.4902 70.4242C32.9434 70.4136 32.4384 70.307 31.9751 70.1042C31.5233 69.9017 31.1297 69.632 30.7943 69.295C30.4704 68.9583 30.216 68.5602 30.0312 68.1008C29.8578 67.6416 29.7762 67.15 29.7864 66.626L29.8581 62.9353L31.1396 62.9602L31.0682 66.6338Z" fill="#00BA8D"/>
<path d="M31.2359 67.6798L30.2982 68.0273L30.3027 68.039L31.2359 67.6798ZM31.7326 68.5099L30.9782 69.1663L30.9862 69.1754L30.9944 69.1844L31.7326 68.5099ZM32.4909 69.0716L32.0543 69.9712L32.0748 69.9812L32.0957 69.9902L32.4909 69.0716ZM35.3382 68.5628L34.6276 67.8592L34.6267 67.8601L35.3382 68.5628ZM35.8667 67.7526L34.9433 67.3689L34.9395 67.378L34.9359 67.3871L35.8667 67.7526ZM35.3407 58.7514L34.5453 59.3575L34.5516 59.3658L34.5581 59.3739L35.3407 58.7514ZM33.429 56.8512L34.0864 56.0976L34.086 56.0972L33.429 56.8512ZM32.1855 55.7501L31.5067 56.4846L31.5168 56.4937L32.1855 55.7501ZM31.0974 54.5667L30.2963 55.1652L30.3014 55.172L30.3066 55.1788L31.0974 54.5667ZM30.337 53.2358L29.406 53.6008L29.4097 53.6104L29.4137 53.6199L30.337 53.2358ZM30.4368 48.0927L29.5291 47.673L29.5243 47.6838L30.4368 48.0927ZM31.2799 46.9296L31.9479 47.6738L31.9544 47.6679L31.9608 47.662L31.2799 46.9296ZM32.4909 46.184L32.1455 45.2455L32.1376 45.2485L32.4909 46.184ZM35.4636 46.2588L35.0547 47.1714L35.0628 47.1749L35.4636 46.2588ZM36.6612 47.0854L35.9405 47.7787L35.9464 47.7848L35.9523 47.7908L36.6612 47.0854ZM37.4243 48.2796L36.4888 48.6329L36.4942 48.6472L36.5 48.6614L37.4243 48.2796ZM37.6185 53.2404L37.5991 54.2402L38.5989 54.2596L38.6183 53.2598L37.6185 53.2404ZM36.337 53.2155L35.3372 53.1961L35.3178 54.1959L36.3176 54.2153L36.337 53.2155ZM36.2367 48.701L35.2989 49.0485L35.3034 49.0603L36.2367 48.701ZM35.74 47.8709L34.9856 48.5273L34.9936 48.5365L35.0018 48.5454L35.74 47.8709ZM34.9646 47.3089L34.5408 48.2146L34.555 48.2213L34.5694 48.2275L34.9646 47.3089ZM32.9142 47.269L32.5382 46.3423L32.5259 46.3475L32.9142 47.269ZM32.1173 47.8176L32.8288 48.5203L32.8373 48.5117L32.8457 48.5028L32.1173 47.8176ZM31.5888 48.6278L30.6653 48.2442L30.6615 48.2533L30.658 48.2624L31.5888 48.6278ZM31.5913 52.9012L30.673 53.2972L30.6777 53.3079L31.5913 52.9012ZM32.2371 53.9735L31.4442 54.5829L31.4554 54.5974L31.4671 54.6116L32.2371 53.9735ZM33.1754 54.9489L32.5041 55.6901L33.1754 54.9489ZM34.2339 55.8925L33.5743 56.6441L33.5789 56.6481L34.2339 55.8925ZM36.4633 58.1579L35.6518 58.7422L35.6569 58.7493L35.6622 58.7564L36.4633 58.1579ZM37.019 68.2707L36.1152 67.8427L36.1107 67.8522L36.1064 67.8617L37.019 68.2707ZM34.965 70.1794L34.6196 69.2409L34.6117 69.2439L34.965 70.1794ZM31.9751 70.1042L31.5662 71.0168L31.5743 71.0204L31.9751 70.1042ZM30.7943 69.295L30.0736 69.9883L30.0795 69.9944L30.0855 70.0004L30.7943 69.295ZM30.0312 68.1008L29.0957 68.4541L29.0995 68.4641L29.1035 68.474L30.0312 68.1008ZM29.8581 62.9353L29.8775 61.9355L28.8777 61.9161L28.8582 62.9159L29.8581 62.9353ZM31.1396 62.9602L32.1394 62.9796L32.1588 61.9798L31.159 61.9604L31.1396 62.9602ZM30.0684 66.6144C30.0589 67.1033 30.1316 67.5777 30.2983 68.0273L32.1736 67.3322C32.102 67.1391 32.0629 66.9162 32.068 66.6532L30.0684 66.6144ZM30.3027 68.039C30.4626 68.4545 30.6877 68.8324 30.9782 69.1663L32.487 67.8535C32.354 67.7005 32.2479 67.5251 32.1692 67.3205L30.3027 68.039ZM30.9944 69.1844C31.295 69.5134 31.6513 69.7757 32.0543 69.9712L32.9275 68.1719C32.7435 68.0826 32.5942 67.9704 32.4708 67.8353L30.9944 69.1844ZM32.0957 69.9902C32.5308 70.1773 32.9948 70.2696 33.4759 70.2789L33.5148 68.2793C33.2669 68.2745 33.0613 68.2284 32.8861 68.153L32.0957 69.9902ZM33.4759 70.2789C33.9822 70.2887 34.4728 70.2085 34.9299 70.0158L34.1533 68.1728C33.99 68.2416 33.7831 68.2845 33.5148 68.2793L33.4759 70.2789ZM34.9299 70.0158C35.3525 69.8378 35.7301 69.5891 36.0497 69.2655L34.6267 67.8601C34.5046 67.9838 34.3512 68.0894 34.1533 68.1728L34.9299 70.0158ZM36.0488 69.2664C36.3762 68.9357 36.6277 68.5508 36.7976 68.118L34.9359 67.3871C34.8661 67.565 34.7652 67.7203 34.6276 67.8592L36.0488 69.2664ZM36.7902 68.1362C36.9727 67.6969 37.0651 67.232 37.0744 66.7505L35.0748 66.7116C35.07 66.9591 35.0238 67.1752 34.9433 67.3689L36.7902 68.1362ZM37.0744 66.7505L37.1872 60.941L35.1876 60.9022L35.0748 66.7116L37.0744 66.7505ZM37.1872 60.941C37.1976 60.4046 37.0994 59.8859 36.8893 59.3954L35.0509 60.183C35.146 60.405 35.1927 60.6412 35.1876 60.9022L37.1872 60.941ZM36.8893 59.3954C36.698 58.949 36.44 58.527 36.1233 58.1289L34.5581 59.3739C34.7754 59.6471 34.9369 59.917 35.0509 60.183L36.8893 59.3954ZM36.1361 58.1454C35.8438 57.7617 35.5099 57.3958 35.137 57.0468L33.7704 58.5072C34.069 58.7866 34.3264 59.0703 34.5453 59.3575L36.1361 58.1454ZM35.137 57.0468C34.7927 56.7247 34.4425 56.4082 34.0864 56.0976L32.7716 57.6047C33.1103 57.9001 33.4432 58.2009 33.7704 58.5072L35.137 57.0468ZM34.086 56.0972C33.6754 55.7394 33.2648 55.3759 32.8542 55.0066L31.5168 56.4937C31.935 56.8698 32.3534 57.2403 32.772 57.6051L34.086 56.0972ZM32.8642 55.0158C32.5002 54.6793 32.1753 54.3255 31.8882 53.9546L30.3066 55.1788C30.6643 55.6409 31.0648 56.076 31.5067 56.4845L32.8642 55.0158ZM31.8985 53.9682C31.636 53.6168 31.4239 53.245 31.2603 52.8516L29.4137 53.6199C29.642 54.1685 29.9368 54.684 30.2963 55.1652L31.8985 53.9682ZM31.268 52.8708C31.1371 52.5369 31.0677 52.1494 31.0765 51.6947L29.0769 51.6558C29.0636 52.3402 29.1677 52.9931 29.406 53.6008L31.268 52.8708ZM31.0765 51.6947L31.117 49.6101L29.1174 49.5713L29.0769 51.6558L31.0765 51.6947ZM31.117 49.6101C31.1253 49.1836 31.2074 48.8186 31.3494 48.5016L29.5243 47.6838C29.2613 48.2705 29.1303 48.9042 29.1174 49.5713L31.117 49.6101ZM31.3445 48.5124C31.5068 48.1613 31.71 47.8874 31.9479 47.6738L30.6119 46.1855C30.154 46.5965 29.7951 47.098 29.5292 47.673L31.3445 48.5124ZM31.9608 47.662C32.2109 47.4295 32.5023 47.2486 32.8442 47.1195L32.1376 45.2485C31.5611 45.4662 31.0452 45.7824 30.599 46.1973L31.9608 47.662ZM32.8363 47.1224C33.1875 46.9932 33.5551 46.9313 33.9462 46.9389L33.9851 44.9393C33.351 44.927 32.7355 45.0284 32.1455 45.2455L32.8363 47.1224ZM33.9462 46.9389C34.3727 46.9472 34.7377 47.0293 35.0547 47.1713L35.8726 45.3462C35.2858 45.0833 34.6521 44.9523 33.9851 44.9393L33.9462 46.9389ZM35.0628 47.1749C35.4115 47.3275 35.7005 47.5292 35.9405 47.7787L37.3819 46.3922C36.9517 45.9449 36.4423 45.5955 35.8645 45.3426L35.0628 47.1749ZM35.9523 47.7908C36.1848 48.0244 36.3636 48.3014 36.4888 48.6329L38.3598 47.9264C38.1382 47.3395 37.8082 46.8204 37.37 46.38L35.9523 47.7908ZM36.5 48.6614C36.6284 48.9722 36.6945 49.3204 36.6867 49.7182L38.6864 49.7571C38.699 49.1069 38.5902 48.4831 38.3486 47.8979L36.5 48.6614ZM36.6867 49.7182L36.6187 53.221L38.6183 53.2598L38.6864 49.7571L36.6867 49.7182ZM37.638 52.2406L36.3565 52.2157L36.3176 54.2153L37.5991 54.2402L37.638 52.2406ZM37.3369 53.2349L37.4045 49.7493L35.4049 49.7104L35.3372 53.1961L37.3369 53.2349ZM37.4045 49.7493C37.414 49.261 37.3415 48.7874 37.1699 48.3418L35.3034 49.0603C35.3706 49.2346 35.41 49.4469 35.4049 49.7104L37.4045 49.7493ZM37.1744 48.3535C37.0145 47.9223 36.7848 47.5318 36.4782 47.1963L35.0018 48.5454C35.1193 48.674 35.2206 48.837 35.299 49.0485L37.1744 48.3535ZM36.4944 47.2145C36.1811 46.8544 35.7987 46.5791 35.3598 46.3903L34.5694 48.2275C34.7408 48.3012 34.8753 48.4005 34.9856 48.5273L36.4944 47.2145ZM35.3884 46.4031C34.9506 46.1982 34.483 46.0942 33.997 46.0848L33.9582 48.0844C34.1784 48.0887 34.3689 48.1342 34.5408 48.2146L35.3884 46.4031ZM33.997 46.0848C33.4901 46.0749 32.9991 46.1554 32.5382 46.3424L33.2902 48.1957C33.4725 48.1217 33.6905 48.0792 33.9582 48.0844L33.997 46.0848ZM32.5259 46.3475C32.0928 46.53 31.7098 46.7914 31.3889 47.1325L32.8457 48.5028C32.967 48.3739 33.1153 48.2695 33.3026 48.1906L32.5259 46.3475ZM31.4058 47.1149C31.0865 47.4383 30.8417 47.8195 30.6653 48.2442L32.5123 49.0115C32.5988 48.8032 32.7064 48.6443 32.8288 48.5203L31.4058 47.1149ZM30.658 48.2624C30.4902 48.6897 30.4077 49.1433 30.3985 49.6132L32.3982 49.6521C32.4032 49.3929 32.4476 49.1767 32.5196 48.9933L30.658 48.2624ZM30.3985 49.6132L30.3584 51.6807L32.358 51.7195L32.3982 49.6521L30.3985 49.6132ZM30.3584 51.6807C30.3475 52.2419 30.4517 52.7841 30.673 53.2972L32.5095 52.5051C32.4037 52.2597 32.3525 52.0013 32.358 51.7195L30.3584 51.6807ZM30.6777 53.3079C30.8763 53.7538 31.1335 54.1787 31.4442 54.5829L33.0299 53.3641C32.8071 53.0742 32.6338 52.7842 32.5048 52.4944L30.6777 53.3079ZM31.4671 54.6116C31.778 54.9867 32.1242 55.346 32.5041 55.6901L33.8466 54.2077C33.5322 53.9229 33.2529 53.632 33.007 53.3354L31.4671 54.6116ZM32.5041 55.6901C32.8552 56.0081 33.2119 56.3261 33.5743 56.6441L34.8935 55.1409C34.5388 54.8296 34.1899 54.5186 33.8466 54.2077L32.5041 55.6901ZM33.5789 56.6481C33.9707 56.9877 34.3569 57.3384 34.7375 57.7002L36.1154 56.2506C35.7129 55.8679 35.304 55.4967 34.8889 55.1368L33.5789 56.6481ZM34.7375 57.7002C35.0864 58.0319 35.3905 58.3793 35.6518 58.7422L37.2748 57.5735C36.9369 57.1043 36.5498 56.6635 36.1154 56.2506L34.7375 57.7002ZM35.6622 58.7564C35.9239 59.1068 36.1283 59.4693 36.2792 59.8446L38.1347 59.0982C37.9161 58.5547 37.6246 58.0415 37.2644 57.5594L35.6622 58.7564ZM36.2792 59.8446C36.411 60.1721 36.4768 60.5295 36.4691 60.9271L38.4687 60.9659C38.4813 60.3155 38.3726 59.6895 38.1347 59.0982L36.2792 59.8446ZM36.4691 60.9271L36.356 66.7536L38.3556 66.7924L38.4687 60.9659L36.4691 60.9271ZM36.356 66.7536C36.3478 67.1724 36.263 67.5305 36.1152 67.8427L37.9228 68.6987C38.2027 68.1075 38.3425 67.4672 38.3556 66.7924L36.356 66.7536ZM36.1064 67.8617C35.9564 68.1966 35.7581 68.473 35.5121 68.7017L36.874 70.1664C37.3243 69.7477 37.6766 69.2485 37.9316 68.6796L36.1064 67.8617ZM35.5121 68.7017C35.2663 68.9302 34.9727 69.111 34.6196 69.2409L35.3104 71.1178C35.8984 70.9014 36.4235 70.5853 36.874 70.1664L35.5121 68.7017ZM34.6117 69.2439C34.2794 69.3694 33.9151 69.4323 33.5096 69.4244L33.4708 71.4241C34.1133 71.4365 34.7322 71.3362 35.3183 71.1149L34.6117 69.2439ZM33.5096 69.4244C33.0835 69.4162 32.7094 69.334 32.376 69.1881L31.5743 71.0204C32.1675 71.2799 32.8034 71.4111 33.4708 71.4241L33.5096 69.4244ZM32.3841 69.1917C32.0393 69.0372 31.7485 68.8362 31.5032 68.5897L30.0855 70.0004C30.5108 70.4278 31.0072 70.7663 31.5662 71.0168L32.3841 69.1917ZM31.515 68.6018C31.2852 68.3629 31.0988 68.0752 30.959 67.7276L29.1035 68.474C29.3333 69.0452 29.6556 69.5537 30.0736 69.9883L31.515 68.6018ZM30.9668 67.7475C30.8413 67.4152 30.7783 67.0509 30.7862 66.6454L28.7866 66.6066C28.7741 67.2491 28.8744 67.868 29.0957 68.4541L30.9668 67.7475ZM30.7862 66.6454L30.8579 62.9547L28.8582 62.9159L28.7866 66.6066L30.7862 66.6454ZM29.8386 63.9351L31.1201 63.96L31.159 61.9604L29.8775 61.9355L29.8386 63.9351ZM30.1397 62.9408L30.0684 66.6144L32.068 66.6532L32.1394 62.9796L30.1397 62.9408Z" fill="#00BA8D"/>
<rect x="39" y="55" width="2" height="11" rx="1" fill="#00FFC2"/>
<rect x="60" y="59" width="2" height="4" rx="1" fill="#00FFC2"/>
<rect x="36" y="59" width="2" height="4" rx="1" fill="#00FFC2"/>
<rect x="45" y="54" width="2" height="14" rx="1" fill="#00FFC2"/>
<rect x="48" y="48" width="2" height="26" rx="1" fill="#00FFC2"/>
<rect x="51" y="52" width="2" height="18" rx="1" fill="#00FFC2"/>
<rect x="54" y="53" width="2" height="16" rx="1" fill="#00FFC2"/>
<rect x="57" y="56" width="2" height="10" rx="1" fill="#00FFC2"/>
<rect x="42" y="50" width="2" height="22" rx="1" fill="#00FFC2"/>
<ellipse cx="45" cy="46" rx="45" ry="46" fill="white"/>
<path d="M58.4128 63.1643C58.4136 63.7014 58.5039 64.1977 58.6836 64.6532C58.8633 65.0923 59.1081 65.4826 59.4179 65.8239C59.7276 66.149 60.0942 66.4088 60.5177 66.6035C60.9574 66.7818 61.4377 66.8706 61.9586 66.8698C62.5119 66.8689 63.0082 66.7705 63.4474 66.5745C63.8865 66.3785 64.2605 66.1175 64.5692 65.7915C64.8942 65.4492 65.1377 65.0582 65.2998 64.6185C65.4781 64.1625 65.5669 63.6741 65.5661 63.1532L65.5532 54.8525C65.5523 54.2828 65.4376 53.7459 65.2089 53.2417C64.9803 52.7375 64.6703 52.2497 64.2789 51.7783C63.9038 51.3068 63.4718 50.8518 62.9828 50.4131C62.4939 49.9744 61.9968 49.5438 61.4916 49.1215C60.8886 48.6178 60.2856 48.1061 59.6825 47.5862C59.0958 47.0662 58.566 46.5137 58.0931 45.9285C57.6364 45.3432 57.2611 44.7172 56.9671 44.0503C56.6894 43.3835 56.5499 42.6431 56.5486 41.8293L56.544 38.8508C56.5428 38.0695 56.68 37.3532 56.9557 36.7017C57.2476 36.0339 57.6374 35.4718 58.125 35.0153C58.6125 34.5426 59.1816 34.1755 59.8322 33.914C60.4991 33.6526 61.1988 33.5213 61.9312 33.5202C62.7125 33.519 63.4288 33.6562 64.0803 33.9319C64.7481 34.2075 65.3265 34.5891 65.8155 35.0766C66.3045 35.5479 66.6797 36.1088 66.9412 36.7595C67.2188 37.3938 67.3582 38.0853 67.3594 38.834L67.3672 43.8389L65.5361 43.8417L65.5284 38.8613C65.5276 38.3242 65.4373 37.836 65.2576 37.3968C65.0778 36.9414 64.8331 36.5512 64.5233 36.2261C64.2136 35.8848 63.8388 35.625 63.3991 35.4466C62.9593 35.252 62.4872 35.155 61.9826 35.1558C61.4292 35.1567 60.9248 35.2551 60.4694 35.4511C60.0302 35.6471 59.6563 35.9163 59.3476 36.2586C59.0389 36.5846 58.7953 36.9756 58.617 37.4316C58.4549 37.8713 58.3743 38.3515 58.3751 38.8724L58.3797 41.8265C58.3806 42.4287 58.5036 42.9982 58.7485 43.5349C58.9935 44.0553 59.3116 44.5594 59.703 45.0471C60.1107 45.5184 60.5671 45.9735 61.0723 46.4121C61.5776 46.8508 62.0909 47.2895 62.6125 47.7281C63.1992 48.2155 63.7777 48.7191 64.3482 49.2391C64.9187 49.759 65.4241 50.3116 65.8644 50.8969C66.3211 51.4821 66.6883 52.1 66.966 52.7507C67.2437 53.4013 67.3831 54.1009 67.3843 54.8496L67.3972 63.1748C67.3984 63.9561 67.253 64.6724 66.961 65.3239C66.6854 65.9754 66.3037 66.5375 65.8162 67.0103C65.3287 67.483 64.7514 67.8501 64.0845 68.1116C63.4339 68.373 62.7342 68.5043 61.9855 68.5055C61.2043 68.5067 60.4798 68.3695 59.812 68.0938C59.1605 67.8181 58.5903 67.4447 58.1013 66.9734C57.6286 66.5021 57.2533 65.9412 56.9756 65.2906C56.7142 64.64 56.5829 63.9403 56.5817 63.1916L56.5736 57.9182L58.4046 57.9153L58.4128 63.1643Z" fill="#00BA8D"/>
<path d="M58.6836 64.6532L57.4744 65.1304L57.4774 65.138L57.4805 65.1455L58.6836 64.6532ZM59.4179 65.8239L58.4552 66.6976L58.4659 66.7093L58.4768 66.7207L59.4179 65.8239ZM60.5177 66.6035L59.9748 67.7846L60.0017 67.797L60.0291 67.8081L60.5177 66.6035ZM64.5692 65.7915L63.6264 64.8964L63.6253 64.8976L64.5692 65.7915ZM65.2998 64.6185L64.0891 64.145L64.0844 64.1569L64.08 64.1689L65.2998 64.6185ZM64.2789 51.7783L63.2616 52.5877L63.27 52.5982L63.2787 52.6087L64.2789 51.7783ZM61.4916 49.1215L62.3254 48.1241L62.3249 48.1237L61.4916 49.1215ZM59.6825 47.5862L58.8204 48.5591L58.827 48.565L58.8337 48.5708L59.6825 47.5862ZM58.0931 45.9285L57.0681 46.7282L57.075 46.7369L57.0819 46.7456L58.0931 45.9285ZM56.9671 44.0503L55.767 44.5501L55.7722 44.5625L55.7776 44.5748L56.9671 44.0503ZM56.9557 36.7017L55.7646 36.181L55.7615 36.188L55.7585 36.1951L56.9557 36.7017ZM58.125 35.0153L59.0134 35.9643L59.0218 35.9565L59.0299 35.9486L58.125 35.0153ZM59.8322 33.914L59.3577 32.7037L59.3476 32.7078L59.8322 33.914ZM64.0803 33.9319L63.5737 35.1291L63.5843 35.1335L64.0803 33.9319ZM65.8155 35.0766L64.8977 35.9973L64.9055 36.0051L64.9134 36.0127L65.8155 35.0766ZM66.9412 36.7595L65.7349 37.2441L65.7423 37.2626L65.7503 37.2808L66.9412 36.7595ZM67.3672 43.8389L67.3692 45.1389L68.6692 45.1369L68.6672 43.8369L67.3672 43.8389ZM65.5361 43.8417L64.2361 43.8438L64.2381 45.1438L65.5381 45.1417L65.5361 43.8417ZM65.2576 37.3968L64.0483 37.8741L64.0513 37.8817L64.0544 37.8892L65.2576 37.3968ZM64.5233 36.2261L63.5607 37.0998L63.5713 37.1115L63.5822 37.1229L64.5233 36.2261ZM63.3991 35.4466L62.8729 36.6354L62.8916 36.6436L62.9105 36.6513L63.3991 35.4466ZM60.4694 35.4511L59.9554 34.2571L59.9475 34.2605L59.9396 34.264L60.4694 35.4511ZM59.3476 36.2586L60.2915 37.1525L60.3023 37.141L60.3129 37.1292L59.3476 36.2586ZM58.617 37.4316L57.4063 36.9581L57.4016 36.97L57.3972 36.9819L58.617 37.4316ZM58.7485 43.5349L57.5659 44.0747L57.569 44.0816L57.5723 44.0885L58.7485 43.5349ZM59.703 45.0471L58.6892 45.8608L58.7041 45.8794L58.7197 45.8974L59.703 45.0471ZM61.0723 46.4121L60.22 47.3938L61.0723 46.4121ZM62.6125 47.7281L61.7757 48.723L61.7818 48.7281L62.6125 47.7281ZM65.8644 50.8969L64.8257 51.6785L64.8325 51.6876L64.8395 51.6966L65.8644 50.8969ZM66.961 65.3239L65.7747 64.7923L65.7691 64.8047L65.7638 64.8173L66.961 65.3239ZM64.0845 68.1116L63.61 66.9012L63.5998 66.9053L64.0845 68.1116ZM59.812 68.0938L59.3054 69.2911L59.316 69.2954L59.812 68.0938ZM58.1013 66.9734L57.1835 67.8941L57.1913 67.9019L57.1992 67.9095L58.1013 66.9734ZM56.9756 65.2906L55.7694 65.7753L55.7745 65.7882L55.78 65.8009L56.9756 65.2906ZM56.5736 57.9182L56.5716 56.6182L55.2716 56.6202L55.2736 57.9202L56.5736 57.9182ZM58.4046 57.9153L59.7046 57.9133L59.7026 56.6133L58.4026 56.6153L58.4046 57.9153ZM57.1128 63.1663C57.1138 63.8503 57.2294 64.5096 57.4744 65.1304L59.8929 64.1759C59.7784 63.8859 59.7134 63.5525 59.7128 63.1623L57.1128 63.1663ZM57.4805 65.1455C57.7158 65.7206 58.0407 66.2408 58.4552 66.6976L60.3805 64.9502C60.1755 64.7244 60.0109 64.464 59.8868 64.1608L57.4805 65.1455ZM58.4768 66.7207C58.9043 67.1694 59.4076 67.5239 59.9748 67.7846L61.0607 65.4223C60.7809 65.2937 60.5509 65.1285 60.359 64.9271L58.4768 66.7207ZM60.0291 67.8081C60.6392 68.0556 61.288 68.1708 61.9606 68.1698L61.9565 65.5698C61.5874 65.5703 61.2756 65.508 61.0063 65.3988L60.0291 67.8081ZM61.9606 68.1698C62.6686 68.1687 63.3487 68.0421 63.9772 67.7616L62.9175 65.3874C62.6677 65.4989 62.3553 65.5692 61.9565 65.5698L61.9606 68.1698ZM63.9772 67.7616C64.5611 67.501 65.0788 67.144 65.5131 66.6854L63.6253 64.8976C63.4421 65.091 63.2119 65.256 62.9175 65.3874L63.9772 67.7616ZM65.512 66.6866C65.9577 66.2171 66.2959 65.6748 66.5196 65.0681L64.08 64.1689C63.9795 64.4416 63.8307 64.6813 63.6264 64.8964L65.512 66.6866ZM66.5105 65.092C66.7518 64.475 66.8671 63.8243 66.8661 63.1512L64.2661 63.1553C64.2666 63.5239 64.2045 63.85 64.0891 64.145L66.5105 65.092ZM66.8661 63.1512L66.8532 54.8504L64.2532 54.8545L64.2661 63.1553L66.8661 63.1512ZM66.8532 54.8504C66.852 54.1018 66.6999 53.3819 66.3929 52.7048L64.025 53.7786C64.1752 54.1098 64.2526 54.4638 64.2532 54.8545L66.8532 54.8504ZM66.3929 52.7048C66.1115 52.0844 65.7367 51.4991 65.2791 50.9479L63.2787 52.6087C63.6038 53.0002 63.849 53.3905 64.025 53.7786L66.3929 52.7048ZM65.2962 50.9689C64.8721 50.4358 64.3892 49.9283 63.851 49.4455L62.1147 51.3807C62.5544 51.7752 62.9356 52.1779 63.2616 52.5877L65.2962 50.9689ZM63.851 49.4455C63.3507 48.9966 62.8422 48.5562 62.3254 48.1241L60.6577 50.1188C61.1514 50.5315 61.637 50.9521 62.1147 51.3807L63.851 49.4455ZM62.3249 48.1237C61.7272 47.6245 61.1294 47.1171 60.5314 46.6016L58.8337 48.5708C59.4418 49.095 60.05 49.6112 60.6582 50.1192L62.3249 48.1237ZM60.5447 46.6132C60.0096 46.139 59.53 45.6383 59.1042 45.1114L57.0819 46.7456C57.602 47.3891 58.182 47.9935 58.8204 48.5591L60.5447 46.6132ZM59.118 45.1288C58.7261 44.6266 58.4065 44.0928 58.1566 43.5259L55.7776 44.5748C56.1157 45.3417 56.5467 46.0599 57.0681 46.7282L59.118 45.1288ZM58.1672 43.5506C57.963 43.0602 57.8496 42.4918 57.8486 41.8273L55.2486 41.8313C55.2501 42.7944 55.4158 43.7067 55.767 44.5501L58.1672 43.5506ZM57.8486 41.8273L57.844 38.8488L55.244 38.8528L55.2486 41.8313L57.8486 41.8273ZM57.844 38.8488C57.843 38.2239 57.9521 37.6828 58.1529 37.2083L55.7585 36.1951C55.4079 37.0235 55.2425 37.9151 55.244 38.8528L57.844 38.8488ZM58.1468 37.2225C58.3745 36.7016 58.6661 36.2895 59.0134 35.9643L57.2365 34.0663C56.6086 34.6542 56.1207 35.3662 55.7646 36.181L58.1468 37.2225ZM59.0299 35.9486C59.3925 35.5971 59.8176 35.321 60.3169 35.1203L59.3476 32.7078C58.5456 33.03 57.8325 33.4881 57.22 34.082L59.0299 35.9486ZM60.3067 35.1244C60.8197 34.9233 61.3588 34.8211 61.9333 34.8202L61.9292 32.2202C61.0388 32.2215 60.1786 32.3819 59.3578 32.7037L60.3067 35.1244ZM61.9333 34.8202C62.5581 34.8192 63.0992 34.9283 63.5737 35.1291L64.5869 32.7347C63.7585 32.3841 62.8669 32.2187 61.9292 32.2202L61.9333 34.8202ZM63.5843 35.1335C64.1018 35.3471 64.535 35.6357 64.8977 35.9973L66.7333 34.156C66.1179 33.5425 65.3944 33.0679 64.5764 32.7302L63.5843 35.1335ZM64.9134 36.0127C65.266 36.3525 65.5396 36.7581 65.7349 37.2441L68.1474 36.2748C67.8199 35.4596 67.343 34.7433 66.7176 34.1406L64.9134 36.0127ZM65.7503 37.2808C65.9506 37.7384 66.0585 38.2514 66.0594 38.836L68.6594 38.832C68.658 37.9192 68.4871 37.0492 68.132 36.2382L65.7503 37.2808ZM66.0594 38.836L66.0672 43.8409L68.6672 43.8369L68.6594 38.832L66.0594 38.836ZM67.3652 42.5389L65.5341 42.5417L65.5381 45.1417L67.3692 45.1389L67.3652 42.5389ZM66.8361 43.8397L66.8284 38.8593L64.2284 38.8633L64.2361 43.8438L66.8361 43.8397ZM66.8284 38.8593C66.8273 38.176 66.712 37.5185 66.4607 36.9045L64.0544 37.8892C64.1626 38.1535 64.2278 38.4723 64.2284 38.8633L66.8284 38.8593ZM66.4668 36.9196C66.2312 36.3225 65.8998 35.7862 65.4644 35.3293L63.5822 37.1229C63.7663 37.3161 63.9245 37.5603 64.0483 37.8741L66.4668 36.9196ZM65.486 35.3524C65.0411 34.8623 64.5028 34.4914 63.8877 34.2419L62.9105 36.6513C63.1748 36.7585 63.386 36.9073 63.5607 37.0998L65.486 35.3524ZM63.9252 34.2578C63.311 33.986 62.6579 33.8548 61.9806 33.8558L61.9846 36.4558C62.3164 36.4553 62.6077 36.518 62.8729 36.6354L63.9252 34.2578ZM61.9806 33.8558C61.2716 33.8569 60.5904 33.9838 59.9554 34.2571L60.9833 36.6452C61.2592 36.5265 61.5868 36.4564 61.9846 36.4558L61.9806 33.8558ZM59.9396 34.264C59.3421 34.5307 58.8177 34.905 58.3822 35.3879L60.3129 37.1292C60.4949 36.9275 60.7184 36.7636 60.9992 36.6383L59.9396 34.264ZM58.4037 35.3646C57.9697 35.8229 57.6401 36.3603 57.4063 36.9581L59.8277 37.905C59.9506 37.5909 60.108 37.3462 60.2915 37.1525L58.4037 35.3646ZM57.3972 36.9819C57.1762 37.5815 57.0741 38.2165 57.0751 38.8744L59.6751 38.8704C59.6745 38.4865 59.7336 38.1611 59.8368 37.8812L57.3972 36.9819ZM57.0751 38.8744L57.0797 41.8285L59.6797 41.8245L59.6751 38.8704L57.0751 38.8744ZM57.0797 41.8285C57.0809 42.6123 57.2422 43.3655 57.5659 44.0747L59.9312 42.9951C59.7649 42.6308 59.6803 42.245 59.6797 41.8245L57.0797 41.8285ZM57.5723 44.0885C57.8645 44.7094 58.2391 45.3 58.6892 45.8608L60.7169 44.2334C60.3842 43.8188 60.1224 43.4013 59.9248 42.9813L57.5723 44.0885ZM58.7197 45.8974C59.1707 46.4189 59.6714 46.9175 60.22 47.3938L61.9246 45.4305C61.4627 45.0295 61.0506 44.618 60.6863 44.1967L58.7197 45.8974ZM60.22 47.3938C60.7305 47.837 61.249 48.28 61.7757 48.723L63.4492 46.7332C62.9328 46.2989 62.4246 45.8646 61.9246 45.4305L60.22 47.3938ZM61.7818 48.7281C62.353 49.2026 62.9166 49.6932 63.4725 50.1999L65.2239 48.2783C64.6389 47.7451 64.0453 47.2284 63.4431 46.7281L61.7818 48.7281ZM63.4725 50.1999C63.9863 50.6682 64.4365 51.1613 64.8257 51.6785L66.9032 50.1153C66.4117 49.462 65.851 48.8498 65.2239 48.2783L63.4725 50.1999ZM64.8395 51.6966C65.2304 52.1976 65.5389 52.7188 65.7703 53.261L68.1616 52.2403C67.8376 51.4813 67.4118 50.7667 66.8894 50.0972L64.8395 51.6966ZM65.7703 53.261C65.9755 53.7416 66.0833 54.2673 66.0843 54.8516L68.6842 54.8476C68.6828 53.9345 68.5118 53.0609 68.1616 52.2403L65.7703 53.261ZM66.0843 54.8516L66.0972 63.1768L68.6972 63.1728L68.6842 54.8476L66.0843 54.8516ZM66.0972 63.1768C66.0981 63.7917 65.9846 64.3239 65.7747 64.7923L68.1474 65.8556C68.5214 65.0209 68.6986 64.1204 68.6972 63.1728L66.0972 63.1768ZM65.7638 64.8173C65.5531 65.3152 65.2686 65.7305 64.9112 66.077L66.7212 67.9436C67.3389 67.3445 67.8176 66.6356 68.1583 65.8306L65.7638 64.8173ZM64.9112 66.077C64.5541 66.4233 64.1254 66.6992 63.61 66.9013L64.559 69.3219C65.3774 69.0011 66.1032 68.5428 66.7212 67.9436L64.9112 66.077ZM63.5998 66.9053C63.1128 67.101 62.5781 67.2046 61.9835 67.2055L61.9875 69.8055C62.8903 69.8041 63.7549 69.645 64.5692 69.3179L63.5998 66.9053ZM61.9835 67.2055C61.3591 67.2064 60.8054 67.0975 60.3081 66.8922L59.316 69.2954C60.1541 69.6415 61.0494 69.8069 61.9875 69.8055L61.9835 67.2055ZM60.3186 66.8966C59.8077 66.6804 59.3729 66.3935 59.0034 66.0373L57.1992 67.9095C57.8077 68.4959 58.5134 68.9559 59.3054 69.291L60.3186 66.8966ZM59.0191 66.0528C58.6714 65.7061 58.3875 65.2868 58.1713 64.7802L55.78 65.8009C56.1192 66.5956 56.5857 67.2982 57.1835 67.8941L59.0191 66.0528ZM58.1819 64.8059C57.9862 64.3189 57.8827 63.7842 57.8817 63.1896L55.2818 63.1936C55.2832 64.0964 55.4422 64.961 55.7694 65.7753L58.1819 64.8059ZM57.8817 63.1896L57.8736 57.9161L55.2736 57.9202L55.2818 63.1936L57.8817 63.1896ZM56.5756 59.2182L58.4066 59.2153L58.4026 56.6153L56.5716 56.6182L56.5756 59.2182ZM57.1046 57.9173L57.1128 63.1663L59.7128 63.1623L59.7046 57.9133L57.1046 57.9173Z" fill="#00BA8D"/>
<path d="M55.2986 56.7321C55.1617 55.0208 56.877 53.7661 58.4664 54.4149C59.3334 54.7687 59.9 55.612 59.9 56.5484V63.7062C59.9 64.9229 58.8316 65.863 57.6248 65.7083C56.6779 65.5869 55.9455 64.8187 55.8694 63.8671L55.2986 56.7321Z" fill="#00BA8D"/>
<path d="M68.6713 45.2855C68.7772 47.0053 67.0496 48.2448 65.4543 47.5936C64.5748 47.2346 63.9999 46.3791 63.9999 45.4291L63.9999 45L64.4738 39.7875C64.4911 39.5965 64.4862 39.4041 64.4591 39.2142L64.3463 38.4246C64.1721 37.2051 65.2073 36.1548 66.4292 36.3115C67.2902 36.4218 67.9611 37.1117 68.0474 37.9754L68.4999 42.5L68.6713 45.2855Z" fill="#00BA8D"/>
<rect x="56" y="49" width="3" height="5" rx="1.5" fill="#00FFC2"/>
<path d="M23.9756 62.1982C23.9756 62.9502 24.1009 63.6452 24.3516 64.2832C24.6022 64.8984 24.944 65.4453 25.377 65.9238C25.8099 66.3796 26.3226 66.7441 26.915 67.0176C27.5303 67.2682 28.2025 67.3936 28.9316 67.3936C29.7064 67.3936 30.4014 67.2568 31.0166 66.9834C31.6318 66.71 32.1559 66.3454 32.5889 65.8896C33.0446 65.4111 33.3864 64.8643 33.6143 64.249C33.8649 63.611 33.9902 62.9274 33.9902 62.1982V50.5771C33.9902 49.7796 33.8307 49.0277 33.5117 48.3213C33.1927 47.6149 32.7598 46.9313 32.2129 46.2705C31.6888 45.6097 31.085 44.9717 30.4014 44.3564C29.7178 43.7412 29.0228 43.1374 28.3164 42.5449C27.4733 41.8385 26.6302 41.1208 25.7871 40.3916C24.9668 39.6624 24.2262 38.8877 23.5654 38.0674C22.9274 37.2471 22.4033 36.3698 21.9932 35.4355C21.6058 34.5013 21.4121 33.4645 21.4121 32.3252V28.1553C21.4121 27.0615 21.6058 26.0589 21.9932 25.1475C22.4033 24.2132 22.9502 23.4271 23.6338 22.7891C24.3174 22.1283 25.1149 21.6156 26.0264 21.251C26.9606 20.8864 27.9404 20.7041 28.9658 20.7041C30.0596 20.7041 31.0622 20.8978 31.9736 21.2852C32.9079 21.6725 33.7168 22.208 34.4004 22.8916C35.084 23.5524 35.6081 24.3385 35.9727 25.25C36.36 26.1387 36.5537 27.1071 36.5537 28.1553V35.1621H33.9902V28.1895C33.9902 27.4375 33.8649 26.7539 33.6143 26.1387C33.3636 25.5007 33.0218 24.9538 32.5889 24.498C32.1559 24.0195 31.6318 23.6549 31.0166 23.4043C30.4014 23.1309 29.7406 22.9941 29.0342 22.9941C28.2594 22.9941 27.5531 23.1309 26.915 23.4043C26.2998 23.6777 25.7757 24.0537 25.3428 24.5322C24.9098 24.988 24.568 25.5348 24.3174 26.1729C24.0895 26.7881 23.9756 27.4603 23.9756 28.1895V32.3252C23.9756 33.1683 24.1465 33.9658 24.4883 34.7178C24.8301 35.4469 25.2744 36.1533 25.8213 36.8369C26.391 37.4977 27.029 38.1357 27.7354 38.751C28.4417 39.3662 29.1595 39.9814 29.8887 40.5967C30.709 41.2803 31.5179 41.9867 32.3154 42.7158C33.113 43.445 33.8193 44.2197 34.4346 45.04C35.0726 45.8604 35.5853 46.7262 35.9727 47.6377C36.36 48.5492 36.5537 49.529 36.5537 50.5771V62.2324C36.5537 63.3262 36.3486 64.3288 35.9385 65.2402C35.5511 66.1517 35.0156 66.9378 34.332 67.5986C33.6484 68.2594 32.8395 68.7721 31.9053 69.1367C30.9938 69.5013 30.014 69.6836 28.9658 69.6836C27.8721 69.6836 26.8581 69.4899 25.9238 69.1025C25.0124 68.7152 24.2148 68.1911 23.5312 67.5303C22.8704 66.8695 22.3464 66.0833 21.959 65.1719C21.5944 64.2604 21.4121 63.2806 21.4121 62.2324V54.8496H23.9756V62.1982Z" fill="#00BA8D"/>
<path d="M24.3516 64.2832L22.4901 65.0145L22.4946 65.0262L22.4994 65.0378L24.3516 64.2832ZM25.377 65.9238L23.8939 67.2657L23.9102 67.2837L23.927 67.3013L25.377 65.9238ZM26.915 67.0176L26.0769 68.8335L26.1183 68.8526L26.1604 68.8698L26.915 67.0176ZM32.5889 65.8896L31.1406 64.5103L31.1389 64.5121L32.5889 65.8896ZM33.6143 64.249L31.7528 63.5177L31.7456 63.536L31.7388 63.5544L33.6143 64.249ZM32.2129 46.2705L30.6459 47.5133L30.6588 47.5296L30.6721 47.5456L32.2129 46.2705ZM28.3164 42.5449L29.6016 41.0125L29.6008 41.0119L28.3164 42.5449ZM25.7871 40.3916L24.4584 41.8864L24.4685 41.8954L24.4788 41.9043L25.7871 40.3916ZM23.5654 38.0674L21.9867 39.2953L21.9972 39.3087L22.0079 39.322L23.5654 38.0674ZM21.9932 35.4355L20.1457 36.2016L20.1536 36.2206L20.1619 36.2395L21.9932 35.4355ZM21.9932 25.1475L20.1619 24.3435L20.1571 24.3543L20.1525 24.3652L21.9932 25.1475ZM23.6338 22.7891L24.9984 24.2512L25.0112 24.2392L25.0238 24.227L23.6338 22.7891ZM26.0264 21.251L25.2993 19.3878L25.2914 19.3909L25.2836 19.394L26.0264 21.251ZM31.9736 21.2852L31.1914 23.1258L31.1995 23.1293L31.2076 23.1326L31.9736 21.2852ZM34.4004 22.8916L32.9862 24.3058L32.9982 24.3178L33.0103 24.3296L34.4004 22.8916ZM35.9727 25.25L34.1157 25.9928L34.1271 26.0212L34.1393 26.0492L35.9727 25.25ZM36.5537 35.1621V37.1621H38.5537V35.1621H36.5537ZM33.9902 35.1621H31.9902V37.1621H33.9902V35.1621ZM33.6143 26.1387L31.7528 26.87L31.7573 26.8817L31.7621 26.8933L33.6143 26.1387ZM32.5889 24.498L31.1058 25.8399L31.1221 25.8579L31.1389 25.8755L32.5889 24.498ZM31.0166 23.4043L30.2043 25.2319L30.233 25.2447L30.262 25.2565L31.0166 23.4043ZM26.915 23.4043L26.1272 21.566L26.1149 21.5713L26.1028 21.5767L26.915 23.4043ZM25.3428 24.5322L26.7928 25.9097L26.8095 25.8921L26.8258 25.8741L25.3428 24.5322ZM24.3174 26.1729L22.4559 25.4415L22.4487 25.4598L22.4419 25.4782L24.3174 26.1729ZM24.4883 34.7178L22.6675 35.5454L22.6724 35.556L22.6774 35.5666L24.4883 34.7178ZM25.8213 36.8369L24.2596 38.0863L24.2825 38.115L24.3065 38.1428L25.8213 36.8369ZM27.7354 38.751L26.4218 40.2591L27.7354 38.751ZM29.8887 40.5967L28.5989 42.1253L28.6083 42.1331L29.8887 40.5967ZM34.4346 45.04L32.8346 46.24L32.8451 46.2541L32.8559 46.2679L34.4346 45.04ZM35.9385 65.2402L34.1146 64.4195L34.106 64.4386L34.0978 64.458L35.9385 65.2402ZM31.9053 69.1367L31.1782 67.2736L31.1703 67.2766L31.1625 67.2798L31.9053 69.1367ZM25.9238 69.1025L25.1415 70.9432L25.1497 70.9466L25.1578 70.95L25.9238 69.1025ZM23.5312 67.5303L22.117 68.9445L22.129 68.9565L22.1412 68.9683L23.5312 67.5303ZM21.959 65.1719L20.102 65.9147L20.11 65.9345L20.1183 65.9542L21.959 65.1719ZM21.4121 54.8496V52.8496H19.4121V54.8496H21.4121ZM23.9756 54.8496H25.9756V52.8496H23.9756V54.8496ZM21.9756 62.1982C21.9756 63.1762 22.1394 64.1219 22.4901 65.0145L26.2131 63.5519C26.0624 63.1684 25.9756 62.7242 25.9756 62.1982H21.9756ZM22.4994 65.0378C22.8353 65.8623 23.3 66.6093 23.8939 67.2657L26.86 64.582C26.588 64.2813 26.3691 63.9346 26.2037 63.5286L22.4994 65.0378ZM23.927 67.3013C24.5409 67.9476 25.2635 68.4581 26.0769 68.8335L27.7532 65.2017C27.3817 65.0302 27.0789 64.8115 26.827 64.5463L23.927 67.3013ZM26.1604 68.8698C27.0377 69.2272 27.9691 69.3936 28.9316 69.3936V65.3936C28.4359 65.3936 28.0229 65.3093 27.6696 65.1654L26.1604 68.8698ZM28.9316 69.3936C29.9443 69.3936 30.9222 69.214 31.8289 68.811L30.2043 65.1558C29.8806 65.2997 29.4685 65.3936 28.9316 65.3936V69.3936ZM31.8289 68.811C32.6669 68.4386 33.4124 67.9266 34.0389 67.2671L31.1389 64.5121C30.8994 64.7642 30.5967 64.9814 30.2043 65.1558L31.8289 68.811ZM34.0371 67.269C34.6789 66.5951 35.1668 65.8157 35.4898 64.9437L31.7388 63.5544C31.606 63.9129 31.4103 64.2272 31.1406 64.5103L34.0371 67.269ZM35.4758 64.9803C35.8236 64.0948 35.9902 63.1616 35.9902 62.1982H31.9902C31.9902 62.6932 31.9062 63.1272 31.7528 63.5177L35.4758 64.9803ZM35.9902 62.1982V50.5771H31.9902V62.1982H35.9902ZM35.9902 50.5771C35.9902 49.5042 35.7737 48.4708 35.3345 47.4981L31.689 49.1445C31.8877 49.5846 31.9902 50.055 31.9902 50.5771H35.9902ZM35.3345 47.4981C34.9347 46.6129 34.4023 45.7791 33.7537 44.9954L30.6721 47.5456C31.1172 48.0835 31.4507 48.6169 31.689 49.1445L35.3345 47.4981ZM33.7799 45.0277C33.1805 44.2719 32.4985 43.5532 31.7393 42.8699L29.0634 45.843C29.6714 46.3902 30.1971 46.9475 30.6459 47.5133L33.7799 45.0277ZM31.7393 42.8699C31.0384 42.239 30.3258 41.6199 29.6016 41.0125L27.0312 44.0773C27.7198 44.6548 28.3972 45.2434 29.0634 45.843L31.7393 42.8699ZM29.6008 41.0119C28.7659 40.3123 27.9307 39.6013 27.0954 38.8789L24.4788 41.9043C25.3297 42.6402 26.1808 43.3648 27.032 44.078L29.6008 41.0119ZM27.1158 38.8968C26.3748 38.2381 25.7114 37.5433 25.1229 36.8127L22.0079 39.322C22.741 40.2321 23.5587 41.0867 24.4584 41.8864L27.1158 38.8968ZM25.1441 36.8395C24.6056 36.1471 24.167 35.4118 23.8245 34.6316L20.1619 36.2395C20.6396 37.3278 21.2492 38.3471 21.9867 39.2953L25.1441 36.8395ZM23.8406 34.6695C23.5659 34.007 23.4121 33.2348 23.4121 32.3252H19.4121C19.4121 33.6942 19.6457 34.9956 20.1457 36.2016L23.8406 34.6695ZM23.4121 32.3252V28.1553H19.4121V32.3252H23.4121ZM23.4121 28.1553C23.4121 27.3022 23.5621 26.5691 23.8338 25.9297L20.1525 24.3652C19.6495 25.5487 19.4121 26.8209 19.4121 28.1553H23.4121ZM23.8245 25.9514C24.1354 25.2431 24.531 24.6875 24.9984 24.2512L22.2692 21.327C21.3694 22.1667 20.6712 23.1833 20.1619 24.3435L23.8245 25.9514ZM25.0238 24.227C25.5148 23.7524 26.0906 23.3794 26.7691 23.1079L25.2836 19.394C24.1392 19.8518 23.12 20.5041 22.2437 21.3511L25.0238 24.227ZM26.7535 23.1141C27.4507 22.842 28.1835 22.7041 28.9658 22.7041V18.7041C27.6974 18.7041 26.4705 18.9308 25.2993 19.3878L26.7535 23.1141ZM28.9658 22.7041C29.8189 22.7041 30.552 22.8541 31.1914 23.1258L32.7559 19.4445C31.5724 18.9415 30.3002 18.7041 28.9658 18.7041V22.7041ZM31.2076 23.1326C31.9108 23.4242 32.4967 23.8163 32.9862 24.3058L35.8146 21.4774C34.9369 20.5997 33.9049 19.9208 32.7397 19.4377L31.2076 23.1326ZM33.0103 24.3296C33.4843 24.7878 33.8525 25.3347 34.1157 25.9928L37.8296 24.5072C37.3637 23.3424 36.6836 22.3171 35.7904 21.4536L33.0103 24.3296ZM34.1393 26.0492C34.4081 26.6658 34.5537 27.3595 34.5537 28.1553H38.5537C38.5537 26.8547 38.312 25.6115 37.806 24.4508L34.1393 26.0492ZM34.5537 28.1553V35.1621H38.5537V28.1553H34.5537ZM36.5537 33.1621H33.9902V37.1621H36.5537V33.1621ZM35.9902 35.1621V28.1895H31.9902V35.1621H35.9902ZM35.9902 28.1895C35.9902 27.2127 35.8267 26.2685 35.4664 25.3841L31.7621 26.8933C31.9031 27.2393 31.9902 27.6623 31.9902 28.1895H35.9902ZM35.4758 25.4074C35.1394 24.5513 34.6648 23.7794 34.0389 23.1205L31.1389 25.8755C31.3788 26.1281 31.5878 26.45 31.7528 26.87L35.4758 25.4074ZM34.0719 23.1562C33.4315 22.4484 32.656 21.9126 31.7712 21.5521L30.262 25.2565C30.6076 25.3973 30.8803 25.5907 31.1058 25.8399L34.0719 23.1562ZM31.8289 21.5767C30.9454 21.184 30.0063 20.9941 29.0342 20.9941V24.9941C29.4748 24.9941 29.8573 25.0777 30.2043 25.2319L31.8289 21.5767ZM29.0342 20.9941C28.0201 20.9941 27.0416 21.1741 26.1272 21.566L27.7029 25.2426C28.0645 25.0876 28.4988 24.9941 29.0342 24.9941V20.9941ZM26.1028 21.5767C25.2438 21.9584 24.488 22.4959 23.8597 23.1904L26.8258 25.8741C27.0634 25.6115 27.3558 25.397 27.7273 25.2319L26.1028 21.5767ZM23.8928 23.1547C23.2668 23.8136 22.7922 24.5855 22.4559 25.4415L26.1789 26.9042C26.3439 26.4842 26.5528 26.1623 26.7928 25.9097L23.8928 23.1547ZM22.4419 25.4782C22.123 26.3392 21.9756 27.2495 21.9756 28.1895H25.9756C25.9756 27.6711 26.056 27.237 26.1929 26.8675L22.4419 25.4782ZM21.9756 28.1895V32.3252H25.9756V28.1895H21.9756ZM21.9756 32.3252C21.9756 33.4477 22.2051 34.528 22.6675 35.5454L26.309 33.8902C26.0879 33.4036 25.9756 32.8889 25.9756 32.3252H21.9756ZM22.6774 35.5666C23.0917 36.4505 23.6226 37.2901 24.2596 38.0863L27.383 35.5875C26.9262 35.0165 26.5685 34.4434 26.2992 33.8689L22.6774 35.5666ZM24.3065 38.1428C24.9427 38.8808 25.6488 39.5859 26.4218 40.2591L29.0489 37.2428C28.4091 36.6856 27.8392 36.1147 27.3361 35.531L24.3065 38.1428ZM26.4218 40.2591C27.1362 40.8814 27.8619 41.5034 28.5989 42.1253L31.1784 39.0681C30.4571 38.4595 29.7473 37.8511 29.0489 37.2428L26.4218 40.2591ZM28.6083 42.1331C29.4048 42.7969 30.1907 43.4831 30.9659 44.1919L33.665 41.2398C32.8451 40.4902 32.0131 39.7637 31.169 39.0602L28.6083 42.1331ZM30.9659 44.1919C31.6764 44.8415 32.2979 45.5245 32.8346 46.24L36.0346 43.84C35.3407 42.9149 34.5495 42.0485 33.665 41.2398L30.9659 44.1919ZM32.8559 46.2679C33.3929 46.9584 33.8156 47.6754 34.132 48.42L37.8133 46.8554C37.355 45.777 36.7523 44.7623 36.0133 43.8122L32.8559 46.2679ZM34.132 48.42C34.4082 49.0698 34.5537 49.7818 34.5537 50.5771H38.5537C38.5537 49.2761 38.3119 48.0285 37.8133 46.8554L34.132 48.42ZM34.5537 50.5771V62.2324H38.5537V50.5771H34.5537ZM34.5537 62.2324C34.5537 63.0702 34.3981 63.7896 34.1146 64.4195L37.7623 66.061C38.2992 64.868 38.5537 63.5822 38.5537 62.2324H34.5537ZM34.0978 64.458C33.8108 65.1333 33.425 65.6938 32.942 66.1607L35.7221 69.0366C36.6063 68.1819 37.2914 67.17 37.7791 66.0225L34.0978 64.458ZM32.942 66.1607C32.4593 66.6272 31.8792 67 31.1782 67.2736L32.6324 70.9999C33.7998 70.5443 34.8375 69.8917 35.7221 69.0366L32.942 66.1607ZM31.1625 67.2798C30.5029 67.5436 29.777 67.6836 28.9658 67.6836V71.6836C30.251 71.6836 31.4847 71.459 32.6481 70.9937L31.1625 67.2798ZM28.9658 67.6836C28.1134 67.6836 27.3621 67.5338 26.6899 67.2551L25.1578 70.95C26.3541 71.446 27.6308 71.6836 28.9658 71.6836V67.6836ZM26.7061 67.2619C26.0107 66.9663 25.4214 66.5757 24.9213 66.0923L22.1412 68.9683C23.0083 69.8064 24.0141 70.464 25.1415 70.9432L26.7061 67.2619ZM24.9455 66.1161C24.4767 65.6473 24.0928 65.0793 23.7996 64.3896L20.1183 65.9542C20.5999 67.0874 21.2642 68.0917 22.117 68.9445L24.9455 66.1161ZM23.8159 64.4291C23.5521 63.7695 23.4121 63.0436 23.4121 62.2324H19.4121C19.4121 63.5176 19.6367 64.7513 20.102 65.9147L23.8159 64.4291ZM23.4121 62.2324V54.8496H19.4121V62.2324H23.4121ZM21.4121 56.8496H23.9756V52.8496H21.4121V56.8496ZM21.9756 54.8496V62.1982H25.9756V54.8496H21.9756Z" fill="#00BA8D"/>
<rect x="36" y="49" width="3" height="5" rx="1.5" fill="#00FFC2"/>
<rect x="46" y="32" width="3" height="37" rx="1.5" fill="#00FFC2"/>
<rect x="51" y="40" width="3" height="22" rx="1.5" fill="#00FFC2"/>
<rect x="41" y="38" width="3" height="27" rx="1.5" fill="#00FFC2"/>
<rect x="32" y="25" width="6.59" height="15" rx="3.295" fill="#00BA8D"/>
<path d="M19.1888 52.5871C19.0862 50.6372 20.6395 49 22.592 49C24.4742 49 26 50.5258 26 52.408V58.4533C26 59.9569 24.9936 61.2745 23.543 61.6701L22.0254 62.084C21.1696 62.3174 20.2805 61.8416 20 61L19.6201 59.1006C19.5401 58.7007 19.4892 58.2956 19.4678 57.8883L19.1888 52.5871Z" fill="#00BA8D"/>
</svg>
