<svg width="235" height="235" viewBox="0 0 235 235" fill="none" xmlns="http://www.w3.org/2000/svg">
<circle cx="117.5" cy="117.5" r="117.5" fill="#6CCA97"/>
<g filter="url(#filter0_d_135_90)">
<path d="M69.992 109.816C69.992 110.371 69.9173 110.925 69.768 111.48C69.64 112.035 69.416 112.547 69.096 113.016C68.776 113.464 68.36 113.869 67.848 114.232C67.336 114.573 66.7173 114.829 65.992 115V115.192C66.632 115.299 67.24 115.48 67.816 115.736C68.392 115.992 68.8933 116.344 69.32 116.792C69.7467 117.24 70.0773 117.784 70.312 118.424C70.568 119.064 70.696 119.821 70.696 120.696C70.696 121.848 70.4507 122.851 69.96 123.704C69.4693 124.536 68.808 125.219 67.976 125.752C67.1653 126.285 66.2373 126.68 65.192 126.936C64.1467 127.192 63.0693 127.32 61.96 127.32C61.5973 127.32 61.128 127.32 60.552 127.32C59.9973 127.32 59.3893 127.299 58.728 127.256C58.088 127.235 57.4267 127.192 56.744 127.128C56.0827 127.064 55.4747 126.968 54.92 126.84V104.76C55.3253 104.696 55.784 104.632 56.296 104.568C56.8293 104.504 57.3947 104.451 57.992 104.408C58.5893 104.365 59.1973 104.333 59.816 104.312C60.456 104.291 61.0853 104.28 61.704 104.28C62.7493 104.28 63.7627 104.365 64.744 104.536C65.7467 104.685 66.632 104.963 67.4 105.368C68.1893 105.773 68.8187 106.339 69.288 107.064C69.7573 107.789 69.992 108.707 69.992 109.816ZM61.992 123.704C62.5253 123.704 63.0373 123.64 63.528 123.512C64.04 123.384 64.488 123.192 64.872 122.936C65.256 122.659 65.5653 122.317 65.8 121.912C66.0347 121.507 66.152 121.027 66.152 120.472C66.152 119.768 66.0133 119.213 65.736 118.808C65.4587 118.403 65.096 118.093 64.648 117.88C64.2 117.645 63.6987 117.496 63.144 117.432C62.5893 117.368 62.0347 117.336 61.48 117.336H59.144V123.512C59.2507 123.555 59.4213 123.587 59.656 123.608C59.8907 123.629 60.136 123.651 60.392 123.672C60.6693 123.672 60.9467 123.683 61.224 123.704C61.5227 123.704 61.7787 123.704 61.992 123.704ZM60.552 114.008C60.8507 114.008 61.192 113.997 61.576 113.976C61.9813 113.955 62.312 113.923 62.568 113.88C63.3787 113.624 64.072 113.24 64.648 112.728C65.2453 112.216 65.544 111.544 65.544 110.712C65.544 110.157 65.4373 109.699 65.224 109.336C65.0107 108.973 64.7227 108.685 64.36 108.472C64.0187 108.259 63.624 108.109 63.176 108.024C62.728 107.939 62.2587 107.896 61.768 107.896C61.2133 107.896 60.7013 107.907 60.232 107.928C59.7627 107.949 59.4 107.981 59.144 108.024V114.008H60.552ZM73.8263 104.6H87.1063V108.504H78.2103V113.72H86.3063V117.624H78.2103V123.096H87.2663V127H73.8263V104.6ZM105.713 126.072C105.03 126.563 104.156 126.915 103.089 127.128C102.044 127.341 100.966 127.448 99.857 127.448C98.513 127.448 97.233 127.245 96.017 126.84C94.8223 126.413 93.7663 125.741 92.849 124.824C91.9317 123.885 91.1957 122.68 90.641 121.208C90.1077 119.715 89.841 117.912 89.841 115.8C89.841 113.603 90.1397 111.768 90.737 110.296C91.3557 108.803 92.145 107.608 93.105 106.712C94.0863 105.795 95.1743 105.144 96.369 104.76C97.5637 104.355 98.7583 104.152 99.953 104.152C101.233 104.152 102.31 104.237 103.185 104.408C104.081 104.579 104.817 104.781 105.393 105.016L104.529 108.728C104.038 108.493 103.452 108.323 102.769 108.216C102.108 108.109 101.297 108.056 100.337 108.056C98.5663 108.056 97.137 108.685 96.049 109.944C94.9823 111.203 94.449 113.155 94.449 115.8C94.449 116.952 94.577 118.008 94.833 118.968C95.089 119.907 95.473 120.717 95.985 121.4C96.5183 122.061 97.169 122.584 97.937 122.968C98.7263 123.331 99.633 123.512 100.657 123.512C101.617 123.512 102.428 123.416 103.089 123.224C103.75 123.032 104.326 122.787 104.817 122.488L105.713 126.072ZM108.42 104.6H121.7V108.504H112.804V113.72H120.9V117.624H112.804V123.096H121.86V127H108.42V104.6ZM109.124 101.464C109.124 100.909 109.316 100.461 109.7 100.12C110.084 99.7787 110.703 99.608 111.556 99.608C112.388 99.608 112.996 99.7787 113.38 100.12C113.764 100.461 113.956 100.909 113.956 101.464C113.956 102.019 113.764 102.467 113.38 102.808C112.996 103.128 112.388 103.288 111.556 103.288C110.703 103.288 110.084 103.128 109.7 102.808C109.316 102.467 109.124 102.019 109.124 101.464ZM115.972 101.464C115.972 100.909 116.164 100.461 116.548 100.12C116.932 99.7787 117.54 99.608 118.372 99.608C119.225 99.608 119.844 99.7787 120.228 100.12C120.612 100.461 120.804 100.909 120.804 101.464C120.804 102.019 120.612 102.467 120.228 102.808C119.844 103.128 119.225 103.288 118.372 103.288C117.54 103.288 116.932 103.128 116.548 102.808C116.164 102.467 115.972 102.019 115.972 101.464ZM136.851 108.504H132.083C131.997 110.531 131.901 112.376 131.795 114.04C131.688 115.704 131.539 117.208 131.347 118.552C131.176 119.875 130.941 121.048 130.643 122.072C130.344 123.096 129.96 123.981 129.491 124.728C129.192 125.219 128.851 125.624 128.467 125.944C128.104 126.264 127.72 126.52 127.315 126.712C126.909 126.904 126.504 127.032 126.099 127.096C125.715 127.181 125.352 127.224 125.011 127.224C124.52 127.224 124.104 127.181 123.763 127.096C123.443 127.032 123.123 126.925 122.803 126.776L123.283 123C123.411 123.043 123.539 123.075 123.667 123.096C123.795 123.117 123.923 123.128 124.051 123.128C124.392 123.128 124.723 123.043 125.043 122.872C125.384 122.701 125.672 122.413 125.907 122.008C126.227 121.539 126.504 120.856 126.739 119.96C126.973 119.043 127.176 117.88 127.347 116.472C127.539 115.064 127.688 113.389 127.795 111.448C127.901 109.485 127.976 107.203 128.019 104.6H141.235V127H136.851V108.504ZM144.372 115.8C144.372 112.067 145.194 109.197 146.836 107.192C148.479 105.165 150.826 104.152 153.876 104.152C155.476 104.152 156.874 104.429 158.068 104.984C159.263 105.539 160.255 106.328 161.044 107.352C161.834 108.376 162.42 109.603 162.804 111.032C163.188 112.461 163.38 114.051 163.38 115.8C163.38 119.533 162.548 122.413 160.884 124.44C159.242 126.445 156.906 127.448 153.876 127.448C152.255 127.448 150.847 127.171 149.652 126.616C148.458 126.061 147.466 125.272 146.676 124.248C145.908 123.224 145.332 121.997 144.948 120.568C144.564 119.139 144.372 117.549 144.372 115.8ZM148.98 115.8C148.98 116.931 149.076 117.976 149.268 118.936C149.46 119.875 149.748 120.685 150.132 121.368C150.538 122.051 151.05 122.584 151.668 122.968C152.287 123.352 153.023 123.544 153.876 123.544C155.434 123.544 156.639 122.936 157.492 121.72C158.346 120.504 158.772 118.531 158.772 115.8C158.772 114.712 158.676 113.699 158.484 112.76C158.314 111.821 158.036 111 157.652 110.296C157.268 109.592 156.767 109.048 156.148 108.664C155.53 108.259 154.772 108.056 153.876 108.056C152.319 108.056 151.114 108.685 150.26 109.944C149.407 111.181 148.98 113.133 148.98 115.8ZM166.514 104.6H179.794V108.504H170.898V113.72H178.994V117.624H170.898V123.096H179.954V127H166.514V104.6Z" fill="#F7F7F7"/>
</g>
<defs>
<filter id="filter0_d_135_90" x="50.9199" y="99.608" width="133.034" height="35.84" filterUnits="userSpaceOnUse" color-interpolation-filters="sRGB">
<feFlood flood-opacity="0" result="BackgroundImageFix"/>
<feColorMatrix in="SourceAlpha" type="matrix" values="0 0 0 0 0 0 0 0 0 0 0 0 0 0 0 0 0 0 127 0" result="hardAlpha"/>
<feOffset dy="4"/>
<feGaussianBlur stdDeviation="2"/>
<feComposite in2="hardAlpha" operator="out"/>
<feColorMatrix type="matrix" values="0 0 0 0 0 0 0 0 0 0 0 0 0 0 0 0 0 0 0.49 0"/>
<feBlend mode="normal" in2="BackgroundImageFix" result="effect1_dropShadow_135_90"/>
<feBlend mode="normal" in="SourceGraphic" in2="effect1_dropShadow_135_90" result="shape"/>
</filter>
</defs>
</svg>
