<svg width="235" height="235" viewBox="0 0 235 235" fill="none" xmlns="http://www.w3.org/2000/svg">
<circle cx="117.5" cy="117.5" r="117.5" fill="#6C9DCA"/>
<g filter="url(#filter0_d_135_92)">
<path d="M58.944 108.504H50.304V127H45.92V104.6H58.944V108.504ZM60.5763 104.824C61.4723 104.653 62.4536 104.525 63.5203 104.44C64.6083 104.333 65.6856 104.28 66.7523 104.28C67.8616 104.28 68.9709 104.376 70.0803 104.568C71.2109 104.739 72.2243 105.101 73.1203 105.656C74.0163 106.189 74.7416 106.947 75.2963 107.928C75.8723 108.888 76.1603 110.147 76.1603 111.704C76.1603 113.112 75.9149 114.307 75.4243 115.288C74.9336 116.248 74.2829 117.037 73.4723 117.656C72.6616 118.275 71.7336 118.723 70.6883 119C69.6643 119.277 68.5976 119.416 67.4883 119.416C67.3816 119.416 67.2109 119.416 66.9763 119.416C66.7416 119.416 66.4963 119.416 66.2403 119.416C65.9843 119.395 65.7283 119.373 65.4723 119.352C65.2376 119.331 65.0669 119.309 64.9603 119.288V127H60.5763V104.824ZM67.1042 108.056C66.6776 108.056 66.2723 108.077 65.8883 108.12C65.5043 108.141 65.1949 108.173 64.9603 108.216V115.48C65.0456 115.501 65.1736 115.523 65.3443 115.544C65.5149 115.565 65.6963 115.587 65.8883 115.608C66.0803 115.608 66.2616 115.608 66.4323 115.608C66.6243 115.608 66.7629 115.608 66.8483 115.608C67.4243 115.608 67.9896 115.555 68.5443 115.448C69.1203 115.341 69.6323 115.149 70.0803 114.872C70.5283 114.573 70.8803 114.168 71.1363 113.656C71.4136 113.144 71.5523 112.472 71.5523 111.64C71.5523 110.936 71.4243 110.36 71.1683 109.912C70.9123 109.443 70.5709 109.069 70.1443 108.792C69.7389 108.515 69.2696 108.323 68.7363 108.216C68.2029 108.109 67.6589 108.056 67.1042 108.056ZM85.6892 114.488L86.3293 117.4H86.5213L87.0333 114.392L90.3933 104.6H94.9053L88.9533 120.088C88.4839 121.304 88.0253 122.36 87.5773 123.256C87.1506 124.152 86.6813 124.899 86.1693 125.496C85.6786 126.072 85.1239 126.509 84.5052 126.808C83.8866 127.085 83.1613 127.224 82.3293 127.224C81.6253 127.224 81.0493 127.171 80.6013 127.064C80.1746 126.979 79.7053 126.776 79.1933 126.456L80.3133 122.904C80.6759 123.096 81.0066 123.213 81.3053 123.256C81.6039 123.299 81.9239 123.32 82.2653 123.32C83.2679 123.32 83.9719 122.531 84.3773 120.952L75.9932 104.6H81.1453L85.6892 114.488ZM110.619 126.072C109.937 126.563 109.062 126.915 107.995 127.128C106.95 127.341 105.873 127.448 104.763 127.448C103.419 127.448 102.139 127.245 100.923 126.84C99.7286 126.413 98.6726 125.741 97.7552 124.824C96.8379 123.885 96.1019 122.68 95.5473 121.208C95.0139 119.715 94.7473 117.912 94.7473 115.8C94.7473 113.603 95.0459 111.768 95.6432 110.296C96.2619 108.803 97.0513 107.608 98.0113 106.712C98.9926 105.795 100.081 105.144 101.275 104.76C102.47 104.355 103.665 104.152 104.859 104.152C106.139 104.152 107.217 104.237 108.091 104.408C108.987 104.579 109.723 104.781 110.299 105.016L109.435 108.728C108.945 108.493 108.358 108.323 107.675 108.216C107.014 108.109 106.203 108.056 105.243 108.056C103.473 108.056 102.043 108.685 100.955 109.944C99.8886 111.203 99.3553 113.155 99.3553 115.8C99.3553 116.952 99.4833 118.008 99.7393 118.968C99.9953 119.907 100.379 120.717 100.891 121.4C101.425 122.061 102.075 122.584 102.843 122.968C103.633 123.331 104.539 123.512 105.563 123.512C106.523 123.512 107.334 123.416 107.995 123.224C108.657 123.032 109.233 122.787 109.723 122.488L110.619 126.072ZM127.824 108.504H121.296V127H116.912V108.504H110.352V104.6H127.824V108.504ZM142.684 117.624H134.492V127H130.108V104.6H134.492V113.72H142.684V104.6H147.068V127H142.684V117.624ZM150.247 115.8C150.247 112.067 151.069 109.197 152.711 107.192C154.354 105.165 156.701 104.152 159.751 104.152C161.351 104.152 162.749 104.429 163.943 104.984C165.138 105.539 166.13 106.328 166.919 107.352C167.709 108.376 168.295 109.603 168.679 111.032C169.063 112.461 169.255 114.051 169.255 115.8C169.255 119.533 168.423 122.413 166.759 124.44C165.117 126.445 162.781 127.448 159.751 127.448C158.13 127.448 156.722 127.171 155.527 126.616C154.333 126.061 153.341 125.272 152.551 124.248C151.783 123.224 151.207 121.997 150.823 120.568C150.439 119.139 150.247 117.549 150.247 115.8ZM154.855 115.8C154.855 116.931 154.951 117.976 155.143 118.936C155.335 119.875 155.623 120.685 156.007 121.368C156.413 122.051 156.925 122.584 157.543 122.968C158.162 123.352 158.898 123.544 159.751 123.544C161.309 123.544 162.514 122.936 163.367 121.72C164.221 120.504 164.647 118.531 164.647 115.8C164.647 114.712 164.551 113.699 164.359 112.76C164.189 111.821 163.911 111 163.527 110.296C163.143 109.592 162.642 109.048 162.023 108.664C161.405 108.259 160.647 108.056 159.751 108.056C158.194 108.056 156.989 108.685 156.135 109.944C155.282 111.181 154.855 113.133 154.855 115.8ZM172.389 104.6H185.669V108.504H176.773V113.72H184.869V117.624H176.773V123.096H185.829V127H172.389V104.6Z" fill="#F7F7F7"/>
</g>
<defs>
<filter id="filter0_d_135_92" x="41.9199" y="104.152" width="147.909" height="31.296" filterUnits="userSpaceOnUse" color-interpolation-filters="sRGB">
<feFlood flood-opacity="0" result="BackgroundImageFix"/>
<feColorMatrix in="SourceAlpha" type="matrix" values="0 0 0 0 0 0 0 0 0 0 0 0 0 0 0 0 0 0 127 0" result="hardAlpha"/>
<feOffset dy="4"/>
<feGaussianBlur stdDeviation="2"/>
<feComposite in2="hardAlpha" operator="out"/>
<feColorMatrix type="matrix" values="0 0 0 0 0 0 0 0 0 0 0 0 0 0 0 0 0 0 0.49 0"/>
<feBlend mode="normal" in2="BackgroundImageFix" result="effect1_dropShadow_135_92"/>
<feBlend mode="normal" in="SourceGraphic" in2="effect1_dropShadow_135_92" result="shape"/>
</filter>
</defs>
</svg>
