<svg width="235" height="235" viewBox="0 0 235 235" fill="none" xmlns="http://www.w3.org/2000/svg">
<circle cx="117.5" cy="117.5" r="117.5" fill="#79CA6C"/>
<g filter="url(#filter0_d_135_95)">
<path d="M92.632 108.504H87.864C87.7787 110.531 87.6827 112.376 87.576 114.04C87.4693 115.704 87.32 117.208 87.128 118.552C86.9573 119.875 86.7227 121.048 86.424 122.072C86.1253 123.096 85.7413 123.981 85.272 124.728C84.9733 125.219 84.632 125.624 84.248 125.944C83.8853 126.264 83.5013 126.52 83.096 126.712C82.6907 126.904 82.2853 127.032 81.88 127.096C81.496 127.181 81.1333 127.224 80.792 127.224C80.3013 127.224 79.8853 127.181 79.544 127.096C79.224 127.032 78.904 126.925 78.584 126.776L79.064 123C79.192 123.043 79.32 123.075 79.448 123.096C79.576 123.117 79.704 123.128 79.832 123.128C80.1733 123.128 80.504 123.043 80.824 122.872C81.1653 122.701 81.4533 122.413 81.688 122.008C82.008 121.539 82.2853 120.856 82.52 119.96C82.7547 119.043 82.9573 117.88 83.128 116.472C83.32 115.064 83.4693 113.389 83.576 111.448C83.6827 109.485 83.7573 107.203 83.8 104.6H97.016V127H92.632V108.504ZM100.858 104.6H114.138V108.504H105.242V113.72H113.338V117.624H105.242V123.096H114.298V127H100.858V104.6ZM133.48 108.504H126.952V127H122.568V108.504H116.008V104.6H133.48V108.504ZM133.81 115.8C133.81 112.067 134.631 109.197 136.274 107.192C137.916 105.165 140.263 104.152 143.314 104.152C144.914 104.152 146.311 104.429 147.506 104.984C148.7 105.539 149.692 106.328 150.482 107.352C151.271 108.376 151.858 109.603 152.242 111.032C152.626 112.461 152.818 114.051 152.818 115.8C152.818 119.533 151.986 122.413 150.322 124.44C148.679 126.445 146.343 127.448 143.314 127.448C141.692 127.448 140.284 127.171 139.09 126.616C137.895 126.061 136.903 125.272 136.114 124.248C135.346 123.224 134.77 121.997 134.386 120.568C134.002 119.139 133.81 117.549 133.81 115.8ZM138.418 115.8C138.418 116.931 138.514 117.976 138.706 118.936C138.898 119.875 139.186 120.685 139.57 121.368C139.975 122.051 140.487 122.584 141.106 122.968C141.724 123.352 142.46 123.544 143.314 123.544C144.871 123.544 146.076 122.936 146.93 121.72C147.783 120.504 148.21 118.531 148.21 115.8C148.21 114.712 148.114 113.699 147.922 112.76C147.751 111.821 147.474 111 147.09 110.296C146.706 109.592 146.204 109.048 145.586 108.664C144.967 108.259 144.21 108.056 143.314 108.056C141.756 108.056 140.551 108.685 139.698 109.944C138.844 111.181 138.418 113.133 138.418 115.8Z" fill="#F7F7F7"/>
</g>
<defs>
<filter id="filter0_d_135_95" x="74.584" y="104.152" width="82.2339" height="31.296" filterUnits="userSpaceOnUse" color-interpolation-filters="sRGB">
<feFlood flood-opacity="0" result="BackgroundImageFix"/>
<feColorMatrix in="SourceAlpha" type="matrix" values="0 0 0 0 0 0 0 0 0 0 0 0 0 0 0 0 0 0 127 0" result="hardAlpha"/>
<feOffset dy="4"/>
<feGaussianBlur stdDeviation="2"/>
<feComposite in2="hardAlpha" operator="out"/>
<feColorMatrix type="matrix" values="0 0 0 0 0 0 0 0 0 0 0 0 0 0 0 0 0 0 0.49 0"/>
<feBlend mode="normal" in2="BackgroundImageFix" result="effect1_dropShadow_135_95"/>
<feBlend mode="normal" in="SourceGraphic" in2="effect1_dropShadow_135_95" result="shape"/>
</filter>
</defs>
</svg>
