<svg width="235" height="235" viewBox="0 0 235 235" fill="none" xmlns="http://www.w3.org/2000/svg">
<circle cx="117.5" cy="117.5" r="117.5" fill="#CA6C6C"/>
<g filter="url(#filter0_d_135_89)">
<path d="M31.96 122.04H25.08L23.384 127H19L27.064 104.44H30.296L38.36 127H33.752L31.96 122.04ZM26.2 118.52H31L29.336 113.528L28.664 110.008H28.504L27.832 113.56L26.2 118.52ZM53.319 108.504H44.679V127H40.295V104.6H53.319V108.504ZM54.9513 104.824C55.8473 104.653 56.8286 104.525 57.8953 104.44C58.9833 104.333 60.0606 104.28 61.1273 104.28C62.2366 104.28 63.3459 104.376 64.4553 104.568C65.5859 104.739 66.5993 105.101 67.4953 105.656C68.3913 106.189 69.1166 106.947 69.6713 107.928C70.2473 108.888 70.5353 110.147 70.5353 111.704C70.5353 113.112 70.2899 114.307 69.7993 115.288C69.3086 116.248 68.6579 117.037 67.8473 117.656C67.0366 118.275 66.1086 118.723 65.0633 119C64.0393 119.277 62.9726 119.416 61.8633 119.416C61.7566 119.416 61.5859 119.416 61.3513 119.416C61.1166 119.416 60.8713 119.416 60.6153 119.416C60.3593 119.395 60.1033 119.373 59.8473 119.352C59.6126 119.331 59.4419 119.309 59.3353 119.288V127H54.9513V104.824ZM61.4792 108.056C61.0526 108.056 60.6473 108.077 60.2633 108.12C59.8793 108.141 59.5699 108.173 59.3353 108.216V115.48C59.4206 115.501 59.5486 115.523 59.7193 115.544C59.8899 115.565 60.0713 115.587 60.2633 115.608C60.4553 115.608 60.6366 115.608 60.8073 115.608C60.9993 115.608 61.1379 115.608 61.2233 115.608C61.7993 115.608 62.3646 115.555 62.9193 115.448C63.4953 115.341 64.0073 115.149 64.4553 114.872C64.9033 114.573 65.2553 114.168 65.5113 113.656C65.7886 113.144 65.9273 112.472 65.9273 111.64C65.9273 110.936 65.7993 110.36 65.5433 109.912C65.2873 109.443 64.9459 109.069 64.5193 108.792C64.1139 108.515 63.6446 108.323 63.1113 108.216C62.5779 108.109 62.0339 108.056 61.4792 108.056ZM73.2638 104.6H86.5438V108.504H77.6478V113.72H85.7438V117.624H77.6478V123.096H86.7038V127H73.2638V104.6ZM107.359 115.384L107.839 110.936H107.647L106.271 114.52L101.503 122.872H100.095L95.0705 114.488L93.6625 110.936H93.5025L94.1425 115.352V127H89.9825V104.6H93.9825L99.9665 114.84L101.023 117.4H101.151L102.111 114.776L107.775 104.6H111.743V127H107.359V115.384ZM128.632 114.584L128.888 111.672H128.728L127.224 114.68L118.872 127H115.576V104.6H119.96V116.792L119.64 119.8H119.832L121.4 116.696L129.752 104.6H133.016V127H128.632V114.584ZM151.961 109.816C151.961 110.371 151.886 110.925 151.737 111.48C151.609 112.035 151.385 112.547 151.065 113.016C150.745 113.464 150.329 113.869 149.817 114.232C149.305 114.573 148.686 114.829 147.961 115V115.192C148.601 115.299 149.209 115.48 149.785 115.736C150.361 115.992 150.862 116.344 151.289 116.792C151.715 117.24 152.046 117.784 152.281 118.424C152.537 119.064 152.665 119.821 152.665 120.696C152.665 121.848 152.419 122.851 151.929 123.704C151.438 124.536 150.777 125.219 149.945 125.752C149.134 126.285 148.206 126.68 147.161 126.936C146.115 127.192 145.038 127.32 143.929 127.32C143.566 127.32 143.097 127.32 142.521 127.32C141.966 127.32 141.358 127.299 140.697 127.256C140.057 127.235 139.395 127.192 138.713 127.128C138.051 127.064 137.443 126.968 136.889 126.84V104.76C137.294 104.696 137.753 104.632 138.265 104.568C138.798 104.504 139.363 104.451 139.961 104.408C140.558 104.365 141.166 104.333 141.785 104.312C142.425 104.291 143.054 104.28 143.673 104.28C144.718 104.28 145.731 104.365 146.713 104.536C147.715 104.685 148.601 104.963 149.369 105.368C150.158 105.773 150.787 106.339 151.257 107.064C151.726 107.789 151.961 108.707 151.961 109.816ZM143.961 123.704C144.494 123.704 145.006 123.64 145.497 123.512C146.009 123.384 146.457 123.192 146.841 122.936C147.225 122.659 147.534 122.317 147.769 121.912C148.003 121.507 148.121 121.027 148.121 120.472C148.121 119.768 147.982 119.213 147.705 118.808C147.427 118.403 147.065 118.093 146.617 117.88C146.169 117.645 145.667 117.496 145.113 117.432C144.558 117.368 144.003 117.336 143.449 117.336H141.113V123.512C141.219 123.555 141.39 123.587 141.625 123.608C141.859 123.629 142.105 123.651 142.361 123.672C142.638 123.672 142.915 123.683 143.193 123.704C143.491 123.704 143.747 123.704 143.961 123.704ZM142.521 114.008C142.819 114.008 143.161 113.997 143.545 113.976C143.95 113.955 144.281 113.923 144.537 113.88C145.347 113.624 146.041 113.24 146.617 112.728C147.214 112.216 147.513 111.544 147.513 110.712C147.513 110.157 147.406 109.699 147.193 109.336C146.979 108.973 146.691 108.685 146.329 108.472C145.987 108.259 145.593 108.109 145.145 108.024C144.697 107.939 144.227 107.896 143.737 107.896C143.182 107.896 142.67 107.907 142.201 107.928C141.731 107.949 141.369 107.981 141.113 108.024V114.008H142.521ZM168.371 117.624H160.179V127H155.795V104.6H160.179V113.72H168.371V104.6H172.755V127H168.371V117.624ZM175.935 115.8C175.935 112.067 176.756 109.197 178.399 107.192C180.041 105.165 182.388 104.152 185.439 104.152C187.039 104.152 188.436 104.429 189.631 104.984C190.825 105.539 191.817 106.328 192.607 107.352C193.396 108.376 193.983 109.603 194.367 111.032C194.751 112.461 194.943 114.051 194.943 115.8C194.943 119.533 194.111 122.413 192.447 124.44C190.804 126.445 188.468 127.448 185.439 127.448C183.817 127.448 182.409 127.171 181.215 126.616C180.02 126.061 179.028 125.272 178.239 124.248C177.471 123.224 176.895 121.997 176.511 120.568C176.127 119.139 175.935 117.549 175.935 115.8ZM180.543 115.8C180.543 116.931 180.639 117.976 180.831 118.936C181.023 119.875 181.311 120.685 181.695 121.368C182.1 122.051 182.612 122.584 183.231 122.968C183.849 123.352 184.585 123.544 185.439 123.544C186.996 123.544 188.201 122.936 189.055 121.72C189.908 120.504 190.335 118.531 190.335 115.8C190.335 114.712 190.239 113.699 190.047 112.76C189.876 111.821 189.599 111 189.215 110.296C188.831 109.592 188.329 109.048 187.711 108.664C187.092 108.259 186.335 108.056 185.439 108.056C183.881 108.056 182.676 108.685 181.823 109.944C180.969 111.181 180.543 113.133 180.543 115.8ZM198.076 104.6H211.356V108.504H202.46V113.72H210.556V117.624H202.46V123.096H211.516V127H198.076V104.6Z" fill="#F7F7F7"/>
</g>
<defs>
<filter id="filter0_d_135_89" x="15" y="104.152" width="200.516" height="31.296" filterUnits="userSpaceOnUse" color-interpolation-filters="sRGB">
<feFlood flood-opacity="0" result="BackgroundImageFix"/>
<feColorMatrix in="SourceAlpha" type="matrix" values="0 0 0 0 0 0 0 0 0 0 0 0 0 0 0 0 0 0 127 0" result="hardAlpha"/>
<feOffset dy="4"/>
<feGaussianBlur stdDeviation="2"/>
<feComposite in2="hardAlpha" operator="out"/>
<feColorMatrix type="matrix" values="0 0 0 0 0 0 0 0 0 0 0 0 0 0 0 0 0 0 0.49 0"/>
<feBlend mode="normal" in2="BackgroundImageFix" result="effect1_dropShadow_135_89"/>
<feBlend mode="normal" in="SourceGraphic" in2="effect1_dropShadow_135_89" result="shape"/>
</filter>
</defs>
</svg>
