<svg width="235" height="235" viewBox="0 0 235 235" fill="none" xmlns="http://www.w3.org/2000/svg">
<circle cx="117.5" cy="117.5" r="117.5" fill="#CAC66C"/>
<g filter="url(#filter0_d_135_96)">
<path d="M69.216 115.8C69.216 112.067 70.0373 109.197 71.68 107.192C73.3227 105.165 75.6693 104.152 78.72 104.152C80.32 104.152 81.7173 104.429 82.912 104.984C84.1067 105.539 85.0987 106.328 85.888 107.352C86.6773 108.376 87.264 109.603 87.648 111.032C88.032 112.461 88.224 114.051 88.224 115.8C88.224 119.533 87.392 122.413 85.728 124.44C84.0853 126.445 81.7493 127.448 78.72 127.448C77.0987 127.448 75.6907 127.171 74.496 126.616C73.3013 126.061 72.3093 125.272 71.52 124.248C70.752 123.224 70.176 121.997 69.792 120.568C69.408 119.139 69.216 117.549 69.216 115.8ZM73.824 115.8C73.824 116.931 73.92 117.976 74.112 118.936C74.304 119.875 74.592 120.685 74.976 121.368C75.3813 122.051 75.8933 122.584 76.512 122.968C77.1307 123.352 77.8667 123.544 78.72 123.544C80.2773 123.544 81.4827 122.936 82.336 121.72C83.1893 120.504 83.616 118.531 83.616 115.8C83.616 114.712 83.52 113.699 83.328 112.76C83.1573 111.821 82.88 111 82.496 110.296C82.112 109.592 81.6107 109.048 80.992 108.664C80.3733 108.259 79.616 108.056 78.72 108.056C77.1627 108.056 75.9573 108.685 75.104 109.944C74.2507 111.181 73.824 113.133 73.824 115.8ZM106.526 126.072C105.843 126.563 104.968 126.915 103.902 127.128C102.856 127.341 101.779 127.448 100.67 127.448C99.3255 127.448 98.0455 127.245 96.8295 126.84C95.6348 126.413 94.5788 125.741 93.6615 124.824C92.7442 123.885 92.0082 122.68 91.4535 121.208C90.9202 119.715 90.6535 117.912 90.6535 115.8C90.6535 113.603 90.9522 111.768 91.5495 110.296C92.1682 108.803 92.9575 107.608 93.9175 106.712C94.8988 105.795 95.9868 105.144 97.1815 104.76C98.3762 104.355 99.5708 104.152 100.766 104.152C102.046 104.152 103.123 104.237 103.998 104.408C104.894 104.579 105.63 104.781 106.206 105.016L105.342 108.728C104.851 108.493 104.264 108.323 103.582 108.216C102.92 108.109 102.11 108.056 101.15 108.056C99.3788 108.056 97.9495 108.685 96.8615 109.944C95.7948 111.203 95.2615 113.155 95.2615 115.8C95.2615 116.952 95.3895 118.008 95.6455 118.968C95.9015 119.907 96.2855 120.717 96.7975 121.4C97.3308 122.061 97.9815 122.584 98.7495 122.968C99.5388 123.331 100.446 123.512 101.47 123.512C102.43 123.512 103.24 123.416 103.902 123.224C104.563 123.032 105.139 122.787 105.63 122.488L106.526 126.072ZM109.233 104.6H122.513V108.504H113.617V113.72H121.713V117.624H113.617V123.096H122.673V127H109.233V104.6ZM138.527 117.624H130.335V127H125.951V104.6H130.335V113.72H138.527V104.6H142.911V127H138.527V117.624ZM146.795 104.6H151.179V112.632C151.286 112.611 151.456 112.589 151.691 112.568C151.947 112.525 152.214 112.493 152.491 112.472C152.79 112.451 153.088 112.429 153.387 112.408C153.686 112.387 153.963 112.376 154.219 112.376C155.264 112.376 156.278 112.483 157.259 112.696C158.24 112.909 159.104 113.293 159.851 113.848C160.619 114.381 161.227 115.117 161.675 116.056C162.123 116.973 162.347 118.147 162.347 119.576C162.347 122.136 161.547 124.067 159.947 125.368C158.368 126.669 156.096 127.32 153.131 127.32C152.832 127.32 152.427 127.309 151.915 127.288C151.424 127.288 150.88 127.267 150.283 127.224C149.686 127.181 149.078 127.128 148.459 127.064C147.862 127 147.307 126.904 146.795 126.776V104.6ZM153.355 123.416C153.952 123.416 154.518 123.363 155.051 123.256C155.584 123.128 156.054 122.925 156.459 122.648C156.864 122.349 157.174 121.965 157.387 121.496C157.622 121.027 157.739 120.451 157.739 119.768C157.739 119.043 157.611 118.456 157.355 118.008C157.12 117.539 156.8 117.176 156.395 116.92C156.011 116.664 155.552 116.493 155.019 116.408C154.486 116.323 153.931 116.28 153.355 116.28C153.206 116.28 153.024 116.291 152.811 116.312C152.598 116.333 152.384 116.355 152.171 116.376C151.958 116.397 151.755 116.429 151.563 116.472C151.392 116.493 151.264 116.515 151.179 116.536V123.224C151.414 123.288 151.723 123.341 152.107 123.384C152.512 123.405 152.928 123.416 153.355 123.416Z" fill="#F7F7F7"/>
</g>
<defs>
<filter id="filter0_d_135_96" x="65.2158" y="104.152" width="101.131" height="31.296" filterUnits="userSpaceOnUse" color-interpolation-filters="sRGB">
<feFlood flood-opacity="0" result="BackgroundImageFix"/>
<feColorMatrix in="SourceAlpha" type="matrix" values="0 0 0 0 0 0 0 0 0 0 0 0 0 0 0 0 0 0 127 0" result="hardAlpha"/>
<feOffset dy="4"/>
<feGaussianBlur stdDeviation="2"/>
<feComposite in2="hardAlpha" operator="out"/>
<feColorMatrix type="matrix" values="0 0 0 0 0 0 0 0 0 0 0 0 0 0 0 0 0 0 0.49 0"/>
<feBlend mode="normal" in2="BackgroundImageFix" result="effect1_dropShadow_135_96"/>
<feBlend mode="normal" in="SourceGraphic" in2="effect1_dropShadow_135_96" result="shape"/>
</filter>
</defs>
</svg>
