<svg width="235" height="235" viewBox="0 0 235 235" fill="none" xmlns="http://www.w3.org/2000/svg">
<circle cx="117.5" cy="117.5" r="117.5" fill="#CA6C99"/>
<g filter="url(#filter0_d_135_91)">
<path d="M44.088 126.072C43.4053 126.563 42.5307 126.915 41.464 127.128C40.4187 127.341 39.3413 127.448 38.232 127.448C36.888 127.448 35.608 127.245 34.392 126.84C33.1973 126.413 32.1413 125.741 31.224 124.824C30.3067 123.885 29.5707 122.68 29.016 121.208C28.4827 119.715 28.216 117.912 28.216 115.8C28.216 113.603 28.5147 111.768 29.112 110.296C29.7307 108.803 30.52 107.608 31.48 106.712C32.4613 105.795 33.5493 105.144 34.744 104.76C35.9387 104.355 37.1333 104.152 38.328 104.152C39.608 104.152 40.6853 104.237 41.56 104.408C42.456 104.579 43.192 104.781 43.768 105.016L42.904 108.728C42.4133 108.493 41.8267 108.323 41.144 108.216C40.4827 108.109 39.672 108.056 38.712 108.056C36.9413 108.056 35.512 108.685 34.424 109.944C33.3573 111.203 32.824 113.155 32.824 115.8C32.824 116.952 32.952 118.008 33.208 118.968C33.464 119.907 33.848 120.717 34.36 121.4C34.8933 122.061 35.544 122.584 36.312 122.968C37.1013 123.331 38.008 123.512 39.032 123.512C39.992 123.512 40.8027 123.416 41.464 123.224C42.1253 123.032 42.7013 122.787 43.192 122.488L44.088 126.072ZM59.019 108.504H51.179V127H46.795V104.6H63.403V127H59.019V108.504ZM66.5285 115.8C66.5285 112.067 67.3498 109.197 68.9925 107.192C70.6352 105.165 72.9818 104.152 76.0325 104.152C77.6325 104.152 79.0298 104.429 80.2245 104.984C81.4192 105.539 82.4112 106.328 83.2005 107.352C83.9898 108.376 84.5765 109.603 84.9605 111.032C85.3445 112.461 85.5365 114.051 85.5365 115.8C85.5365 119.533 84.7045 122.413 83.0405 124.44C81.3978 126.445 79.0618 127.448 76.0325 127.448C74.4112 127.448 73.0032 127.171 71.8085 126.616C70.6138 126.061 69.6218 125.272 68.8325 124.248C68.0645 123.224 67.4885 121.997 67.1045 120.568C66.7205 119.139 66.5285 117.549 66.5285 115.8ZM71.1365 115.8C71.1365 116.931 71.2325 117.976 71.4245 118.936C71.6165 119.875 71.9045 120.685 72.2885 121.368C72.6938 122.051 73.2058 122.584 73.8245 122.968C74.4432 123.352 75.1792 123.544 76.0325 123.544C77.5898 123.544 78.7952 122.936 79.6485 121.72C80.5018 120.504 80.9285 118.531 80.9285 115.8C80.9285 114.712 80.8325 113.699 80.6405 112.76C80.4698 111.821 80.1925 111 79.8085 110.296C79.4245 109.592 78.9232 109.048 78.3045 108.664C77.6858 108.259 76.9285 108.056 76.0325 108.056C74.4752 108.056 73.2698 108.685 72.4165 109.944C71.5632 111.181 71.1365 113.133 71.1365 115.8ZM94.206 117.432H93.054V127H88.67V104.6H93.054V114.52L94.078 114.072L100.254 104.6H105.246L98.718 114.008L96.99 115.224L98.782 116.472L106.238 127H100.83L94.206 117.432ZM106.966 115.8C106.966 112.067 107.787 109.197 109.43 107.192C111.073 105.165 113.419 104.152 116.47 104.152C118.07 104.152 119.467 104.429 120.662 104.984C121.857 105.539 122.849 106.328 123.638 107.352C124.427 108.376 125.014 109.603 125.398 111.032C125.782 112.461 125.974 114.051 125.974 115.8C125.974 119.533 125.142 122.413 123.478 124.44C121.835 126.445 119.499 127.448 116.47 127.448C114.849 127.448 113.441 127.171 112.246 126.616C111.051 126.061 110.059 125.272 109.27 124.248C108.502 123.224 107.926 121.997 107.542 120.568C107.158 119.139 106.966 117.549 106.966 115.8ZM111.574 115.8C111.574 116.931 111.67 117.976 111.862 118.936C112.054 119.875 112.342 120.685 112.726 121.368C113.131 122.051 113.643 122.584 114.262 122.968C114.881 123.352 115.617 123.544 116.47 123.544C118.027 123.544 119.233 122.936 120.086 121.72C120.939 120.504 121.366 118.531 121.366 115.8C121.366 114.712 121.27 113.699 121.078 112.76C120.907 111.821 120.63 111 120.246 110.296C119.862 109.592 119.361 109.048 118.742 108.664C118.123 108.259 117.366 108.056 116.47 108.056C114.913 108.056 113.707 108.685 112.854 109.944C112.001 111.181 111.574 113.133 111.574 115.8ZM142.164 114.584L142.42 111.672H142.26L140.756 114.68L132.404 127H129.108V104.6H133.492V116.792L133.172 119.8H133.364L134.932 116.696L143.284 104.6H146.548V127H142.164V114.584ZM135.924 99.032C136.009 99.7147 136.254 100.205 136.66 100.504C137.086 100.803 137.63 100.952 138.292 100.952C139.721 100.952 140.51 100.323 140.66 99.064L144.212 99.608C143.977 100.952 143.358 101.933 142.356 102.552C141.374 103.171 140.009 103.48 138.26 103.48C137.385 103.48 136.585 103.416 135.86 103.288C135.134 103.16 134.494 102.957 133.94 102.68C133.406 102.381 132.958 101.987 132.596 101.496C132.254 101.005 132.041 100.397 131.956 99.672L135.924 99.032ZM162.996 117.624H154.804V127H150.42V104.6H154.804V113.72H162.996V104.6H167.38V127H162.996V117.624ZM170.56 115.8C170.56 112.067 171.381 109.197 173.024 107.192C174.666 105.165 177.013 104.152 180.064 104.152C181.664 104.152 183.061 104.429 184.256 104.984C185.45 105.539 186.442 106.328 187.232 107.352C188.021 108.376 188.608 109.603 188.992 111.032C189.376 112.461 189.568 114.051 189.568 115.8C189.568 119.533 188.736 122.413 187.072 124.44C185.429 126.445 183.093 127.448 180.064 127.448C178.442 127.448 177.034 127.171 175.84 126.616C174.645 126.061 173.653 125.272 172.864 124.248C172.096 123.224 171.52 121.997 171.136 120.568C170.752 119.139 170.56 117.549 170.56 115.8ZM175.168 115.8C175.168 116.931 175.264 117.976 175.456 118.936C175.648 119.875 175.936 120.685 176.32 121.368C176.725 122.051 177.237 122.584 177.856 122.968C178.474 123.352 179.21 123.544 180.064 123.544C181.621 123.544 182.826 122.936 183.68 121.72C184.533 120.504 184.96 118.531 184.96 115.8C184.96 114.712 184.864 113.699 184.672 112.76C184.501 111.821 184.224 111 183.84 110.296C183.456 109.592 182.954 109.048 182.336 108.664C181.717 108.259 180.96 108.056 180.064 108.056C178.506 108.056 177.301 108.685 176.448 109.944C175.594 111.181 175.168 113.133 175.168 115.8ZM192.701 104.6H205.981V108.504H197.085V113.72H205.181V117.624H197.085V123.096H206.141V127H192.701V104.6Z" fill="#F7F7F7"/>
</g>
<defs>
<filter id="filter0_d_135_91" x="24.2161" y="99.032" width="185.925" height="36.416" filterUnits="userSpaceOnUse" color-interpolation-filters="sRGB">
<feFlood flood-opacity="0" result="BackgroundImageFix"/>
<feColorMatrix in="SourceAlpha" type="matrix" values="0 0 0 0 0 0 0 0 0 0 0 0 0 0 0 0 0 0 127 0" result="hardAlpha"/>
<feOffset dy="4"/>
<feGaussianBlur stdDeviation="2"/>
<feComposite in2="hardAlpha" operator="out"/>
<feColorMatrix type="matrix" values="0 0 0 0 0 0 0 0 0 0 0 0 0 0 0 0 0 0 0.49 0"/>
<feBlend mode="normal" in2="BackgroundImageFix" result="effect1_dropShadow_135_91"/>
<feBlend mode="normal" in="SourceGraphic" in2="effect1_dropShadow_135_91" result="shape"/>
</filter>
</defs>
</svg>
