<svg width="235" height="235" viewBox="0 0 235 235" fill="none" xmlns="http://www.w3.org/2000/svg">
<circle cx="117.5" cy="117.5" r="117.5" fill="#6C75CA"/>
<g filter="url(#filter0_d_135_93)">
<path d="M77.84 117.08V113.656H78.608C78.8 113.656 79.0347 113.656 79.312 113.656C79.5893 113.656 79.8667 113.656 80.144 113.656C80.4427 113.635 80.7307 113.613 81.008 113.592C81.2853 113.549 81.5093 113.507 81.68 113.464C82.4267 113.293 83.0667 112.995 83.6 112.568C84.1333 112.12 84.4 111.523 84.4 110.776C84.4 109.752 84.0693 109.059 83.408 108.696C82.768 108.312 81.9147 108.12 80.848 108.12C79.888 108.12 78.992 108.248 78.16 108.504C77.328 108.76 76.6987 109.005 76.272 109.24L75.152 105.528C75.3867 105.4 75.7173 105.261 76.144 105.112C76.592 104.963 77.0933 104.824 77.648 104.696C78.224 104.547 78.8427 104.429 79.504 104.344C80.1653 104.259 80.8373 104.216 81.52 104.216C82.4587 104.216 83.376 104.301 84.272 104.472C85.168 104.643 85.968 104.941 86.672 105.368C87.376 105.795 87.9413 106.371 88.368 107.096C88.7947 107.8 89.008 108.707 89.008 109.816C89.008 110.925 88.7093 111.949 88.112 112.888C87.536 113.827 86.5973 114.509 85.296 114.936V115.096C86.6827 115.373 87.76 115.971 88.528 116.888C89.3173 117.805 89.712 119.032 89.712 120.568C89.712 121.784 89.4667 122.829 88.976 123.704C88.4853 124.557 87.8347 125.261 87.024 125.816C86.2347 126.371 85.3173 126.776 84.272 127.032C83.2267 127.309 82.16 127.448 81.072 127.448C79.664 127.448 78.384 127.331 77.232 127.096C76.08 126.861 75.1947 126.584 74.576 126.264L75.696 122.456C76.1867 122.691 76.8907 122.936 77.808 123.192C78.7253 123.427 79.8133 123.544 81.072 123.544C81.5413 123.544 82.0107 123.491 82.48 123.384C82.9707 123.256 83.408 123.064 83.792 122.808C84.176 122.531 84.4853 122.179 84.72 121.752C84.9547 121.325 85.072 120.813 85.072 120.216C85.072 119.213 84.6987 118.456 83.952 117.944C83.2053 117.432 81.872 117.155 79.952 117.112C79.696 117.091 79.504 117.08 79.376 117.08C79.248 117.08 79.024 117.08 78.704 117.08H77.84ZM105.82 114.584L106.076 111.672H105.916L104.412 114.68L96.0598 127H92.7638V104.6H97.1478V116.792L96.8278 119.8H97.0198L98.5878 116.696L106.94 104.6H110.204V127H105.82V114.584ZM131.452 115.384L131.932 110.936H131.74L130.364 114.52L125.596 122.872H124.188L119.164 114.488L117.756 110.936H117.596L118.236 115.352V127H114.076V104.6H118.076L124.06 114.84L125.116 117.4H125.244L126.204 114.776L131.868 104.6H135.836V127H131.452V115.384ZM150.71 122.04H143.83L142.134 127H137.75L145.814 104.44H149.046L157.11 127H152.502L150.71 122.04ZM144.95 118.52H149.75L148.086 113.528L147.414 110.008H147.254L146.582 113.56L144.95 118.52Z" fill="#F7F7F7"/>
</g>
<defs>
<filter id="filter0_d_135_93" x="70.5759" y="104.216" width="90.5342" height="31.232" filterUnits="userSpaceOnUse" color-interpolation-filters="sRGB">
<feFlood flood-opacity="0" result="BackgroundImageFix"/>
<feColorMatrix in="SourceAlpha" type="matrix" values="0 0 0 0 0 0 0 0 0 0 0 0 0 0 0 0 0 0 127 0" result="hardAlpha"/>
<feOffset dy="4"/>
<feGaussianBlur stdDeviation="2"/>
<feComposite in2="hardAlpha" operator="out"/>
<feColorMatrix type="matrix" values="0 0 0 0 0 0 0 0 0 0 0 0 0 0 0 0 0 0 0.49 0"/>
<feBlend mode="normal" in2="BackgroundImageFix" result="effect1_dropShadow_135_93"/>
<feBlend mode="normal" in="SourceGraphic" in2="effect1_dropShadow_135_93" result="shape"/>
</filter>
</defs>
</svg>
