<svg width="235" height="235" viewBox="0 0 235 235" fill="none" xmlns="http://www.w3.org/2000/svg">
<circle cx="117.5" cy="117.5" r="117.5" fill="#A1C29C"/>
<g filter="url(#filter0_d_135_94)">
<path d="M86.992 109.816C86.992 110.371 86.9173 110.925 86.768 111.48C86.64 112.035 86.416 112.547 86.096 113.016C85.776 113.464 85.36 113.869 84.848 114.232C84.336 114.573 83.7173 114.829 82.992 115V115.192C83.632 115.299 84.24 115.48 84.816 115.736C85.392 115.992 85.8933 116.344 86.32 116.792C86.7467 117.24 87.0773 117.784 87.312 118.424C87.568 119.064 87.696 119.821 87.696 120.696C87.696 121.848 87.4507 122.851 86.96 123.704C86.4693 124.536 85.808 125.219 84.976 125.752C84.1653 126.285 83.2373 126.68 82.192 126.936C81.1467 127.192 80.0693 127.32 78.96 127.32C78.5973 127.32 78.128 127.32 77.552 127.32C76.9973 127.32 76.3893 127.299 75.728 127.256C75.088 127.235 74.4267 127.192 73.744 127.128C73.0827 127.064 72.4747 126.968 71.92 126.84V104.76C72.3253 104.696 72.784 104.632 73.296 104.568C73.8293 104.504 74.3947 104.451 74.992 104.408C75.5893 104.365 76.1973 104.333 76.816 104.312C77.456 104.291 78.0853 104.28 78.704 104.28C79.7493 104.28 80.7627 104.365 81.744 104.536C82.7467 104.685 83.632 104.963 84.4 105.368C85.1893 105.773 85.8187 106.339 86.288 107.064C86.7573 107.789 86.992 108.707 86.992 109.816ZM78.992 123.704C79.5253 123.704 80.0373 123.64 80.528 123.512C81.04 123.384 81.488 123.192 81.872 122.936C82.256 122.659 82.5653 122.317 82.8 121.912C83.0347 121.507 83.152 121.027 83.152 120.472C83.152 119.768 83.0133 119.213 82.736 118.808C82.4587 118.403 82.096 118.093 81.648 117.88C81.2 117.645 80.6987 117.496 80.144 117.432C79.5893 117.368 79.0347 117.336 78.48 117.336H76.144V123.512C76.2507 123.555 76.4213 123.587 76.656 123.608C76.8907 123.629 77.136 123.651 77.392 123.672C77.6693 123.672 77.9467 123.683 78.224 123.704C78.5227 123.704 78.7787 123.704 78.992 123.704ZM77.552 114.008C77.8507 114.008 78.192 113.997 78.576 113.976C78.9813 113.955 79.312 113.923 79.568 113.88C80.3787 113.624 81.072 113.24 81.648 112.728C82.2453 112.216 82.544 111.544 82.544 110.712C82.544 110.157 82.4373 109.699 82.224 109.336C82.0107 108.973 81.7227 108.685 81.36 108.472C81.0187 108.259 80.624 108.109 80.176 108.024C79.728 107.939 79.2587 107.896 78.768 107.896C78.2133 107.896 77.7013 107.907 77.232 107.928C76.7627 107.949 76.4 107.981 76.144 108.024V114.008H77.552ZM90.8263 104.6H104.106V108.504H95.2103V113.72H103.306V117.624H95.2103V123.096H104.266V127H90.8263V104.6ZM122.713 126.072C122.03 126.563 121.156 126.915 120.089 127.128C119.044 127.341 117.966 127.448 116.857 127.448C115.513 127.448 114.233 127.245 113.017 126.84C111.822 126.413 110.766 125.741 109.849 124.824C108.932 123.885 108.196 122.68 107.641 121.208C107.108 119.715 106.841 117.912 106.841 115.8C106.841 113.603 107.14 111.768 107.737 110.296C108.356 108.803 109.145 107.608 110.105 106.712C111.086 105.795 112.174 105.144 113.369 104.76C114.564 104.355 115.758 104.152 116.953 104.152C118.233 104.152 119.31 104.237 120.185 104.408C121.081 104.579 121.817 104.781 122.393 105.016L121.529 108.728C121.038 108.493 120.452 108.323 119.769 108.216C119.108 108.109 118.297 108.056 117.337 108.056C115.566 108.056 114.137 108.685 113.049 109.944C111.982 111.203 111.449 113.155 111.449 115.8C111.449 116.952 111.577 118.008 111.833 118.968C112.089 119.907 112.473 120.717 112.985 121.4C113.518 122.061 114.169 122.584 114.937 122.968C115.726 123.331 116.633 123.512 117.657 123.512C118.617 123.512 119.428 123.416 120.089 123.224C120.75 123.032 121.326 122.787 121.817 122.488L122.713 126.072ZM137.996 117.624H129.804V127H125.42V104.6H129.804V113.72H137.996V104.6H142.38V127H137.996V117.624ZM157.304 122.04H150.424L148.728 127H144.344L152.408 104.44H155.64L163.704 127H159.096L157.304 122.04ZM151.544 118.52H156.344L154.68 113.528L154.008 110.008H153.848L153.176 113.56L151.544 118.52Z" fill="#F7F7F7"/>
</g>
<defs>
<filter id="filter0_d_135_94" x="67.9199" y="104.152" width="99.7839" height="31.296" filterUnits="userSpaceOnUse" color-interpolation-filters="sRGB">
<feFlood flood-opacity="0" result="BackgroundImageFix"/>
<feColorMatrix in="SourceAlpha" type="matrix" values="0 0 0 0 0 0 0 0 0 0 0 0 0 0 0 0 0 0 127 0" result="hardAlpha"/>
<feOffset dy="4"/>
<feGaussianBlur stdDeviation="2"/>
<feComposite in2="hardAlpha" operator="out"/>
<feColorMatrix type="matrix" values="0 0 0 0 0 0 0 0 0 0 0 0 0 0 0 0 0 0 0.49 0"/>
<feBlend mode="normal" in2="BackgroundImageFix" result="effect1_dropShadow_135_94"/>
<feBlend mode="normal" in="SourceGraphic" in2="effect1_dropShadow_135_94" result="shape"/>
</filter>
</defs>
</svg>
