<svg width="280" height="236" viewBox="0 0 280 236" fill="none" xmlns="http://www.w3.org/2000/svg">
<rect width="280" height="236" rx="20" fill="#956CCA"/>
<path d="M80.12 194.16H86.576C86.528 193.52 86.392 192.936 86.168 192.408C85.96 191.864 85.672 191.4 85.304 191.016C84.936 190.632 84.48 190.336 83.936 190.128C83.392 189.904 82.776 189.792 82.088 189.792C81.224 189.792 80.472 189.888 79.832 190.08C79.192 190.256 78.672 190.456 78.272 190.68L77.576 187.896C78.136 187.608 78.84 187.368 79.688 187.176C80.536 186.968 81.376 186.864 82.208 186.864C83.312 186.864 84.328 187.016 85.256 187.32C86.2 187.624 87.008 188.128 87.68 188.832C88.368 189.52 88.904 190.424 89.288 191.544C89.672 192.648 89.864 194 89.864 195.6C89.864 197.264 89.64 198.656 89.192 199.776C88.744 200.896 88.144 201.792 87.392 202.464C86.64 203.136 85.776 203.616 84.8 203.904C83.824 204.192 82.808 204.336 81.752 204.336C80.84 204.336 80.008 204.256 79.256 204.096C78.52 203.936 77.928 203.752 77.48 203.544L78.344 200.688C78.712 200.864 79.208 201.032 79.832 201.192C80.456 201.336 81.176 201.408 81.992 201.408C82.616 201.408 83.192 201.32 83.72 201.144C84.248 200.968 84.712 200.696 85.112 200.328C85.528 199.944 85.864 199.464 86.12 198.888C86.376 198.312 86.536 197.616 86.6 196.8H80.12V194.16ZM96.1093 199.032H95.2693V204H92.1493V192H95.2693V197.112L96.0133 196.776L98.8213 192H102.157L99.2533 196.56L98.0293 197.472L99.3733 198.408L102.613 204H99.0373L96.1093 199.032ZM112.083 203.256C111.603 203.608 111.019 203.872 110.331 204.048C109.659 204.24 108.963 204.336 108.243 204.336C107.283 204.336 106.467 204.184 105.795 203.88C105.139 203.576 104.603 203.152 104.187 202.608C103.771 202.048 103.467 201.376 103.275 200.592C103.099 199.808 103.011 198.944 103.011 198C103.011 195.968 103.467 194.408 104.379 193.32C105.291 192.216 106.619 191.664 108.363 191.664C109.243 191.664 109.947 191.736 110.475 191.88C111.019 192.024 111.507 192.208 111.939 192.432L111.195 194.976C110.827 194.8 110.459 194.664 110.091 194.568C109.739 194.472 109.331 194.424 108.867 194.424C108.003 194.424 107.347 194.712 106.899 195.288C106.451 195.848 106.227 196.752 106.227 198C106.227 198.512 106.283 198.984 106.395 199.416C106.507 199.848 106.675 200.224 106.899 200.544C107.123 200.864 107.411 201.12 107.763 201.312C108.131 201.488 108.555 201.576 109.035 201.576C109.563 201.576 110.011 201.512 110.379 201.384C110.747 201.24 111.075 201.072 111.363 200.88L112.083 203.256ZM120.966 194.76H118.59C118.494 195.896 118.382 197.024 118.254 198.144C118.126 199.264 117.918 200.272 117.63 201.168C117.358 202.048 116.982 202.768 116.502 203.328C116.022 203.872 115.398 204.144 114.63 204.144C113.702 204.144 113.046 204.024 112.662 203.784L113.046 201.192C113.302 201.288 113.542 201.336 113.766 201.336C114.086 201.336 114.366 201.2 114.606 200.928C114.846 200.656 115.046 200.168 115.206 199.464C115.382 198.76 115.518 197.808 115.614 196.608C115.726 195.392 115.806 193.856 115.854 192H124.086V204H120.966V194.76ZM136.942 204.336C136.046 204.336 135.278 204.216 134.638 203.976C134.014 203.736 133.494 203.392 133.078 202.944C132.678 202.496 132.366 201.952 132.142 201.312C131.934 200.672 131.798 199.952 131.734 199.152H129.91V204H126.79V192H129.91V196.512H131.758C131.918 194.96 132.406 193.768 133.222 192.936C134.054 192.088 135.31 191.664 136.99 191.664C137.902 191.664 138.686 191.816 139.342 192.12C139.998 192.424 140.542 192.856 140.974 193.416C141.406 193.96 141.718 194.624 141.91 195.408C142.118 196.192 142.222 197.056 142.222 198C142.222 200.032 141.79 201.6 140.926 202.704C140.062 203.792 138.734 204.336 136.942 204.336ZM134.71 198C134.71 199.168 134.87 200.08 135.19 200.736C135.526 201.376 136.11 201.696 136.942 201.696C137.678 201.696 138.206 201.424 138.526 200.88C138.846 200.336 139.006 199.376 139.006 198C139.006 196.768 138.854 195.848 138.55 195.24C138.246 194.616 137.686 194.304 136.87 194.304C136.134 194.304 135.59 194.584 135.238 195.144C134.886 195.704 134.71 196.656 134.71 198ZM145.663 199.032V196.848H147.127C147.687 196.848 148.143 196.736 148.495 196.512C148.863 196.288 149.047 195.992 149.047 195.624C149.047 195.192 148.887 194.888 148.567 194.712C148.247 194.52 147.759 194.424 147.103 194.424C146.479 194.424 145.927 194.504 145.447 194.664C144.967 194.824 144.583 194.992 144.295 195.168L143.623 192.792C144.103 192.52 144.735 192.288 145.519 192.096C146.319 191.888 147.167 191.784 148.063 191.784C149.439 191.784 150.463 192.04 151.135 192.552C151.823 193.064 152.167 193.808 152.167 194.784C152.167 195.056 152.127 195.336 152.047 195.624C151.983 195.896 151.871 196.16 151.711 196.416C151.551 196.672 151.351 196.904 151.111 197.112C150.887 197.304 150.615 197.456 150.295 197.568V197.664C151.143 197.856 151.743 198.2 152.095 198.696C152.447 199.176 152.623 199.824 152.623 200.64C152.623 201.152 152.519 201.632 152.311 202.08C152.103 202.512 151.783 202.888 151.351 203.208C150.935 203.528 150.407 203.784 149.767 203.976C149.127 204.168 148.367 204.264 147.487 204.264C146.607 204.264 145.839 204.176 145.183 204C144.543 203.808 144.007 203.592 143.575 203.352L144.247 200.928C144.615 201.136 145.055 201.304 145.567 201.432C146.095 201.56 146.679 201.624 147.319 201.624C148.775 201.624 149.503 201.16 149.503 200.232C149.503 199.816 149.311 199.512 148.927 199.32C148.559 199.128 147.863 199.032 146.839 199.032H145.663ZM161.998 198.528L162.118 196.824H162.046L161.014 198.576L156.742 204H154.774V192H157.894V197.712L157.75 199.344H157.846L158.83 197.64L163.15 192H165.118V204H161.998V198.528ZM167.852 192.024C168.412 191.976 169.084 191.928 169.868 191.88C170.668 191.832 171.524 191.808 172.436 191.808C174.196 191.808 175.444 192.064 176.18 192.576C176.932 193.072 177.308 193.824 177.308 194.832C177.308 195.392 177.148 195.936 176.828 196.464C176.508 196.992 176.004 197.376 175.316 197.616V197.712C176.18 197.904 176.804 198.248 177.188 198.744C177.572 199.224 177.764 199.848 177.764 200.616C177.764 201.816 177.3 202.712 176.372 203.304C175.46 203.896 173.988 204.192 171.956 204.192C171.284 204.192 170.572 204.168 169.82 204.12C169.068 204.088 168.412 204.04 167.852 203.976V192.024ZM170.9 201.6C171.124 201.632 171.332 201.656 171.524 201.672C171.716 201.688 171.956 201.696 172.244 201.696C173.108 201.696 173.724 201.576 174.092 201.336C174.46 201.096 174.644 200.728 174.644 200.232C174.644 199.816 174.484 199.48 174.164 199.224C173.86 198.952 173.308 198.816 172.508 198.816H170.9V201.6ZM172.556 196.896C173.068 196.896 173.484 196.776 173.804 196.536C174.14 196.28 174.308 195.96 174.308 195.576C174.308 195.16 174.164 194.848 173.876 194.64C173.604 194.416 173.1 194.304 172.364 194.304C171.996 194.304 171.7 194.312 171.476 194.328C171.268 194.344 171.076 194.36 170.9 194.376V196.896H172.556ZM183.09 201.384C183.57 201.48 184.026 201.528 184.458 201.528C185.178 201.528 185.682 201.4 185.97 201.144C186.258 200.872 186.402 200.456 186.402 199.896C186.402 199.384 186.258 199 185.97 198.744C185.682 198.472 185.202 198.336 184.53 198.336C184.002 198.336 183.522 198.392 183.09 198.504V201.384ZM183.09 196.272C183.474 196.208 183.858 196.168 184.242 196.152C184.642 196.12 185.002 196.104 185.322 196.104C186.138 196.104 186.818 196.2 187.362 196.392C187.906 196.568 188.346 196.824 188.682 197.16C189.018 197.496 189.258 197.896 189.402 198.36C189.546 198.808 189.618 199.296 189.618 199.824C189.618 200.544 189.522 201.176 189.33 201.72C189.138 202.264 188.826 202.72 188.394 203.088C187.962 203.44 187.402 203.712 186.714 203.904C186.026 204.08 185.178 204.168 184.17 204.168C183.258 204.168 182.466 204.152 181.794 204.12C181.138 204.088 180.53 204.048 179.97 204V192H183.09V196.272ZM190.986 192H194.106V204H190.986V192Z" fill="white"/>
<g filter="url(#filter0_d_98_8)">
<path d="M38.76 76.8H78.6V88.512H51.912V104.16H76.2V115.872H51.912V132.288H79.08V144H38.76V76.8ZM104.756 109.824L86.0363 76.8H101.876L112.244 96.192L114.548 103.008L116.756 96.192L127.604 76.8H141.908L122.516 109.152L142.868 144H127.22L115.412 123.264L112.82 116.16L110.324 123.264L98.4203 144H84.1163L104.756 109.824ZM189.92 141.216C187.872 142.688 185.248 143.744 182.048 144.384C178.912 145.024 175.68 145.344 172.352 145.344C168.32 145.344 164.48 144.736 160.832 143.52C157.248 142.24 154.08 140.224 151.328 137.472C148.576 134.656 146.368 131.04 144.704 126.624C143.104 122.144 142.304 116.736 142.304 110.4C142.304 103.808 143.2 98.304 144.992 93.888C146.848 89.408 149.216 85.824 152.096 83.136C155.04 80.384 158.304 78.432 161.888 77.28C165.472 76.064 169.056 75.456 172.64 75.456C176.48 75.456 179.712 75.712 182.336 76.224C185.024 76.736 187.232 77.344 188.96 78.048L186.368 89.184C184.896 88.48 183.136 87.968 181.088 87.648C179.104 87.328 176.672 87.168 173.792 87.168C168.48 87.168 164.192 89.056 160.928 92.832C157.728 96.608 156.128 102.464 156.128 110.4C156.128 113.856 156.512 117.024 157.28 119.904C158.048 122.72 159.2 125.152 160.736 127.2C162.336 129.184 164.288 130.752 166.592 131.904C168.96 132.992 171.68 133.536 174.752 133.536C177.632 133.536 180.064 133.248 182.048 132.672C184.032 132.096 185.76 131.36 187.232 130.464L189.92 141.216ZM240.569 144H198.041V76.8H211.193V132.288H240.569V144Z" fill="white"/>
</g>
<defs>
<filter id="filter0_d_98_8" x="34.76" y="75.4561" width="209.809" height="77.8879" filterUnits="userSpaceOnUse" color-interpolation-filters="sRGB">
<feFlood flood-opacity="0" result="BackgroundImageFix"/>
<feColorMatrix in="SourceAlpha" type="matrix" values="0 0 0 0 0 0 0 0 0 0 0 0 0 0 0 0 0 0 127 0" result="hardAlpha"/>
<feOffset dy="4"/>
<feGaussianBlur stdDeviation="2"/>
<feComposite in2="hardAlpha" operator="out"/>
<feColorMatrix type="matrix" values="0 0 0 0 0 0 0 0 0 0 0 0 0 0 0 0 0 0 0.25 0"/>
<feBlend mode="normal" in2="BackgroundImageFix" result="effect1_dropShadow_98_8"/>
<feBlend mode="normal" in="SourceGraphic" in2="effect1_dropShadow_98_8" result="shape"/>
</filter>
</defs>
</svg>
