<svg width="280" height="236" viewBox="0 0 280 236" fill="none" xmlns="http://www.w3.org/2000/svg">
<rect width="280" height="236" rx="20" fill="#6CB3CA"/>
<path d="M116.056 194.616L116.536 196.8H116.68L117.064 194.544L119.584 187.2H122.968L118.504 198.816C118.152 199.728 117.808 200.52 117.472 201.192C117.152 201.864 116.8 202.424 116.416 202.872C116.048 203.304 115.632 203.632 115.168 203.856C114.704 204.064 114.16 204.168 113.536 204.168C113.008 204.168 112.576 204.128 112.24 204.048C111.92 203.984 111.568 203.832 111.184 203.592L112.024 200.928C112.296 201.072 112.544 201.16 112.768 201.192C112.992 201.224 113.232 201.24 113.488 201.24C114.24 201.24 114.768 200.648 115.072 199.464L108.784 187.2H112.648L116.056 194.616ZM126.248 192V194.736C126.248 195.232 126.264 195.664 126.296 196.032C126.344 196.384 126.424 196.68 126.536 196.92C126.664 197.144 126.832 197.312 127.04 197.424C127.264 197.536 127.552 197.592 127.904 197.592C128.368 197.592 128.768 197.536 129.104 197.424C129.456 197.312 129.744 197.176 129.968 197.016V192H133.088V204H129.968V199.296C129.728 199.472 129.36 199.672 128.864 199.896C128.368 200.104 127.704 200.208 126.872 200.208C126.28 200.208 125.752 200.144 125.288 200.016C124.824 199.888 124.432 199.664 124.112 199.344C123.792 199.024 123.544 198.6 123.368 198.072C123.208 197.544 123.128 196.88 123.128 196.08V192H126.248ZM145.421 202.968C144.941 203.352 144.285 203.68 143.453 203.952C142.637 204.208 141.765 204.336 140.837 204.336C138.901 204.336 137.485 203.776 136.589 202.656C135.693 201.52 135.245 199.968 135.245 198C135.245 195.888 135.749 194.304 136.757 193.248C137.765 192.192 139.181 191.664 141.005 191.664C141.613 191.664 142.205 191.744 142.781 191.904C143.357 192.064 143.869 192.328 144.317 192.696C144.765 193.064 145.125 193.56 145.397 194.184C145.669 194.808 145.805 195.584 145.805 196.512C145.805 196.848 145.781 197.208 145.733 197.592C145.701 197.976 145.645 198.376 145.565 198.792H138.365C138.413 199.8 138.669 200.56 139.133 201.072C139.613 201.584 140.381 201.84 141.437 201.84C142.093 201.84 142.677 201.744 143.189 201.552C143.717 201.344 144.117 201.136 144.389 200.928L145.421 202.968ZM140.957 194.16C140.141 194.16 139.533 194.408 139.133 194.904C138.749 195.384 138.517 196.032 138.437 196.848H142.901C142.965 195.984 142.829 195.32 142.493 194.856C142.173 194.392 141.661 194.16 140.957 194.16ZM150.049 194.256C150.513 193.552 151.057 193.048 151.681 192.744C152.321 192.424 153.089 192.264 153.985 192.264C155.441 192.264 156.593 192.712 157.441 193.608C158.305 194.488 158.737 195.864 158.737 197.736C158.737 199.896 158.249 201.536 157.273 202.656C156.297 203.776 154.921 204.336 153.145 204.336C151.289 204.336 149.873 203.72 148.897 202.488C147.921 201.256 147.433 199.336 147.433 196.728C147.433 195.352 147.513 194.176 147.673 193.2C147.833 192.224 148.057 191.4 148.345 190.728C148.649 190.056 149.001 189.52 149.401 189.12C149.817 188.72 150.273 188.408 150.769 188.184C151.281 187.944 151.825 187.776 152.401 187.68C152.977 187.584 153.585 187.504 154.225 187.44C155.057 187.36 155.769 187.264 156.361 187.152C156.953 187.024 157.393 186.824 157.681 186.552L157.801 189.336C157.481 189.608 157.025 189.8 156.433 189.912C155.841 190.008 155.041 190.096 154.033 190.176C153.425 190.208 152.889 190.28 152.425 190.392C151.961 190.504 151.561 190.704 151.225 190.992C150.889 191.28 150.617 191.688 150.409 192.216C150.217 192.728 150.073 193.408 149.977 194.256H150.049ZM150.649 198.144C150.649 199.168 150.849 200.016 151.249 200.688C151.649 201.36 152.265 201.696 153.097 201.696C153.961 201.696 154.577 201.392 154.945 200.784C155.329 200.176 155.521 199.296 155.521 198.144C155.521 197.104 155.345 196.304 154.993 195.744C154.641 195.184 154.057 194.904 153.241 194.904C152.361 194.904 151.705 195.192 151.273 195.768C150.857 196.344 150.649 197.136 150.649 198.144ZM160.827 192.696C161.467 192.408 162.227 192.184 163.107 192.024C163.987 191.848 164.907 191.76 165.867 191.76C166.699 191.76 167.395 191.864 167.955 192.072C168.515 192.264 168.955 192.544 169.275 192.912C169.611 193.28 169.843 193.72 169.971 194.232C170.115 194.744 170.187 195.32 170.187 195.96C170.187 196.664 170.163 197.376 170.115 198.096C170.067 198.8 170.035 199.496 170.019 200.184C170.019 200.872 170.043 201.544 170.091 202.2C170.139 202.84 170.259 203.448 170.451 204.024H167.907L167.403 202.368H167.283C166.963 202.864 166.515 203.296 165.939 203.664C165.379 204.016 164.651 204.192 163.755 204.192C163.195 204.192 162.691 204.112 162.243 203.952C161.795 203.776 161.411 203.536 161.091 203.232C160.771 202.912 160.523 202.544 160.347 202.128C160.171 201.696 160.083 201.216 160.083 200.688C160.083 199.952 160.243 199.336 160.563 198.84C160.899 198.328 161.371 197.92 161.979 197.616C162.603 197.296 163.339 197.08 164.187 196.968C165.051 196.84 166.011 196.8 167.067 196.848C167.179 195.952 167.115 195.312 166.875 194.928C166.635 194.528 166.099 194.328 165.267 194.328C164.643 194.328 163.979 194.392 163.275 194.52C162.587 194.648 162.019 194.816 161.571 195.024L160.827 192.696ZM164.787 201.624C165.411 201.624 165.907 201.488 166.275 201.216C166.643 200.928 166.915 200.624 167.091 200.304V198.744C166.595 198.696 166.115 198.688 165.651 198.72C165.203 198.752 164.803 198.824 164.451 198.936C164.099 199.048 163.819 199.208 163.611 199.416C163.403 199.624 163.299 199.888 163.299 200.208C163.299 200.656 163.427 201.008 163.683 201.264C163.955 201.504 164.323 201.624 164.787 201.624Z" fill="white"/>
<g filter="url(#filter0_d_98_6)">
<rect x="94" y="45" width="93" height="112" rx="20" fill="white"/>
</g>
<line x1="106" y1="71" x2="174" y2="71" stroke="black" stroke-width="8"/>
<line x1="106" y1="85" x2="174" y2="85" stroke="black" stroke-width="8"/>
<line x1="106" y1="117" x2="174" y2="117" stroke="black" stroke-width="8"/>
<line x1="106" y1="130" x2="174" y2="130" stroke="black" stroke-width="8"/>
<line x1="106" y1="101" x2="174" y2="101" stroke="black" stroke-width="8"/>
<defs>
<filter id="filter0_d_98_6" x="90" y="45" width="101" height="120" filterUnits="userSpaceOnUse" color-interpolation-filters="sRGB">
<feFlood flood-opacity="0" result="BackgroundImageFix"/>
<feColorMatrix in="SourceAlpha" type="matrix" values="0 0 0 0 0 0 0 0 0 0 0 0 0 0 0 0 0 0 127 0" result="hardAlpha"/>
<feOffset dy="4"/>
<feGaussianBlur stdDeviation="2"/>
<feComposite in2="hardAlpha" operator="out"/>
<feColorMatrix type="matrix" values="0 0 0 0 0 0 0 0 0 0 0 0 0 0 0 0 0 0 0.25 0"/>
<feBlend mode="normal" in2="BackgroundImageFix" result="effect1_dropShadow_98_6"/>
<feBlend mode="normal" in="SourceGraphic" in2="effect1_dropShadow_98_6" result="shape"/>
</filter>
</defs>
</svg>
