<svg width="280" height="236" viewBox="0 0 280 236" fill="none" xmlns="http://www.w3.org/2000/svg">
<rect width="280" height="236" rx="20" fill="#C8CA6C"/>
<path d="M84.4 195.456L79.72 187.2H83.68L86.272 192.048L86.848 193.752L87.4 192.048L90.112 187.2H93.688L88.84 195.288L93.928 204H90.016L87.064 198.816L86.416 197.04L85.792 198.816L82.816 204H79.24L84.4 195.456ZM102.78 198.528L102.9 196.824H102.828L101.796 198.576L97.5235 204H95.5555V192H98.6755V197.712L98.5315 199.344H98.6275L99.6115 197.64L103.932 192H105.9V204H102.78V198.528ZM117.274 194.76H113.938V204H110.722V194.76H107.29V192H117.274V194.76ZM121.785 201.384C122.265 201.48 122.721 201.528 123.153 201.528C123.873 201.528 124.377 201.4 124.665 201.144C124.953 200.872 125.097 200.456 125.097 199.896C125.097 199.384 124.953 199 124.665 198.744C124.377 198.472 123.897 198.336 123.225 198.336C122.697 198.336 122.217 198.392 121.785 198.504V201.384ZM121.785 196.272C122.169 196.208 122.553 196.168 122.937 196.152C123.337 196.12 123.697 196.104 124.017 196.104C124.833 196.104 125.513 196.2 126.057 196.392C126.601 196.568 127.041 196.824 127.377 197.16C127.713 197.496 127.953 197.896 128.097 198.36C128.241 198.808 128.313 199.296 128.313 199.824C128.313 200.544 128.217 201.176 128.025 201.72C127.833 202.264 127.521 202.72 127.089 203.088C126.657 203.44 126.097 203.712 125.409 203.904C124.721 204.08 123.873 204.168 122.865 204.168C121.953 204.168 121.161 204.152 120.489 204.12C119.833 204.088 119.225 204.048 118.665 204V192H121.785V196.272ZM129.681 192H132.801V204H129.681V192ZM141.322 192.456C141.322 191.64 141.442 190.888 141.682 190.2C141.938 189.512 142.298 188.928 142.762 188.448C143.242 187.952 143.818 187.568 144.49 187.296C145.178 187.008 145.962 186.864 146.842 186.864C148.65 186.864 150.066 187.408 151.09 188.496C152.13 189.568 152.65 191.136 152.65 193.2C152.65 195.056 152.41 196.664 151.93 198.024C151.466 199.368 150.834 200.496 150.034 201.408C149.25 202.304 148.338 202.992 147.298 203.472C146.258 203.952 145.162 204.24 144.01 204.336L143.338 201.888C144.218 201.776 145.002 201.56 145.69 201.24C146.378 200.92 146.97 200.528 147.466 200.064C147.962 199.584 148.362 199.048 148.666 198.456C148.986 197.848 149.21 197.2 149.338 196.512C148.954 196.928 148.538 197.216 148.09 197.376C147.658 197.536 147.074 197.616 146.338 197.616C145.73 197.616 145.122 197.512 144.514 197.304C143.922 197.096 143.386 196.784 142.906 196.368C142.442 195.936 142.058 195.4 141.754 194.76C141.466 194.104 141.322 193.336 141.322 192.456ZM144.346 192.288C144.346 193.2 144.602 193.888 145.114 194.352C145.626 194.816 146.266 195.048 147.034 195.048C147.69 195.048 148.226 194.944 148.642 194.736C149.058 194.528 149.378 194.272 149.602 193.968C149.65 193.632 149.674 193.312 149.674 193.008C149.674 192.56 149.618 192.12 149.506 191.688C149.394 191.256 149.218 190.872 148.978 190.536C148.754 190.2 148.458 189.936 148.09 189.744C147.738 189.536 147.314 189.432 146.818 189.432C146.034 189.432 145.426 189.688 144.994 190.2C144.562 190.696 144.346 191.392 144.346 192.288ZM154.819 195.576C154.819 192.632 155.323 190.448 156.331 189.024C157.339 187.584 158.787 186.864 160.675 186.864C162.691 186.864 164.171 187.576 165.115 189C166.059 190.408 166.531 192.6 166.531 195.576C166.531 198.536 166.019 200.736 164.995 202.176C163.987 203.616 162.539 204.336 160.651 204.336C158.651 204.336 157.179 203.584 156.235 202.08C155.291 200.56 154.819 198.392 154.819 195.576ZM157.939 195.576C157.939 197.528 158.147 199.04 158.563 200.112C158.995 201.168 159.699 201.696 160.675 201.696C161.619 201.696 162.307 201.208 162.739 200.232C163.187 199.256 163.411 197.704 163.411 195.576C163.411 193.64 163.203 192.144 162.787 191.088C162.371 190.032 161.659 189.504 160.651 189.504C159.691 189.504 158.995 190 158.563 190.992C158.147 191.984 157.939 193.512 157.939 195.576ZM168.773 195.72H174.797V198.48H168.773V195.72ZM180.658 195.456L175.978 187.2H179.938L182.53 192.048L183.106 193.752L183.658 192.048L186.37 187.2H189.946L185.098 195.288L190.186 204H186.274L183.322 198.816L182.674 197.04L182.05 198.816L179.074 204H175.498L180.658 195.456Z" fill="white"/>
<g filter="url(#filter0_d_98_7)">
<path d="M87.32 97.824C87.32 94.56 87.8 91.552 88.76 88.8C89.784 86.048 91.224 83.712 93.08 81.792C95 79.808 97.304 78.272 99.992 77.184C102.744 76.032 105.88 75.456 109.4 75.456C116.632 75.456 122.296 77.632 126.392 81.984C130.552 86.272 132.632 92.544 132.632 100.8C132.632 108.224 131.672 114.656 129.752 120.096C127.896 125.472 125.368 129.984 122.168 133.632C119.032 137.216 115.384 139.968 111.224 141.888C107.064 143.808 102.68 144.96 98.072 145.344L95.384 135.552C98.904 135.104 102.04 134.24 104.792 132.96C107.544 131.68 109.912 130.112 111.896 128.256C113.88 126.336 115.48 124.192 116.696 121.824C117.976 119.392 118.872 116.8 119.384 114.048C117.848 115.712 116.184 116.864 114.392 117.504C112.664 118.144 110.328 118.464 107.384 118.464C104.952 118.464 102.52 118.048 100.088 117.216C97.72 116.384 95.576 115.136 93.656 113.472C91.8 111.744 90.264 109.6 89.048 107.04C87.896 104.416 87.32 101.344 87.32 97.824ZM99.416 97.152C99.416 100.8 100.44 103.552 102.488 105.408C104.536 107.264 107.096 108.192 110.168 108.192C112.792 108.192 114.936 107.776 116.6 106.944C118.264 106.112 119.544 105.088 120.44 103.872C120.632 102.528 120.728 101.248 120.728 100.032C120.728 98.24 120.504 96.48 120.056 94.752C119.608 93.024 118.904 91.488 117.944 90.144C117.048 88.8 115.864 87.744 114.392 86.976C112.984 86.144 111.288 85.728 109.304 85.728C106.168 85.728 103.736 86.752 102.008 88.8C100.28 90.784 99.416 93.568 99.416 97.152ZM141.309 110.304C141.309 98.528 143.325 89.792 147.357 84.096C151.389 78.336 157.181 75.456 164.733 75.456C172.797 75.456 178.717 78.304 182.493 84C186.269 89.632 188.157 98.4 188.157 110.304C188.157 122.144 186.109 130.944 182.013 136.704C177.981 142.464 172.189 145.344 164.637 145.344C156.637 145.344 150.749 142.336 146.973 136.32C143.197 130.24 141.309 121.568 141.309 110.304ZM153.789 110.304C153.789 118.112 154.621 124.16 156.285 128.448C158.013 132.672 160.829 134.784 164.733 134.784C168.509 134.784 171.261 132.832 172.989 128.928C174.781 125.024 175.677 118.816 175.677 110.304C175.677 102.56 174.845 96.576 173.181 92.352C171.517 88.128 168.669 86.016 164.637 86.016C160.797 86.016 158.013 88 156.285 91.968C154.621 95.936 153.789 102.048 153.789 110.304Z" fill="white"/>
</g>
<defs>
<filter id="filter0_d_98_7" x="83.3201" y="75.4561" width="108.837" height="77.8879" filterUnits="userSpaceOnUse" color-interpolation-filters="sRGB">
<feFlood flood-opacity="0" result="BackgroundImageFix"/>
<feColorMatrix in="SourceAlpha" type="matrix" values="0 0 0 0 0 0 0 0 0 0 0 0 0 0 0 0 0 0 127 0" result="hardAlpha"/>
<feOffset dy="4"/>
<feGaussianBlur stdDeviation="2"/>
<feComposite in2="hardAlpha" operator="out"/>
<feColorMatrix type="matrix" values="0 0 0 0 0 0 0 0 0 0 0 0 0 0 0 0 0 0 0.25 0"/>
<feBlend mode="normal" in2="BackgroundImageFix" result="effect1_dropShadow_98_7"/>
<feBlend mode="normal" in="SourceGraphic" in2="effect1_dropShadow_98_7" result="shape"/>
</filter>
</defs>
</svg>
