<svg width="21" height="22" viewBox="0 0 21 22" fill="none" xmlns="http://www.w3.org/2000/svg">
<path d="M9.03726 18.6723C4.05575 18.6723 0 14.4824 0 9.33614C0 4.18988 4.05575 0 9.03726 0C14.0188 0 18.0745 4.18988 18.0745 9.33614C18.0745 14.4824 14.0188 18.6723 9.03726 18.6723ZM9.03726 1.36626C4.77873 1.36626 1.32253 4.94588 1.32253 9.33614C1.32253 13.7264 4.77873 17.306 9.03726 17.306C13.2958 17.306 16.752 13.7264 16.752 9.33614C16.752 4.94588 13.2958 1.36626 9.03726 1.36626Z" fill="#292D32"/>
<path d="M19.5632 21.3911C19.2603 21.3911 18.9574 21.278 18.7182 21.0358L15.5294 17.8061C15.067 17.3378 15.067 16.5627 15.5294 16.0944C15.9918 15.6261 16.7571 15.6261 17.2195 16.0944L20.4083 19.3241C20.8706 19.7924 20.8706 20.5675 20.4083 21.0358C20.1691 21.278 19.8662 21.3911 19.5632 21.3911Z" fill="#292D32"/>
</svg>
