<svg width="64" height="58" viewBox="0 0 64 58" fill="none" xmlns="http://www.w3.org/2000/svg">
<path opacity="0.2" d="M59.9999 16.3125L51.9249 23.6305C51.4038 30.9815 47.8131 37.8767 41.8829 42.9143C35.9526 47.9518 28.128 50.7536 19.9999 50.75C11.9999 50.75 9.99989 48.0312 9.99989 48.0312C9.99989 48.0312 17.9999 45.3125 21.9999 39.875C21.9999 39.875 5.99989 32.625 9.99989 12.6875C9.99989 12.6875 19.9999 21.75 31.9999 23.5625V19.9375C31.9999 14.9531 36.6249 10.807 42.1249 10.875C44.051 10.8952 45.9297 11.419 47.5352 12.3836C49.1406 13.3482 50.4045 14.7125 51.1749 16.3125H59.9999Z" fill="#1D1D1D"/>
<path d="M61.8499 15.6102C61.6969 15.2803 61.4396 14.9988 61.1104 14.8013C60.7812 14.6037 60.3948 14.4989 59.9999 14.5H52.3999C51.3551 12.8686 49.8618 11.5102 48.0655 10.5573C46.2692 9.6044 44.2312 9.0894 42.1499 9.0625C40.5642 9.05355 38.9921 9.32774 37.5233 9.86942C36.0545 10.4111 34.7178 11.2097 33.5896 12.2195C32.4613 13.2293 31.5636 14.4307 30.9477 15.7549C30.3318 17.0792 30.0098 18.5004 29.9999 19.9375V21.3195C19.8249 18.918 11.4999 11.4867 11.4249 11.3961C11.1634 11.1629 10.8362 10.9995 10.479 10.9235C10.1219 10.8476 9.74857 10.8622 9.39993 10.9656C9.05241 11.0659 8.7412 11.2493 8.49918 11.4965C8.25716 11.7438 8.09331 12.0457 8.02493 12.3703C5.84993 23.2906 9.47493 30.6086 12.8999 34.8227C14.6178 36.9536 16.7028 38.8201 19.0749 40.3508C15.2499 44.2703 9.34993 46.3094 9.29993 46.332C9.01779 46.4269 8.7629 46.5782 8.55425 46.7747C8.3456 46.9712 8.18857 47.2078 8.09485 47.467C8.00114 47.7261 7.97316 48.0011 8.01299 48.2714C8.05283 48.5417 8.15946 48.8004 8.32493 49.0281C8.52493 49.3 9.27493 50.1836 11.0999 51.0219C13.3749 52.0414 16.3749 52.5625 19.9999 52.5625C37.6249 52.5625 52.3749 40.2602 53.8749 24.4234L61.4249 17.6039C61.6963 17.3418 61.8802 17.0155 61.9554 16.6627C62.0306 16.3099 61.994 15.9449 61.8499 15.6102ZM50.5249 22.3391C50.1765 22.6522 49.9712 23.0729 49.9499 23.5172C48.9249 37.768 35.7749 48.9375 19.9999 48.9375C17.3499 48.9375 15.4999 48.6203 14.1999 48.2352C17.0749 46.8305 21.0749 44.3836 23.6749 40.8719C23.8259 40.6593 23.9261 40.4205 23.9691 40.1708C24.0122 39.9211 23.9971 39.666 23.9249 39.4219C23.8522 39.1753 23.7234 38.9451 23.5469 38.7462C23.3704 38.5472 23.1501 38.3838 22.8999 38.2664C22.8749 38.2437 19.1749 36.4992 15.9999 32.5344C12.3999 28.0484 10.8749 22.5883 11.4749 16.2898C15.4249 19.2352 22.9749 24.0383 31.6749 25.3523C31.9622 25.3942 32.2561 25.3794 32.5365 25.309C32.8169 25.2386 33.0773 25.1143 33.2999 24.9445C33.5176 24.7719 33.6925 24.5596 33.8131 24.3214C33.9338 24.0832 33.9974 23.8246 33.9999 23.5625V19.9375C34.0037 18.2745 34.6381 16.6633 35.7969 15.3738C36.9557 14.0844 38.5684 13.1952 40.3647 12.8553C42.161 12.5154 44.0316 12.7454 45.6629 13.5068C47.2943 14.2683 48.5872 15.5148 49.3249 17.0375C49.4844 17.3614 49.7439 17.6365 50.0723 17.8295C50.4006 18.0225 50.7836 18.1251 51.1749 18.125H55.1749L50.5249 22.3391Z" fill="white"/>
</svg>
