<svg width="58" height="52" viewBox="0 0 58 52" fill="none" xmlns="http://www.w3.org/2000/svg">
<rect width="57.0645" height="51.4356" rx="10" fill="white"/>
<path d="M27.6525 38.0421C27.1175 38.0422 26.5962 37.882 26.163 37.5844C18.8598 32.6408 13.9239 25.1537 12.438 16.7656C12.3255 16.1357 12.4815 15.4892 12.8719 14.9684C13.2623 14.4475 13.855 14.095 14.5197 13.9883C15.1843 13.8816 15.8665 14.0295 16.4161 14.3995C16.9656 14.7694 17.3376 15.3312 17.4502 15.961C18.4056 21.394 21.0766 26.4247 25.1108 30.3895V16.3609C25.1108 15.7221 25.3786 15.1094 25.8552 14.6577C26.3319 14.2059 26.9784 13.9521 27.6525 13.9521C28.3266 13.9521 28.973 14.2059 29.4497 14.6577C29.9263 15.1094 30.1941 15.7221 30.1941 16.3609V35.6309C30.1941 36.2693 29.9267 36.8816 29.4506 37.3333C28.9745 37.785 28.3287 38.039 27.655 38.0397L27.6525 38.0421Z" fill="#1D1D1D"/>
<path d="M40.3633 38.0417C40.0106 38.0424 39.6616 37.9733 39.3386 37.839C39.0156 37.7046 38.7257 37.5078 38.4875 37.2613L34.3014 32.9304C33.1908 31.7848 31.7717 30.9478 30.1966 30.5096V35.6306C30.1966 36.2694 29.9288 36.8821 29.4522 37.3338C28.9755 37.7856 28.329 38.0393 27.6549 38.0393C26.9809 38.0393 26.3344 37.7856 25.8577 37.3338C25.3811 36.8821 25.1133 36.2694 25.1133 35.6306V27.754C25.1133 27.1155 25.3807 26.5032 25.8568 26.0516C26.3329 25.5999 26.9788 25.3459 27.6524 25.3452C29.6067 25.3465 31.5396 25.7319 33.3288 26.4769C35.1181 27.2219 36.7249 28.3105 38.0478 29.6737L42.234 34.0023C42.5673 34.3467 42.7878 34.7756 42.8684 35.2367C42.9491 35.6978 42.8865 36.1711 42.6882 36.5991C42.4899 37.027 42.1645 37.3911 41.7517 37.6468C41.3389 37.9025 40.8565 38.0389 40.3633 38.0393V38.0417Z" fill="#1D1D1D"/>
<path d="M27.6432 33.1232C26.9691 33.1232 26.3227 32.8694 25.846 32.4177C25.3693 31.966 25.1016 31.3533 25.1016 30.7145V16.4546C25.1016 15.8158 25.3693 15.2031 25.846 14.7514C26.3227 14.2997 26.9691 14.0459 27.6432 14.0459C28.3173 14.0459 28.9638 14.2997 29.4405 14.7514C29.9171 15.2031 30.1849 15.8158 30.1849 16.4546V30.7145C30.1849 31.3533 29.9171 31.966 29.4405 32.4177C28.9638 32.8694 28.3173 33.1232 27.6432 33.1232Z" fill="#1D1D1D"/>
<path d="M29.9813 30.4014C29.3915 30.4028 28.8196 30.2098 28.3635 29.8554C27.9074 29.501 27.5956 29.0073 27.4814 28.4589C27.3672 27.9106 27.4579 27.3416 27.7377 26.8496C28.0176 26.3576 28.4693 25.9732 29.0155 25.7622C31.2248 24.9003 33.1829 23.5474 34.7245 21.8177C36.2661 20.0879 37.3461 18.0321 37.8732 15.8237C37.9446 15.5127 38.0804 15.2182 38.2726 14.9572C38.4648 14.6963 38.7097 14.474 38.9931 14.3033C39.2765 14.1325 39.5928 14.0167 39.9237 13.9625C40.2546 13.9082 40.5935 13.9167 40.921 13.9874C41.2484 14.058 41.5578 14.1895 41.8313 14.3741C42.1049 14.5588 42.337 14.7929 42.5145 15.0631C42.692 15.3333 42.8112 15.6342 42.8652 15.9483C42.9193 16.2624 42.9071 16.5835 42.8294 16.8931C42.121 19.8552 40.6714 22.6124 38.603 24.9323C36.5347 27.2522 33.908 29.0668 30.9446 30.2232C30.6389 30.3416 30.3116 30.4021 29.9813 30.4014ZM27.6531 18.772H27.6455L25.9833 18.7672C25.6495 18.7662 25.3192 18.703 25.0112 18.581C24.7032 18.4591 24.4236 18.2809 24.1883 18.0565C23.953 17.8322 23.7666 17.5661 23.6398 17.2735C23.513 16.9809 23.4482 16.6675 23.4492 16.3512C23.4704 15.7181 23.7463 15.1168 24.2202 14.6702C24.6942 14.2237 25.3304 13.9659 25.9985 13.9497L27.6608 13.9545C28.3349 13.9554 28.9809 14.2101 29.4569 14.6625C29.9328 15.1149 30.1996 15.728 30.1986 16.3668C30.1976 17.0057 29.9289 17.618 29.4515 18.069C28.9741 18.5201 28.3272 18.7729 27.6531 18.772Z" fill="#1D1D1D"/>
<path d="M27.6525 38.0421C27.1175 38.0422 26.5962 37.882 26.163 37.5844C18.8598 32.6408 13.9239 25.1537 12.438 16.7656C12.3255 16.1357 12.4815 15.4892 12.8719 14.9684C13.2623 14.4475 13.855 14.095 14.5197 13.9883C15.1843 13.8816 15.8665 14.0295 16.4161 14.3995C16.9656 14.7694 17.3376 15.3312 17.4502 15.961C18.4056 21.394 21.0766 26.4247 25.1108 30.3895V16.3609C25.1108 15.7221 25.3786 15.1094 25.8552 14.6577C26.3319 14.2059 26.9784 13.9521 27.6525 13.9521C28.3266 13.9521 28.973 14.2059 29.4497 14.6577C29.9263 15.1094 30.1941 15.7221 30.1941 16.3609V35.6309C30.1941 36.2693 29.9267 36.8816 29.4506 37.3333C28.9745 37.785 28.3287 38.039 27.655 38.0397L27.6525 38.0421Z" fill="#1D1D1D"/>
<path d="M40.3633 38.0417C40.0106 38.0424 39.6616 37.9733 39.3386 37.839C39.0156 37.7046 38.7257 37.5078 38.4875 37.2613L34.3014 32.9304C33.1908 31.7848 31.7717 30.9478 30.1966 30.5096V35.6306C30.1966 36.2694 29.9288 36.8821 29.4522 37.3338C28.9755 37.7856 28.329 38.0393 27.6549 38.0393C26.9809 38.0393 26.3344 37.7856 25.8577 37.3338C25.3811 36.8821 25.1133 36.2694 25.1133 35.6306V27.754C25.1133 27.1155 25.3807 26.5032 25.8568 26.0516C26.3329 25.5999 26.9788 25.3459 27.6524 25.3452C29.6067 25.3465 31.5396 25.7319 33.3288 26.4769C35.1181 27.2219 36.7249 28.3105 38.0478 29.6737L42.234 34.0023C42.5673 34.3467 42.7878 34.7756 42.8684 35.2367C42.9491 35.6978 42.8865 36.1711 42.6882 36.5991C42.4899 37.027 42.1645 37.3911 41.7517 37.6468C41.3389 37.9025 40.8565 38.0389 40.3633 38.0393V38.0417Z" fill="#1D1D1D"/>
<path d="M27.6432 33.1232C26.9691 33.1232 26.3227 32.8694 25.846 32.4177C25.3693 31.966 25.1016 31.3533 25.1016 30.7145V16.4546C25.1016 15.8158 25.3693 15.2031 25.846 14.7514C26.3227 14.2997 26.9691 14.0459 27.6432 14.0459C28.3173 14.0459 28.9638 14.2997 29.4405 14.7514C29.9171 15.2031 30.1849 15.8158 30.1849 16.4546V30.7145C30.1849 31.3533 29.9171 31.966 29.4405 32.4177C28.9638 32.8694 28.3173 33.1232 27.6432 33.1232Z" fill="#1D1D1D"/>
<path d="M29.9813 30.4014C29.3915 30.4028 28.8196 30.2098 28.3635 29.8554C27.9074 29.501 27.5956 29.0073 27.4814 28.4589C27.3672 27.9106 27.4579 27.3416 27.7377 26.8496C28.0176 26.3576 28.4693 25.9732 29.0155 25.7622C31.2248 24.9003 33.1829 23.5474 34.7245 21.8177C36.2661 20.0879 37.3461 18.0321 37.8732 15.8237C37.9446 15.5127 38.0804 15.2182 38.2726 14.9572C38.4648 14.6963 38.7097 14.474 38.9931 14.3033C39.2765 14.1325 39.5928 14.0167 39.9237 13.9625C40.2546 13.9082 40.5935 13.9167 40.921 13.9874C41.2484 14.058 41.5578 14.1895 41.8313 14.3741C42.1049 14.5588 42.337 14.7929 42.5145 15.0631C42.692 15.3333 42.8112 15.6342 42.8652 15.9483C42.9193 16.2624 42.9071 16.5835 42.8294 16.8931C42.121 19.8552 40.6714 22.6124 38.603 24.9323C36.5347 27.2522 33.908 29.0668 30.9446 30.2232C30.6389 30.3416 30.3116 30.4021 29.9813 30.4014ZM27.6531 18.772H27.6455L25.9833 18.7672C25.6495 18.7662 25.3192 18.703 25.0112 18.581C24.7032 18.4591 24.4236 18.2809 24.1883 18.0565C23.953 17.8322 23.7666 17.5661 23.6398 17.2735C23.513 16.9809 23.4482 16.6675 23.4492 16.3512C23.4704 15.7181 23.7463 15.1168 24.2202 14.6702C24.6942 14.2237 25.3304 13.9659 25.9985 13.9497L27.6608 13.9545C28.3349 13.9554 28.9809 14.2101 29.4569 14.6625C29.9328 15.1149 30.1996 15.728 30.1986 16.3668C30.1976 17.0057 29.9289 17.618 29.4515 18.069C28.9741 18.5201 28.3272 18.7729 27.6531 18.772Z" fill="#1D1D1D"/>
</svg>
